<svg width="144px" height="46px" viewBox="0 0 144 46" version="1.1" xmlns="http://www.w3.org/2000/svg" xmlns:xlink="http://www.w3.org/1999/xlink">
  <path d="M78.7117241,6.20595257 C80.672,10.4513867 80.9423448,15.9429641 80.9423448,21.2430042 C80.9423448,26.6843414 78.2344828,32.5086985 73.113931,38.0870047 C69.3263448,42.2131827 65.5806897,44.7545973 65.4223448,44.8616029 L64.5142069,45.4736842 L63.6055172,44.8616029 C63.4471724,44.7545973 59.7004138,42.2131827 55.9128276,38.0870047 C50.7909517,32.5086985 48.085131,26.6843414 48.085131,21.2430042 C48.085131,16.2693337 48.3624828,10.5893966 50.4170483,6.19504984 L50.8717793,5.22152949 L51.9508414,5.26535954 C52.1400828,5.27396119 52.3351172,5.27823462 52.5291034,5.27823462 C53.495669,5.27823462 54.4939586,5.18191807 55.4957241,4.99251744 C59.6816552,4.20385035 62.6962759,1.93427521 62.8855172,0.30883754 L66.1086897,0.320616867 C66.2758621,1.81867343 69.1282759,4.00376614 73.4411034,4.92080051 C74.5555862,5.15835942 75.6612414,5.27823462 76.729931,5.27823462 C76.8833103,5.27823462 77.0361379,5.27713887 77.1856552,5.26968776 L78.2626207,5.23434978 L78.7117241,6.20595257 Z M71.8642759,36.9527376 C76.6957241,31.6901174 79.2496552,26.2584228 79.2496552,21.2430042 C79.2496552,16.2319138 79.0096552,11.0531734 77.2706207,7.12090501 L77.1972414,6.95500824 L76.729931,6.95928167 C75.5475862,6.95928167 74.3211034,6.82664096 73.0863448,6.56442765 C69.4135172,5.78436221 66.3332414,4.08189321 65.0493793,2.12153912 L64.9677241,1.99739049 L64.025931,1.99415802 L63.9437241,2.12044337 C62.6091034,4.18675663 59.4168276,5.96307926 55.8118621,6.64469144 C54.5566897,6.87989448 53.293131,6.98048446 52.1120552,6.95396728 L51.9282207,6.94969385 L51.8534621,7.11663158 C50.0247724,11.1950732 49.7780414,16.5454082 49.7780414,21.2430042 C49.7780414,26.2584228 52.3319172,31.6911584 57.1635862,36.9527376 C60.3277241,40.3994128 63.4675862,42.7043423 64.3547586,43.3292658 L64.5142069,43.4416241 L64.6736552,43.3292658 C65.5630345,42.7022056 68.7095172,40.3897811 71.8642759,36.9527376 Z M76.8375172,7.50611642 C78.470069,11.3266729 78.697931,16.3624178 78.697931,21.2430042 C78.697931,26.1193172 76.1942069,31.4236855 71.4565517,36.5835242 C68.5053793,39.7991163 65.5646897,42.0162871 64.5142069,42.7685479 C63.4653793,42.0184293 60.5302069,39.8076632 57.5713103,36.5835242 C52.8340414,31.4247264 50.3297655,26.1204129 50.3297655,21.2430042 C50.3297655,16.6674202 50.5635862,11.470052 52.284469,7.50502067 C53.4633379,7.52003247 54.6864,7.4140733 55.9150345,7.18292454 C59.5895172,6.48717717 62.8662069,4.67469474 64.3244138,2.54312949 L64.6703448,2.54417045 C66.0915862,4.59766341 69.1790345,6.29481801 72.9710345,7.10057882 C74.2438621,7.37018846 75.5084138,7.50655472 76.729931,7.50655472 L76.8375172,7.50611642 Z M66.5732414,38.1383406 C69.5497931,35.4695833 71.5735172,31.9426334 71.872,27.2632269 C71.7726897,23.0161491 69.9966897,19.8915044 67.0885517,17.5084642 C72.9004138,13.7236292 69.5161379,7.03954547 64.6267586,7.03954547 C59.5271724,7.03954547 56.5506207,14.212663 62.198069,17.5566224 C59.2943448,19.9739049 57.6121379,22.989358 57.5128276,27.2353948 C57.8124138,31.9148561 59.6926897,35.5241517 62.646069,38.1768563 L64.6151724,35.6450679 L66.5732414,38.1383406 Z M64.4226207,18.7807959 C63.9128276,17.7813611 63.0493793,16.8856938 62.3536552,15.9632903 C62.1875862,15.7386065 62.0711724,15.0398458 62.5903448,15.2271097 C62.934069,15.3533403 63.3373793,15.4464791 63.7131034,15.3095102 C64.0011034,15.2046468 64.4546207,15.2324241 64.4546207,15.6112254 L64.4546207,17.8958671 C64.4546207,18.1280568 64.4882759,18.5946278 64.4226207,18.7807959 Z M64.0292414,13.2496071 L63.4041379,13.1297319 L63.4267586,13.8648715 L62.9064828,13.2774392 L62.5406897,13.9312193 L62.4513103,13.2324586 L61.7175172,13.4422402 L62.2035862,12.81558 L61.6011034,12.4427505 L62.2758621,12.3439138 L62.0551724,11.6793953 L62.6571034,12.0586349 L62.8838621,11.3823371 L63.1553103,12.0308028 L63.7804138,11.6295386 L63.4868966,12.2719777 L64.2057931,12.381772 L63.5591724,12.7284677 L64.0292414,13.2496071 Z M67.5525517,13.2496071 L66.928,13.1297319 L66.9495172,13.8648715 L66.4297931,13.2774392 L66.0645517,13.9312193 L65.9762759,13.2324586 L65.2402759,13.4422402 L65.7274483,12.81558 L65.1238621,12.4427505 L65.7986207,12.3439138 L65.5773793,11.6793953 L66.1809655,12.0586349 L66.4071724,11.3823371 L66.6786207,12.0308028 L67.3037241,11.6295386 L67.0107586,12.2719777 L67.7296552,12.381772 L67.0830345,12.7284677 L67.5525517,13.2496071 Z M66.8838621,15.9247746 C66.1853793,16.8471782 65.3230345,17.7428454 64.8148966,18.7422803 C64.7475862,18.5560573 64.7812414,18.0884454 64.7812414,17.8583924 L64.7812414,15.5738055 C64.7812414,15.1939084 65.2347586,15.1671721 65.5227586,15.2709398 C65.8984828,15.4090044 66.3028966,15.3148246 66.6455172,15.189635 C67.1657931,15.0023711 67.0493793,15.6989951 66.8838621,15.9247746 Z M68.0115862,28.0465248 C67.7186207,28.5687051 67.1928276,28.8544223 66.8502069,29.2279092 C66.2135172,29.9095214 65.9707586,30.3375219 65.8984828,30.925009 C65.136,29.552142 63.6088276,25.5147363 67.8957241,20.8567518 C67.2369655,22.1204819 66.7282759,23.2462022 66.64,24.367649 C66.5903448,25.0310717 66.7735172,25.5639904 67.110069,26.1685712 C67.5751724,26.6843414 68.1715862,27.3113852 68.0115862,28.0465248 Z M63.3489655,31.0074095 C63.2049655,30.4413443 62.9611034,29.8538572 62.336,29.2332236 C61.9211034,28.8159067 61.2468966,28.4649375 61.081931,28.0026399 C60.9765517,27.4750904 61.6066207,26.9154902 62.0325517,26.2777081 C62.4027586,25.7234222 62.6344828,25.0759975 62.5572414,24.3226684 C62.4248276,23.1199168 61.9817931,22.1696812 61.2573793,20.977668 C65.5497931,24.525985 64.2057931,29.6783726 63.3489655,31.0074095 Z M69.2777931,30.3921451 C69.2231724,31.1004936 69.2954483,32.0175828 68.6808276,31.9854772 C68.4104828,31.9747389 68.1390345,31.650506 67.5751724,31.6334123 C67.2491034,31.6451916 66.8888276,31.7104436 66.5627586,31.8206762 C66.0590345,31.9961608 66.4513103,30.3482602 67.2877241,29.6997945 C67.4366897,29.5906577 67.9006897,29.3102549 68.4253793,28.5301895 C68.6648276,28.1792203 68.7470345,28.1845895 68.8750345,28.6511056 C69.1348966,29.3102549 69.1724138,29.6398569 69.2777931,30.3921451 Z M62.6295172,31.9191295 C62.304,31.8099379 61.9437241,31.7425491 61.6176552,31.7329065 C61.0537931,31.7489593 60.7823448,32.0731921 60.5108966,32.0838757 C59.8973793,32.117077 59.9696552,31.2000426 59.913931,30.4916393 C60.0193103,29.7383102 60.057931,29.4087082 60.3177931,28.7495589 C60.4452414,28.282988 60.528,28.2776736 60.7652414,28.6297385 C61.2910345,29.4087082 61.7555862,29.689111 61.9051034,29.7992888 C62.7404138,30.4467135 63.1337931,32.0946141 62.6295172,31.9191295 Z M67.9729655,33.6654833 C67.6358621,33.3701235 67.1983448,33.0565743 66.9169655,32.7377106 C66.7393103,32.5397631 66.9947586,32.2594151 67.2584828,32.2433623 C67.6303448,32.2165712 67.9558621,32.2594151 68.3707586,32.3749621 C69.1238621,32.5836479 68.2328276,33.1111427 67.9729655,33.6654833 Z M62.2758621,32.7206169 C61.8278621,33.1657659 61.5624828,33.5948621 61.2976552,33.6986298 C61.0593103,33.1882288 60.1015172,32.5290247 60.848,32.4744563 C61.3081379,32.4413098 61.4968276,32.281878 61.8113103,32.2486767 C62.1875862,32.2047919 62.6024828,32.397425 62.2758621,32.7206169 Z M143.731862,12.4684459 C143.224276,12.5016472 142.820966,12.9499739 142.820966,13.5053555 C142.820966,14.0596413 143.224276,14.5080228 143.731862,14.5411693 L143.731862,15.5962684 C143.224276,15.6294148 142.820966,16.0788921 142.820966,16.6331779 C142.820966,17.1874638 143.224276,17.6368862 143.731862,17.6700875 L143.731862,18.7251318 C143.224276,18.758333 142.820966,19.2066597 142.820966,19.7610004 C142.820966,20.3152862 143.224276,20.7647087 143.731862,20.7978552 L143.731862,21.8529542 C143.231448,21.8850597 142.83531,22.3216619 142.823172,22.8652642 C142.83531,23.4088665 143.231448,23.8454138 143.731862,23.8775193 L143.731862,24.9337141 C143.224276,24.9668606 142.820966,25.4152421 142.820966,25.969528 C142.820966,26.5238138 143.224276,26.9732363 143.731862,27.0064375 L143.731862,28.0614818 C143.224276,28.0946831 142.820966,28.5441055 142.820966,29.0983914 C142.820966,29.6526772 143.224276,30.1010587 143.731862,30.13426 L143.731862,31.1904 C143.224276,31.2225055 142.820966,31.671928 142.820966,32.2262138 C142.820966,32.7804997 143.224276,33.2299221 143.731862,33.2631234 L143.731862,34.3182224 C143.270621,34.3481912 142.898759,34.7227191 142.83531,35.2074247 L76.2146207,35.2074247 C79.6805517,30.5355242 81.494069,25.7662113 81.494069,21.2430042 C81.494069,17.5630326 81.3638621,13.7910727 80.6344828,10.3829022 L142.820966,10.3829022 C142.824276,10.9343939 143.226483,11.3802004 143.731862,11.4133469 L143.731862,12.4684459 Z M137.231448,21.0675196 L137.231448,20.8599295 C136.86731,20.8599295 136.724414,20.6844449 136.724414,20.2895909 L136.724414,17.6154643 C136.724414,16.1580601 136.128,15.7845732 135.26731,15.7845732 C134.715586,15.7845732 134.054069,16.0810288 133.810207,16.7390823 L133.78869,16.7390823 L133.810207,15.620868 C133.182345,15.8723429 132.453517,16.0478275 131.86869,16.1687437 L131.86869,16.3774295 C132.133517,16.3774295 132.376276,16.4426815 132.376276,16.8814204 L132.376276,20.180454 C132.376276,20.7722146 132.18869,20.8599295 131.890207,20.8599295 L131.890207,21.0675196 C132.298483,21.0343731 132.706759,21.0022676 133.182345,21.0022676 C133.590621,21.0022676 133.997793,21.0343731 134.406069,21.0675196 L134.406069,20.8599295 C134.174345,20.8599295 133.876966,20.7722146 133.876966,20.3880441 L133.876966,18.0424238 C133.876966,17.5608959 134.054069,16.9466724 134.561655,16.9466724 C134.914759,16.9466724 135.223172,17.0890105 135.223172,17.8455721 L135.223172,21.0675196 C135.543172,21.0343731 135.863172,21.0022676 136.22731,21.0022676 C136.580966,21.0022676 136.900966,21.0343731 137.231448,21.0675196 Z M133.088552,23.8058572 L133.088552,23.3671183 L131.895724,23.3671183 C131.962483,23.7074039 132.028138,24.1236251 132.028138,24.3644165 C132.028138,25.1648081 131.719724,25.6795373 131.719724,25.7779906 C131.719724,25.8111371 131.785379,25.8657055 131.819034,25.8657055 C131.928828,25.8657055 133.088552,25.2739997 133.088552,23.8058572 Z M131.207172,21.0675196 L131.207172,20.8599295 C130.854621,20.8599295 130.633379,20.7058668 130.633379,20.3334757 L130.633379,17.6925504 C130.633379,16.1141753 129.529931,15.7845732 128.248828,15.7845732 C127.499034,15.7845732 126.859034,15.9386907 126.263172,16.1462808 L126.218483,17.6368862 L126.427586,17.6368862 C126.825379,16.8375356 127.24469,16.6181661 128.128,16.6181661 C128.657103,16.6181661 129.13269,16.8257562 129.13269,17.3854113 C129.13269,17.7246559 129.054897,17.7578024 128.039724,17.8787186 C127.069241,17.9985938 125.622621,18.16334 125.622621,19.6432619 C125.622621,20.5966752 126.296276,21.1777522 127.24469,21.1777522 C128.194207,21.1777522 128.690759,21.0461524 129.242483,20.245706 L129.265103,20.2350224 L129.265103,21.0675196 C129.596138,21.0343731 129.926621,21.0022676 130.225103,21.0022676 C130.545103,21.0022676 130.876138,21.0343731 131.207172,21.0675196 Z M127.123862,19.5448086 C127.123862,19.0290384 127.509517,18.7658389 129.13269,18.5036256 L129.13269,19.0183549 C129.13269,19.7085687 128.437517,20.2125595 127.90731,20.2125595 C127.465379,20.2125595 127.123862,19.9825065 127.123862,19.5448086 Z M128.464552,30.4916393 C129.414069,30.4916393 130.892138,30.1513537 130.892138,28.7485179 C130.892138,27.6527665 130.152828,27.3242055 129.414069,27.1380373 C128.674759,26.9507734 127.935448,26.9068885 127.935448,26.3814757 C127.935448,26.0091394 128.398897,25.8657055 128.763034,25.8657055 C129.46869,25.8657055 130.087172,26.0968543 130.352552,26.7763297 L130.561655,26.7763297 C130.528,26.2937608 130.506483,25.8111371 130.462345,25.3071462 C130.043034,25.1755465 129.579586,25.0984604 129.115034,25.0984604 C127.746759,25.0984604 126.566621,25.5479376 126.566621,26.8855214 C126.566621,27.8613976 127.305931,28.167441 128.045241,28.3429256 C128.784552,28.5184101 129.523862,28.562295 129.523862,29.0556023 C129.523862,29.5595932 129.016276,29.7896462 128.596966,29.7896462 C127.803034,29.7896462 127.129379,29.3947921 126.830897,28.6061798 L126.621793,28.6061798 C126.64331,29.1101707 126.665931,29.6141616 126.687448,30.1182072 C127.150897,30.3161547 127.746759,30.4916393 128.464552,30.4916393 Z M125.894621,30.3814067 L125.894621,30.1738166 C125.529931,30.1738166 125.387034,29.998332 125.387034,29.603478 L125.387034,26.9293514 C125.387034,25.4719472 124.791172,25.0984604 123.929931,25.0984604 C123.378207,25.0984604 122.715586,25.3949159 122.472828,26.0529694 L122.450207,26.0529694 L122.472828,24.9347551 C121.843862,25.1862301 121.115034,25.3617146 120.530207,25.4826308 L120.530207,25.6913167 C120.795034,25.6913167 121.037793,25.7565687 121.037793,26.1953075 L121.037793,29.4943412 C121.037793,30.0861017 120.850207,30.1738166 120.552828,30.1738166 L120.552828,30.3814067 C120.961103,30.3482602 121.369379,30.3161547 121.843862,30.3161547 C122.252138,30.3161547 122.660414,30.3482602 123.069241,30.3814067 L123.069241,30.1738166 C122.837517,30.1738166 122.539034,30.0861017 122.539034,29.7019313 L122.539034,27.356311 C122.539034,26.874783 122.715586,26.2605595 123.223172,26.2605595 C123.576276,26.2605595 123.885793,26.4028977 123.885793,27.1594592 L123.885793,30.3814067 C124.205793,30.3482602 124.525793,30.3161547 124.889931,30.3161547 C125.243586,30.3161547 125.563586,30.3482602 125.894621,30.3814067 Z M119.486897,19.6432619 C119.486897,20.5966752 120.160552,21.1777522 121.110069,21.1777522 C122.059034,21.1777522 122.556138,21.0461524 123.107862,20.245706 L123.129379,20.2350224 L123.129379,21.0675196 C123.459862,21.0343731 123.792,21.0022676 124.089379,21.0022676 C124.409379,21.0022676 124.741517,21.0343731 125.072,21.0675196 L125.072,20.8599295 C124.718897,20.8599295 124.497655,20.7058668 124.497655,20.3334757 L124.497655,17.6925504 C124.497655,16.1141753 123.394207,15.7845732 122.114207,15.7845732 C121.36331,15.7845732 120.72331,15.9386907 120.126897,16.1462808 L120.082759,17.6368862 L120.292966,17.6368862 C120.690759,16.8375356 121.110069,16.6181661 121.992276,16.6181661 C122.522483,16.6181661 122.996966,16.8257562 122.996966,17.3854113 C122.996966,17.7246559 122.920276,17.7578024 121.904,17.8787186 C120.932966,17.9985938 119.486897,18.16334 119.486897,19.6432619 Z M121.771586,20.2125595 C121.330759,20.2125595 120.988138,19.9825065 120.988138,19.5448086 C120.988138,19.0290384 121.374897,18.7658389 122.996966,18.5036256 L122.996966,19.0183549 C122.996966,19.7085687 122.301793,20.2125595 121.771586,20.2125595 Z M119.747862,27.8935031 L119.747862,27.4879655 C119.747862,26.0305065 118.688552,25.0984604 117.13269,25.0984604 C115.520552,25.0984604 114.406069,26.249876 114.406069,27.751165 C114.406069,29.6366245 115.730759,30.4916393 117.364414,30.4916393 C118.059034,30.4916393 118.854621,30.3600396 119.427862,29.8998788 L119.615448,28.8586958 C119.086345,29.2310869 118.313379,29.5264467 117.750069,29.5264467 C116.989241,29.5264467 115.972966,29.1208543 115.972966,27.8935031 L119.747862,27.8935031 Z M117.099034,25.9973601 C117.761655,25.9973601 118.180966,26.3590128 118.180966,27.061006 L116.017103,27.061006 C116.017103,26.3590128 116.437517,25.9973601 117.099034,25.9973601 Z M113.105655,26.7538668 C113.105655,26.5238138 113.038897,26.2605595 112.929103,26.0637078 L113.634759,26.019823 L113.876966,25.2193765 C113.513931,25.2857243 113.083034,25.3403475 112.796138,25.3403475 C112.310621,25.3403475 111.537655,25.0984604 110.920276,25.0984604 C109.552,25.0984604 108.54731,25.7020003 108.54731,26.9293514 C108.54731,27.3349438 108.72331,27.8720812 109.154207,28.2113258 L108.314483,28.6061798 C108.082759,28.7153167 108.006621,29.0117174 108.006621,29.2204033 C108.006621,29.9437636 108.480552,30.4477545 109.750069,30.4477545 C110.091586,30.4477545 110.423724,30.4252916 110.920276,30.4252916 C111.956966,30.4252916 112.365241,30.5355242 112.365241,31.0170521 C112.365241,31.4450526 111.824552,31.7297289 111.095724,31.7297289 C110.334897,31.7297289 110.080552,31.3465994 110.080552,31.060937 C110.080552,30.8853976 110.080552,30.7537978 110.135724,30.6232391 L108.790069,30.9731673 C108.745931,31.104767 108.712276,31.2256832 108.712276,31.3573377 C108.712276,31.9929283 109.573517,32.4306263 110.699586,32.4306263 C112.244414,32.4306263 113.734069,31.7735589 113.734069,30.5355242 C113.734069,29.6366245 112.994759,29.1540555 111.670069,29.1540555 L110.290759,29.1540555 C109.396414,29.1540555 109.242483,29.0117174 109.242483,28.8030864 C109.242483,28.6938947 109.308138,28.5291485 109.573517,28.4531581 C109.750069,28.5291485 110.014897,28.6276018 110.721103,28.6276018 C111.912828,28.6276018 113.105655,28.1235561 113.105655,26.7538668 Z M110.819862,25.8657055 C111.328552,25.8657055 111.736828,26.2167295 111.736828,26.9186679 C111.736828,27.3788287 111.472,27.7950498 110.897655,27.7950498 C110.390069,27.7950498 109.981793,27.4001958 109.981793,26.7977517 C109.981793,26.1835282 110.345931,25.8657055 110.819862,25.8657055 Z M107.554759,25.8218755 C107.654069,25.5158321 107.709241,25.438746 108.018207,25.4162831 L108.018207,25.208693 C107.719724,25.2418942 107.399724,25.2739997 107.091862,25.2739997 C106.77131,25.2739997 106.462345,25.2418942 106.142345,25.208693 L106.142345,25.4162831 C106.462345,25.4280624 106.638897,25.5479376 106.638897,25.8218755 C106.638897,25.9427916 106.528,26.2937608 106.418207,26.7207204 L105.910621,28.6276018 L105.888,28.6276018 L105.093517,26.315128 C104.982621,26.0091394 104.916966,25.7672523 104.916966,25.6795373 C104.916966,25.4162831 105.236966,25.438746 105.424552,25.4162831 L105.424552,25.208693 C104.994759,25.2418942 104.552828,25.2739997 104.121931,25.2739997 C103.681103,25.2739997 103.250207,25.2418942 102.830897,25.208693 L102.830897,25.4162831 C103.085241,25.4826308 103.184,25.5596621 103.272828,25.7672523 L104.839172,29.6141616 C105.049379,30.1182072 105.14869,30.3375219 105.14869,30.4477545 C105.14869,30.7869991 104.761931,31.2032203 104.221793,31.2032203 C103.890207,31.2032203 103.735724,30.9410618 103.702621,30.6553446 L103.493517,30.6553446 L103.559172,32.2122978 C103.746759,32.3546359 103.978483,32.4306263 104.210207,32.4306263 C104.916966,32.4306263 105.568,31.9704654 106.152828,30.1513537 L107.554759,25.8218755 Z M102.589241,30.3814067 L102.589241,30.1738166 C102.225103,30.1738166 102.081655,29.998332 102.081655,29.603478 L102.081655,25.603547 C102.081655,25.4055995 102.09269,25.208693 102.136828,24.9347551 C101.397517,25.2193765 100.734897,25.4055995 100.094897,25.4826308 L100.094897,25.6913167 C100.326621,25.6688538 100.580966,25.8004535 100.580966,26.2167295 L100.580966,28.3429256 C100.580966,29.0010339 100.249931,29.3295401 99.7975172,29.3295401 C99.3997241,29.3295401 99.2673103,29.0556023 99.2336552,28.6607483 L99.2336552,25.603547 C99.2336552,25.4055995 99.2457931,25.208693 99.289931,24.9347551 C98.5495172,25.2193765 97.888,25.4055995 97.2253793,25.4826308 L97.2253793,25.6913167 C97.4797241,25.6688538 97.7329655,25.8004535 97.7329655,26.2167295 L97.7329655,28.7709808 C97.7329655,30.1406701 98.3955862,30.4916393 99.2673103,30.4916393 C100.061241,30.4916393 100.580966,30.019754 100.713379,29.3402237 L100.734897,29.3402237 L100.702345,30.3814067 C101.067034,30.3482602 101.353379,30.3161547 101.585103,30.3161547 C101.938759,30.3161547 102.258759,30.3482602 102.589241,30.3814067 Z M97.0002759,20.8599295 C96.7685517,20.8599295 96.470069,20.7722146 96.470069,20.3880441 L96.470069,17.9771718 C96.470069,17.4945481 96.5809655,16.9466724 97.1542069,16.9466724 C97.5073103,16.9466724 97.8168276,17.0890105 97.8168276,17.8455721 L97.8168276,21.0675196 C98.1368276,21.0343731 98.4568276,21.0022676 98.8209655,21.0022676 C99.1746207,21.0022676 99.4946207,21.0343731 99.8256552,21.0675196 L99.8256552,20.8599295 C99.4609655,20.8599295 99.318069,20.6844449 99.318069,20.2895909 L99.318069,17.6154643 C99.318069,16.1580601 98.7222069,15.7845732 97.8504828,15.7845732 C97.5746207,15.7845732 97.2866207,15.850921 97.0444138,15.9825755 C96.8126897,16.1141753 96.6129655,16.3110818 96.4926897,16.5743361 L96.470069,16.5743361 L96.470069,13.9108931 C96.470069,13.5930704 96.5031724,13.285986 96.5031724,13.0013646 C95.8190345,13.308449 95.1348966,13.5278184 94.4612414,13.6038088 L94.4612414,13.8124398 C94.7922759,13.8895259 94.9688276,13.9216315 94.9688276,14.7220231 L94.9688276,20.180454 C94.9688276,20.7722146 94.7812414,20.8599295 94.4612414,20.8599295 L94.4612414,21.0675196 C94.8921379,21.0343731 95.3004138,21.0022676 95.7748966,21.0022676 C96.1831724,21.0022676 96.5914483,21.0343731 97.0002759,21.0675196 L97.0002759,20.8599295 Z M96.3332414,23.5094564 L96.3332414,23.3018115 C95.8482759,23.3339171 95.4168276,23.3671183 95.0085517,23.3671183 C94.6002759,23.3671183 94.1704828,23.3339171 93.6844138,23.3018115 L93.6844138,23.5094564 C94.0601379,23.521181 94.192,23.6635191 94.192,23.9706582 L94.192,26.1396434 L91.5216552,26.1396434 L91.5216552,23.9706582 C91.5216552,23.6635191 91.654069,23.521181 92.0292414,23.5094564 L92.0292414,23.3018115 C91.5431724,23.3339171 91.1133793,23.3671183 90.7045517,23.3671183 C90.2962759,23.3671183 89.8664828,23.3339171 89.3804138,23.3018115 L89.3804138,23.5094564 C89.7555862,23.521181 89.888,23.6635191 89.888,23.9706582 L89.888,29.7126148 C89.888,30.019754 89.7555862,30.1620373 89.3804138,30.1738166 L89.3804138,30.3814067 C89.8664828,30.3482602 90.2962759,30.3161547 90.7045517,30.3161547 C91.1133793,30.3161547 91.5431724,30.3482602 92.0292414,30.3814067 L92.0292414,30.1738166 C91.654069,30.1620373 91.5216552,30.019754 91.5216552,29.7126148 L91.5216552,27.1926057 L94.192,27.1926057 L94.192,29.7126148 C94.192,30.019754 94.0601379,30.1620373 93.6844138,30.1738166 L93.6844138,30.3814067 C94.1704828,30.3482602 94.6002759,30.3161547 95.0085517,30.3161547 C95.4168276,30.3161547 95.8482759,30.3482602 96.3332414,30.3814067 L96.3332414,30.1738166 C95.958069,30.1620373 95.8256552,30.019754 95.8256552,29.7126148 L95.8256552,23.9706582 C95.8256552,23.6635191 95.958069,23.521181 96.3332414,23.5094564 Z M87.7197241,17.5608959 C87.7197241,19.4238925 89.065931,21.2430042 91.4504828,21.2430042 C92.0904828,21.2430042 93.072,21.0343731 93.7566897,20.5196439 L93.878069,19.3468611 C93.2822069,19.8401684 92.3988966,20.1247899 91.7815172,20.1247899 C90.3244138,20.1247899 89.2866207,18.7219541 89.2866207,17.4838646 C89.2866207,15.8402374 90.2576552,14.8643612 91.5161379,14.8643612 C92.4430345,14.8643612 93.1608276,15.3469301 93.3373793,16.2565134 L93.5475862,16.2565134 C93.4913103,15.5438367 93.4808276,14.8311599 93.4808276,14.0863777 C93.2275862,13.9879244 92.553931,13.8124398 91.6485517,13.8124398 C89.065931,13.8124398 87.7197241,15.6540692 87.7197241,17.5608959 Z M86.6157241,16.5518184 C86.550069,16.2126285 86.4833103,15.7963526 86.4833103,15.5545202 C86.4833103,14.7551696 86.7928276,14.2393994 86.7928276,14.1409461 C86.7928276,14.1077996 86.7266207,14.0532312 86.6935172,14.0532312 C86.5837241,14.0532312 85.424,14.6449918 85.424,16.1141753 L85.424,16.5518184 L86.6157241,16.5518184 Z M100.596966,16.1687437 L100.596966,16.3774295 C100.862345,16.3774295 101.104552,16.4426815 101.104552,16.8814204 L101.104552,20.180454 C101.104552,20.7722146 100.916966,20.8599295 100.618483,20.8599295 L100.618483,21.0675196 C101.026759,21.0343731 101.435586,21.0022676 101.910621,21.0022676 C102.374069,21.0022676 102.814897,21.0343731 103.256276,21.0675196 L103.256276,20.8599295 C103.014069,20.8374666 102.605793,20.7165504 102.605793,20.431929 L102.605793,18.2179632 C102.605793,17.6486656 102.870621,16.9466724 103.532138,16.9466724 C103.940966,16.9466724 104.150621,17.1114734 104.327724,17.473181 L104.448552,17.473181 L104.382345,15.8402374 C104.22731,15.8070909 104.062345,15.7845732 103.995586,15.7845732 C103.443862,15.7845732 102.782345,16.0810288 102.539034,16.7390823 L102.517517,16.7390823 L102.539034,15.620868 C101.910621,15.8723429 101.182345,16.0478275 100.596966,16.1687437 Z M104.779034,20.8599295 L104.779034,21.0675196 C105.219862,21.0343731 105.628138,21.0022676 106.048552,21.0022676 C106.456828,21.0022676 106.876138,21.0343731 107.295448,21.0675196 L107.295448,20.8599295 C107.063724,20.8599295 106.787862,20.8160446 106.787862,20.3227373 L106.787862,15.620868 C106.345931,15.850921 105.50731,16.0810288 104.779034,16.1687437 L104.779034,16.3774295 C105.044414,16.3774295 105.286621,16.4426815 105.286621,16.8814204 L105.286621,20.3773606 C105.286621,20.7828982 104.966621,20.8599295 104.779034,20.8599295 Z M105.926621,13.6583772 C105.385931,13.6583772 105.088552,14.0532312 105.088552,14.5465385 C105.088552,15.0729923 105.45269,15.4122369 105.981793,15.4122369 C106.478345,15.4122369 106.787862,15.0291074 106.787862,14.5572221 C106.787862,14.0318093 106.489379,13.6583772 105.926621,13.6583772 Z M110.406069,15.7845732 C109.037793,15.7845732 107.857655,16.2340505 107.857655,17.5716342 C107.857655,18.5475105 108.596966,18.8535538 109.336276,19.0290384 C110.075586,19.204523 110.814897,19.2484079 110.814897,19.7417152 C110.814897,20.245706 110.30731,20.475759 109.888,20.475759 C109.093517,20.475759 108.420414,20.080905 108.121931,19.2922927 L107.912828,19.2922927 C107.934345,19.7962836 107.956966,20.3002744 107.978483,20.8043201 C108.441931,21.0022676 109.037793,21.1777522 109.755586,21.1777522 C110.704552,21.1777522 112.183172,20.8374666 112.183172,19.4346308 C112.183172,18.3388794 111.443862,18.0103183 110.704552,17.8241502 C109.965793,17.6368862 109.226483,17.5930014 109.226483,17.0675886 C109.226483,16.6952523 109.689931,16.5518184 110.054069,16.5518184 C110.759724,16.5518184 111.378207,16.7829672 111.643586,17.4624426 L111.852138,17.4624426 C111.819034,16.9798737 111.797517,16.49725 111.753379,15.9932591 C111.334069,15.8616594 110.870621,15.7845732 110.406069,15.7845732 Z M112.657103,15.8948058 L112.657103,16.727303 L113.252966,16.727303 L113.252966,19.5223457 C113.252966,20.3334757 113.48469,21.1777522 114.819862,21.1777522 C115.25131,21.1777522 115.636966,21.0899825 115.968552,20.9252363 L116.089379,19.9717682 C115.912828,20.1141063 115.691586,20.2125595 115.427862,20.2125595 C115.007448,20.2125595 114.754207,19.9717682 114.754207,19.4014295 L114.754207,16.727303 L115.956966,16.727303 L115.956966,15.8948058 L114.754207,15.8948058 L114.754207,14.2950635 L114.467862,14.2950635 C114.147862,14.6449918 113.661793,14.9959609 113.252966,15.160762 L113.252966,15.8948058 L112.657103,15.8948058 Z M116.420414,20.8599295 L116.420414,21.0675196 C116.861241,21.0343731 117.269517,21.0022676 117.689931,21.0022676 C118.098207,21.0022676 118.517517,21.0343731 118.936276,21.0675196 L118.936276,20.8599295 C118.704552,20.8599295 118.42869,20.8160446 118.42869,20.3227373 L118.42869,15.620868 C117.98731,15.850921 117.14869,16.0810288 116.420414,16.1687437 L116.420414,16.3774295 C116.685241,16.3774295 116.928,16.4426815 116.928,16.8814204 L116.928,20.3773606 C116.928,20.7828982 116.608,20.8599295 116.420414,20.8599295 Z M117.568,13.6583772 C117.026759,13.6583772 116.729379,14.0532312 116.729379,14.5465385 C116.729379,15.0729923 117.093517,15.4122369 117.622621,15.4122369 C118.119724,15.4122369 118.42869,15.0291074 118.42869,14.5572221 C118.42869,14.0318093 118.130207,13.6583772 117.568,13.6583772 Z M47.5334069,21.2430042 C47.5334069,25.7672523 49.3463172,30.5365651 52.8120828,35.2074247 L0.88361931,35.2074247 C0.820044138,34.7280335 0.455172414,34.3556424 1.56221499e-14,34.3192634 L1.54925484e-14,33.2609867 C0.501077517,33.2213753 0.897627586,32.7762263 0.897627586,32.2262138 C0.897627586,31.6772971 0.501077517,31.2321481 1.52391022e-14,31.191441 L1.51095006e-14,30.1331642 C0.501077517,30.0925119 0.897627586,29.6473628 0.897627586,29.0983914 C0.897627586,28.5483789 0.501077517,28.1032299 1.48559269e-14,28.0625776 L1.47263254e-14,27.0043008 C0.501077517,26.9646894 0.897627586,26.5195404 0.897627586,25.969528 C0.897627586,25.4205565 0.501077517,24.9754075 1.44728791e-14,24.9347551 L1.43432776e-14,23.8764784 C0.493534345,23.836867 0.88361931,23.4034973 0.895475862,22.8652642 C0.88361931,22.3270311 0.493534345,21.8936066 1.40956016e-14,21.85405 L1.39661275e-14,20.7968142 C0.501077517,20.7561618 0.897627586,20.3110128 0.897627586,19.7610004 C0.897627586,19.2120289 0.501077517,18.7668799 1.37125538e-14,18.7262275 L1.35829455e-14,17.667896 C0.501077517,17.6283394 0.897627586,17.1820946 0.897627586,16.6331779 C0.897627586,16.0831655 0.501077517,15.6380165 1.3329506e-14,15.5984051 L1.31999045e-14,14.5401283 C0.501077517,14.4994212 0.897627586,14.0542722 0.897627586,13.5053555 C0.897627586,12.9553431 0.501077517,12.510194 1.29464045e-14,12.4701443 L1.28167762e-14,11.4116484 C0.498922483,11.3716535 0.893318621,10.9296822 0.896551724,10.3829022 L48.4575448,10.3829022 C47.6713379,13.9077154 47.5334069,17.7481598 47.5334069,21.2430042 Z M45.6519172,31.1325991 C45.6519172,30.8286925 45.624331,30.2701332 45.624331,29.9127538 L45.624331,29.1037606 C45.624331,28.6757053 45.7776,28.4798945 45.7776,28.4092733 C45.7776,28.3879062 45.7500138,28.3718534 45.7284414,28.361115 L45.3023448,28.2027789 C45.2855724,28.1974098 45.264,28.1920406 45.2471724,28.1920406 C45.1709241,28.1920406 45.0726069,28.3985897 45.0564414,28.447789 C44.9526069,28.361115 44.7942069,28.1920406 44.4062345,28.1920406 C43.7558069,28.1920406 43.3735172,28.7346019 43.3735172,29.6088472 C43.3735172,30.4220591 43.6961103,30.9325149 44.307531,30.9325149 C44.6793379,30.9325149 44.8868414,30.7805342 44.9687724,30.7259658 C44.9687724,30.7644814 44.9853241,30.8939992 44.9853241,31.0844408 C44.9853241,31.3883475 44.9198345,31.5456426 44.5370483,31.5456426 C44.0513103,31.5456426 43.7176828,31.3337791 43.6519172,31.3337791 C43.6249931,31.3337791 43.6030345,31.3498318 43.592,31.3883475 L43.4881655,31.7189905 C43.472,31.7682445 43.4665931,31.7896117 43.4665931,31.8270864 C43.4665931,31.9415924 44.1713103,32.1149403 44.5974069,32.1149403 C45.3566897,32.1149403 45.6519172,31.7243597 45.6519172,31.1325991 Z M44.0674759,29.5863843 C44.0674759,29.0662859 44.2097103,28.7623792 44.5370483,28.7623792 C44.7827862,28.7623792 44.8976552,28.8704751 44.9687724,28.9250435 L44.9687724,30.2048812 C44.9142069,30.2540804 44.7827862,30.3899536 44.504331,30.3899536 C44.1767172,30.3899536 44.0674759,30.0807325 44.0674759,29.5863843 Z M42.6896552,30.8886301 L42.6896552,28.9849811 C42.6896552,28.3279685 42.2795034,28.1920406 41.978869,28.1920406 C41.5474207,28.1920406 41.3017379,28.4253261 41.1433379,28.5665684 C41.0829793,28.3119158 41.0394483,28.1920406 40.968331,28.1920406 C40.9465379,28.1920406 40.9191724,28.1974098 40.8862345,28.2091891 L40.4715586,28.3440213 C40.4332138,28.3547049 40.4109793,28.3771678 40.4109793,28.4039041 C40.4109793,28.5291485 40.5150897,28.4852637 40.5150897,29.2503721 L40.5150897,30.8886301 C40.5150897,30.9485677 40.5258483,30.9646204 40.5916138,30.9646204 L41.1325241,30.9646204 C41.1978483,30.9646204 41.2090483,30.9485677 41.2090483,30.8886301 L41.2090483,28.9849811 C41.2795034,28.9197291 41.4601379,28.7623792 41.6896552,28.7623792 C41.968331,28.7623792 41.9956966,29.0117174 41.9956966,29.2182666 L41.9956966,30.8886301 C41.9956966,30.9485677 42.0064552,30.9646204 42.0722207,30.9646204 L42.613131,30.9646204 C42.6784552,30.9646204 42.6896552,30.9485677 42.6896552,30.8886301 Z M39.2090483,27.9320188 C39.454731,27.9320188 39.6566621,27.7308388 39.6566621,27.4815554 C39.6566621,27.2322171 39.454731,27.0364063 39.2090483,27.0364063 C38.9575172,27.0364063 38.7553655,27.2322171 38.7553655,27.4815554 C38.7553655,27.7308388 38.9575172,27.9320188 39.2090483,27.9320188 Z M39.5588414,30.8886301 L39.5588414,28.361115 C39.5588414,28.3011774 39.5480828,28.2851795 39.4820966,28.2851795 L38.4439724,28.2851795 C38.3786483,28.2851795 38.3674483,28.3011774 38.3674483,28.361115 L38.3674483,28.71318 C38.3674483,28.7731176 38.3786483,28.7891703 38.4439724,28.7891703 L38.8648828,28.7891703 L38.8648828,30.8886301 C38.8648828,30.9485677 38.8754207,30.9646204 38.9414069,30.9646204 L39.4820966,30.9646204 C39.5480828,30.9646204 39.5588414,30.9485677 39.5588414,30.8886301 Z M37.2969931,22.8727153 C37.2969931,23.3928137 37.5969655,23.6967204 38.0618483,23.6967204 C38.5506207,23.6967204 38.8383448,23.369255 38.9094621,23.305044 C38.9385931,23.3863488 39.0441931,23.6967204 39.1325241,23.6967204 C39.1443862,23.6967204 39.1562483,23.6902554 39.1799724,23.6784761 L39.4094897,23.5383295 C39.4332138,23.5265502 39.4622897,23.5147708 39.4622897,23.491267 C39.4622897,23.4570247 39.3799724,23.3456964 39.3566897,23.2750752 C39.3038897,23.1113699 39.2855724,23.0589382 39.2855724,22.6908205 L39.2855724,21.5458699 C39.2855724,21.0546993 39.0560552,20.727234 38.3793103,20.727234 C38.0032552,20.727234 37.4611862,20.8974042 37.4611862,20.9968984 C37.4611862,21.0258263 37.4676966,21.04292 37.4795034,21.0728888 L37.5560276,21.2772464 C37.5614345,21.2943949 37.5790897,21.3061743 37.5969655,21.3061743 C37.6497655,21.3061743 37.9202759,21.1189103 38.3146483,21.1189103 C38.7327448,21.1189103 38.8383448,21.3061743 38.8383448,21.6453641 L38.8383448,21.8550909 C38.4741517,21.8668703 37.2969931,21.8850597 37.2969931,22.8727153 Z M37.7381517,22.8374321 C37.7381517,22.2232086 38.5797517,22.2232086 38.8383448,22.2178394 L38.8383448,22.9711685 C38.7446069,23.0535691 38.4741517,23.3339171 38.1681103,23.3339171 C37.8674759,23.3339171 37.7381517,23.0707176 37.7381517,22.8374321 Z M37.8530207,31.1325991 C37.8530207,30.8286925 37.8254345,30.2701332 37.8254345,29.9127538 L37.8254345,29.1037606 C37.8254345,28.6757053 37.9784276,28.4798945 37.9784276,28.4092733 C37.9784276,28.3879062 37.9508414,28.3718534 37.9295448,28.361115 L37.5032276,28.2027789 C37.4864,28.1974098 37.4651034,28.1920406 37.4482759,28.1920406 C37.3717517,28.1920406 37.2737103,28.3985897 37.2575448,28.447789 C37.1534345,28.361115 36.9950345,28.1920406 36.6073379,28.1920406 C35.9569103,28.1920406 35.5743448,28.7346019 35.5743448,29.6088472 C35.5743448,30.4220591 35.8972138,30.9325149 36.5086345,30.9325149 C36.8803862,30.9325149 37.0879448,30.7805342 37.1696,30.7259658 C37.1696,30.7644814 37.1864276,30.8939992 37.1864276,31.0844408 C37.1864276,31.3883475 37.1207172,31.5456426 36.7381517,31.5456426 C36.2521379,31.5456426 35.9185103,31.3337791 35.8530207,31.3337791 C35.8260966,31.3337791 35.8038621,31.3498318 35.7931034,31.3883475 L35.6889931,31.7189905 C35.6728276,31.7682445 35.6676966,31.7896117 35.6676966,31.8270864 C35.6676966,31.9415924 36.3721931,32.1149403 36.7985103,32.1149403 C37.5575172,32.1149403 37.8530207,31.7243597 37.8530207,31.1325991 Z M36.2683034,29.5863843 C36.2683034,29.0662859 36.4105379,28.7623792 36.7381517,28.7623792 C36.9844966,28.7623792 37.0984828,28.8704751 37.1696,28.9250435 L37.1696,30.2048812 C37.1153103,30.2540804 36.9844966,30.3899536 36.7051586,30.3899536 C36.3778207,30.3899536 36.2683034,30.0807325 36.2683034,29.5863843 Z M34.6950621,22.299199 C34.6950621,23.1531181 35.1012966,23.6967204 35.8011034,23.6967204 C36.2364138,23.6967204 36.7305931,23.4570247 36.7305931,23.3928137 C36.7305931,23.3746242 36.7191724,23.3628449 36.7133793,23.3456964 L36.613131,23.1006864 C36.601269,23.0824969 36.5959172,23.0653484 36.5776,23.0653484 C36.5426759,23.0653484 36.2364138,23.305044 35.8545103,23.305044 C35.2834207,23.305044 35.1778207,22.7432523 35.1778207,22.212525 C35.1778207,21.5458699 35.3480828,21.1189103 35.9245793,21.1189103 C36.2722207,21.1189103 36.5248,21.4174478 36.548469,21.4174478 C36.5664,21.4174478 36.5721931,21.3992583 36.5840552,21.3821098 L36.7191724,21.1370998 C36.7252414,21.1189103 36.7370483,21.107131 36.7370483,21.0899825 C36.7370483,21.0022676 36.2834207,20.727234 35.8894345,20.727234 C35.1659586,20.727234 34.6950621,21.323268 34.6950621,22.299199 Z M34.481269,27.9320188 C34.7269517,27.9320188 34.9288828,27.7308388 34.9288828,27.4815554 C34.9288828,27.2322171 34.7269517,27.0364063 34.481269,27.0364063 C34.2295172,27.0364063 34.0273655,27.2322171 34.0273655,27.4815554 C34.0273655,27.7308388 34.2295172,27.9320188 34.481269,27.9320188 Z M34.8308414,30.8886301 L34.8308414,28.361115 C34.8308414,28.3011774 34.8200276,28.2851795 34.7543172,28.2851795 L33.7161379,28.2851795 C33.650869,28.2851795 33.639669,28.3011774 33.639669,28.361115 L33.639669,28.71318 C33.639669,28.7731176 33.650869,28.7891703 33.7161379,28.7891703 L34.1368276,28.7891703 L34.1368276,30.8886301 C34.1368276,30.9485677 34.1476414,30.9646204 34.2133517,30.9646204 L34.7543172,30.9646204 C34.8200276,30.9646204 34.8308414,30.9485677 34.8308414,30.8886301 Z M33.3631448,23.5447396 C33.3631448,23.5907612 33.386869,23.6143198 33.4332138,23.6143198 L33.7392,23.6143198 C33.7866483,23.6143198 33.8103724,23.5907612 33.8103724,23.5447396 L33.8103724,20.8974042 C33.8103724,20.8449725 33.7985103,20.8096345 33.7338483,20.8096345 L32.9041103,20.8096345 C32.8566621,20.8096345 32.8329931,20.8331932 32.8329931,20.8792147 L32.8329931,21.1017618 C32.8329931,21.1488791 32.8566621,21.171342 32.9041103,21.171342 L33.3631448,21.171342 L33.3631448,23.5447396 Z M33.0329931,30.8886301 L33.0329931,28.9849811 C33.0329931,28.3279685 32.6228414,28.1920406 32.3222069,28.1920406 C31.8907586,28.1920406 31.6448552,28.4253261 31.4864,28.5665684 C31.4263172,28.3119158 31.3825655,28.1920406 31.3114483,28.1920406 C31.2898759,28.1920406 31.2625103,28.1974098 31.2295172,28.2091891 L30.8146759,28.3440213 C30.7762759,28.3547049 30.7543172,28.3771678 30.7543172,28.4039041 C30.7543172,28.5291485 30.8584276,28.4852637 30.8584276,29.2503721 L30.8584276,30.8886301 C30.8584276,30.9485677 30.8691862,30.9646204 30.9346759,30.9646204 L31.4756414,30.9646204 C31.5409655,30.9646204 31.5523862,30.9485677 31.5523862,30.8886301 L31.5523862,28.9849811 C31.6228414,28.9197291 31.8034759,28.7623792 32.0329931,28.7623792 C32.3114483,28.7623792 32.3390345,29.0117174 32.3390345,29.2182666 L32.3390345,30.8886301 C32.3390345,30.9485677 32.3497931,30.9646204 32.4152828,30.9646204 L32.956469,30.9646204 C33.0215724,30.9646204 33.0329931,30.9485677 33.0329931,30.8886301 Z M30.5728552,21.1017618 C30.5728552,21.1306897 30.5728552,21.171342 30.6142345,21.171342 L31.0556138,21.171342 L31.0556138,22.8310219 C31.0556138,23.0471589 31.0556138,23.3104132 31.2263172,23.491267 C31.3146483,23.6025405 31.5258483,23.6967204 31.7790897,23.6967204 C32.0969931,23.6967204 32.5383724,23.5329603 32.5383724,23.4570247 C32.5383724,23.4387805 32.5323034,23.4216867 32.5265103,23.3981281 L32.4616276,23.1819911 C32.4616276,23.1648426 32.4439724,23.1466531 32.4202483,23.1466531 C32.3674483,23.1466531 32.1325241,23.305044 31.8556138,23.305044 C31.5025655,23.305044 31.5025655,23.0653484 31.5025655,22.8310219 L31.5025655,21.171342 L32.2791172,21.171342 C32.3146483,21.171342 32.3437241,21.1488791 32.3555862,21.1189103 L32.4321103,20.890994 C32.4321103,20.8738455 32.4385655,20.8620662 32.4385655,20.8502869 C32.4385655,20.8150037 32.4088276,20.8096345 32.3739034,20.8096345 L31.5025655,20.8096345 L31.5025655,19.9096938 C31.5025655,19.8744107 31.5025655,19.8455376 31.4730483,19.8455376 C31.4611862,19.8455376 31.4493793,19.850852 31.4321103,19.850852 L31.1202759,19.9386217 C31.0786759,19.950401 31.0556138,19.9739049 31.0556138,20.0092429 L31.0556138,20.8096345 L30.6142345,20.8096345 C30.5728552,20.8096345 30.5728552,20.8385623 30.5728552,20.8792147 L30.5728552,21.1017618 Z M30.2381241,17.5598549 L30.5441655,17.5598549 C30.5911724,17.5598549 30.6148966,17.5362963 30.6148966,17.4892337 L30.6148966,15.5492058 C30.6148966,15.1286564 30.5678897,14.6727691 29.9142069,14.6727691 C29.4672552,14.6727691 29.1612138,14.9178339 28.9670069,15.0698146 C28.9612138,15.023793 28.8907586,14.6727691 28.7844966,14.6727691 C28.7672276,14.6727691 28.7489103,14.6899176 28.7374897,14.6963277 L28.4730483,14.8418435 C28.4493793,14.860033 28.4433103,14.8718123 28.4433103,14.8835916 C28.4433103,14.9124647 28.4903172,14.9531718 28.5377103,15.1286564 C28.5609931,15.2163713 28.5609931,15.2805824 28.5609931,15.4732155 L28.5609931,17.4892337 C28.5609931,17.5362963 28.5847172,17.5598549 28.6314483,17.5598549 L28.9374897,17.5598549 C28.9849379,17.5598549 29.0086069,17.5362963 29.0086069,17.4892337 L29.0086069,15.4207838 C29.1552,15.2923617 29.4025931,15.0644454 29.7851034,15.0644454 C30.1023448,15.0644454 30.1674483,15.2859516 30.1674483,15.5374265 L30.1674483,17.4892337 C30.1674483,17.5362963 30.190731,17.5598549 30.2381241,17.5598549 Z M29.9988966,29.8089314 C30.1027862,29.8089314 30.1250207,29.7768259 30.1250207,29.6740992 C30.1250207,29.0170866 29.9605517,28.1920406 29.032331,28.1920406 C28.3000276,28.1920406 27.8355862,28.7891703 27.8355862,29.6516363 C27.8355862,30.6500302 28.3383724,31.0566088 29.0592552,31.0566088 C29.4907586,31.0566088 30.0372966,30.8779465 30.0372966,30.7367041 C30.0372966,30.7152822 30.031669,30.6938602 30.021131,30.6778075 L29.8840276,30.3514379 C29.873269,30.3300708 29.8517517,30.3086488 29.824331,30.3086488 C29.7478621,30.3086488 29.5236966,30.4873659 29.1303724,30.4873659 C28.6170483,30.4873659 28.5297655,30.112838 28.5297655,29.8089314 L29.9988966,29.8089314 Z M28.9942069,28.7117035 C29.3707034,28.7117035 29.3873103,29.0876769 29.3873103,29.3049405 L28.5297655,29.3049405 C28.545931,29.1566045 28.5678897,28.7117035 28.9942069,28.7117035 Z M27.609931,28.3718534 C27.6157241,28.361115 27.6213517,28.3386521 27.6213517,28.3172302 C27.6213517,28.246609 27.4629517,28.1920406 27.3045517,28.1920406 C26.9325241,28.1920406 26.7305931,28.4959472 26.6264828,28.6211368 C26.5991172,28.4360096 26.4903172,28.1920406 26.4245517,28.1920406 C26.4025931,28.1920406 26.375669,28.2091891 26.3534345,28.2145035 L25.9381517,28.382537 C25.9112276,28.3932205 25.8889931,28.4092733 25.8889931,28.4306952 C25.8889931,28.5558848 26.0312276,28.6532424 26.0312276,29.2503721 L26.0312276,30.8886301 C26.0312276,30.9485677 26.0420414,30.9646204 26.1077517,30.9646204 L26.6487172,30.9646204 C26.7138207,30.9646204 26.7252414,30.9485677 26.7252414,30.8886301 L26.7252414,29.0770242 C26.7963586,29.0010339 26.9709241,28.8159067 27.1400828,28.8159067 C27.2661517,28.8159067 27.3642483,28.8758443 27.3969655,28.8758443 C27.4192,28.8758443 27.4353655,28.8437387 27.4407172,28.827686 L27.609931,28.3718534 Z M25.6616276,23.5447396 L25.6616276,21.358606 C25.7790897,21.2772464 25.9558069,21.1189103 26.2381241,21.1189103 C26.5506207,21.1189103 26.6152828,21.3414575 26.6152828,21.5929324 L26.6152828,23.5447396 C26.6152828,23.5907612 26.6390069,23.6143198 26.6853517,23.6143198 L26.9913931,23.6143198 C27.0387862,23.6143198 27.0625103,23.5907612 27.0625103,23.5447396 L27.0625103,21.6047117 C27.0625103,21.1831214 27.0150621,20.727234 26.3620966,20.727234 C26.0797241,20.727234 25.7618759,20.9498359 25.5851034,21.078258 C25.5086345,20.8449725 25.3437241,20.727234 24.9612138,20.727234 C24.7144276,20.727234 24.349131,20.9326874 24.1961379,21.0728888 C24.190731,21.0311406 24.126069,20.727234 24.0377379,20.727234 C24.0198069,20.727234 23.9967448,20.7454235 23.9849379,20.7507926 L23.7316966,20.890994 C23.7079724,20.9091835 23.7025655,20.9209081 23.7025655,20.9326874 C23.7025655,20.9616152 23.7489103,20.9968984 23.7784276,21.1306897 C23.8081655,21.2655219 23.8142345,21.4056685 23.8142345,21.5394597 L23.8142345,23.5447396 C23.8142345,23.5907612 23.8372966,23.6143198 23.8846897,23.6143198 L24.190731,23.6143198 C24.2377379,23.6143198 24.2611862,23.5907612 24.2611862,23.5447396 L24.2611862,21.3650161 C24.3609931,21.2826156 24.5672276,21.1189103 24.8318897,21.1189103 C25.1497931,21.1189103 25.2144552,21.3414575 25.2144552,21.5929324 L25.2144552,23.5447396 C25.2144552,23.5907612 25.2381241,23.6143198 25.285131,23.6143198 L25.5911724,23.6143198 C25.6379586,23.6143198 25.6616276,23.5907612 25.6616276,23.5447396 Z M25.1666207,29.8089314 C25.2704552,29.8089314 25.2926897,29.7768259 25.2926897,29.6740992 C25.2926897,29.0170866 25.1282207,28.1920406 24.1997793,28.1920406 C23.4676966,28.1920406 23.0032552,28.7891703 23.0032552,29.6516363 C23.0032552,30.6500302 23.5060414,31.0566088 24.2267034,31.0566088 C24.6584276,31.0566088 25.2047448,30.8779465 25.2047448,30.7367041 C25.2047448,30.7152822 25.1993379,30.6938602 25.1885793,30.6778075 L25.0521379,30.3514379 C25.0409379,30.3300708 25.0194207,30.3086488 24.992,30.3086488 C24.915531,30.3086488 24.6911448,30.4873659 24.2978207,30.4873659 C23.7844966,30.4873659 23.6972138,30.112838 23.6972138,29.8089314 L25.1666207,29.8089314 Z M24.1616552,28.7117035 C24.5383724,28.7117035 24.5549793,29.0876769 24.5549793,29.3049405 L23.6972138,29.3049405 C23.7133793,29.1566045 23.7353379,28.7117035 24.1616552,28.7117035 Z M22.8071172,21.1606037 C22.9191724,21.1606037 22.9719724,21.2130354 23.0011034,21.2130354 C23.0247724,21.2130354 23.0308414,21.1831214 23.0366345,21.171342 L23.1659586,20.8738455 C23.1717517,20.8567518 23.1836138,20.8385623 23.1836138,20.826783 C23.1836138,20.7743513 23.0308414,20.727234 22.8954483,20.727234 C22.5538759,20.727234 22.3420138,21.0546993 22.1896828,21.2184046 C22.1659586,21.0899825 22.0657103,20.727234 21.9601103,20.727234 C21.9483034,20.727234 21.9245793,20.7390133 21.9008552,20.7572028 L21.6832,20.890994 C21.6713379,20.8974042 21.6476138,20.9144979 21.6422621,20.9498359 C21.6422621,20.9669296 21.6594759,21.0140469 21.7069241,21.0953517 C21.7888,21.2419632 21.8071172,21.4345415 21.8071172,21.5394597 L21.8071172,23.5447396 C21.8071172,23.5907612 21.8304,23.6143198 21.877131,23.6143198 L22.1831724,23.6143198 C22.2306207,23.6143198 22.2542897,23.5907612 22.2542897,23.5447396 L22.2542897,21.6153953 C22.3954759,21.4645103 22.601269,21.1606037 22.8071172,21.1606037 Z M22.6799448,28.4424746 C22.6853517,28.4306952 22.7015172,28.3879062 22.7069241,28.3493357 C22.7069241,28.3065466 22.6685241,28.3011774 22.586869,28.2904938 L22.2155034,28.2412946 C22.1988966,28.2412946 22.1390345,28.2359254 22.1276138,28.2359254 C22.0840276,28.2359254 22.0678621,28.2851795 22.0513103,28.3440213 L21.6799448,29.5649623 C21.6142345,29.7768259 21.5269517,30.1567229 21.4939586,30.3514379 L21.4834207,30.3514379 C21.4504276,30.1513537 21.3685517,29.7821951 21.3081931,29.5649623 L20.9752276,28.3440213 C20.9584,28.2904938 20.9422345,28.2359254 20.8987034,28.2359254 C20.8875034,28.2359254 20.8275862,28.2412946 20.8107586,28.2412946 L20.3577379,28.2904938 C20.2758621,28.3011774 20.2377379,28.3065466 20.2377379,28.3493357 C20.242869,28.3879062 20.2590345,28.4306952 20.2646621,28.4424746 L21.1336276,30.9431985 C21.1552,31.0031361 21.1605517,31.0138197 21.2370759,31.0138197 L21.6853517,31.0138197 C21.7618759,31.0138197 21.7672276,31.0031361 21.7894621,30.9431985 L22.6799448,28.4424746 Z M19.8254345,29.8089314 C19.9295448,29.8089314 19.9515034,29.7768259 19.9515034,29.6740992 C19.9515034,29.0170866 19.7873103,28.1920406 18.8588138,28.1920406 C18.126731,28.1920406 17.6622897,28.7891703 17.6622897,29.6516363 C17.6622897,30.6500302 18.1648552,31.0566088 18.8857931,31.0566088 C19.3174621,31.0566088 19.8635586,30.8779465 19.8635586,30.7367041 C19.8635586,30.7152822 19.8584276,30.6938602 19.8473931,30.6778075 L19.7107862,30.3514379 C19.7000276,30.3300708 19.6784552,30.3086488 19.650869,30.3086488 C19.5743448,30.3086488 19.3502345,30.4873659 18.9569103,30.4873659 C18.4433103,30.4873659 18.3560276,30.112838 18.3560276,29.8089314 L19.8254345,29.8089314 Z M18.820469,28.7117035 C19.1971862,28.7117035 19.2140138,29.0876769 19.2140138,29.3049405 L18.3560276,29.3049405 C18.3721931,29.1566045 18.3943724,28.7117035 18.820469,28.7117035 Z M17.3667862,23.5447396 L17.3667862,21.171342 L18.1202759,21.171342 C18.1552,21.171342 18.1849379,21.1488791 18.1965793,21.1189103 L18.2730483,20.890994 C18.2730483,20.8738455 18.2791172,20.8620662 18.2791172,20.8502869 C18.2791172,20.8150037 18.2499862,20.8096345 18.2144552,20.8096345 L17.3667862,20.8096345 L17.3667862,20.3591711 C17.3667862,20.0210222 17.3905103,19.7748616 17.7198345,19.7748616 C17.9670069,19.7748616 18.1321379,19.8979693 18.231669,19.8979693 C18.2499862,19.8979693 18.2611862,19.8808208 18.2730483,19.8626313 L18.3555862,19.6699982 C18.3674483,19.6293458 18.3847172,19.605842 18.3847172,19.5886935 C18.3847172,19.5009238 18.0086069,19.3832401 17.7374897,19.3832401 C17.008,19.3832401 16.9198345,19.915063 16.9198345,20.3538019 L16.9198345,20.8096345 L16.507531,20.8096345 C16.4665931,20.8096345 16.4665931,20.8385623 16.4665931,20.8792147 L16.4665931,21.1017618 C16.4665931,21.1306897 16.4665931,21.171342 16.507531,21.171342 L16.9198345,21.171342 L16.9198345,23.5447396 C16.9198345,23.5907612 16.9428966,23.6143198 16.9902897,23.6143198 L17.296331,23.6143198 C17.3437241,23.6143198 17.3667862,23.5907612 17.3667862,23.5447396 Z M16.5086345,27.9320188 C16.7543172,27.9320188 16.956469,27.7308388 16.956469,27.4815554 C16.956469,27.2322171 16.7543172,27.0364063 16.5086345,27.0364063 C16.2568828,27.0364063 16.0549517,27.2322171 16.0549517,27.4815554 C16.0549517,27.7308388 16.2568828,27.9320188 16.5086345,27.9320188 Z M16.8584276,30.8886301 L16.8584276,28.361115 C16.8584276,28.3011774 16.8473931,28.2851795 16.7819034,28.2851795 L15.7435586,28.2851795 C15.6784552,28.2851795 15.6670345,28.3011774 15.6670345,28.361115 L15.6670345,28.71318 C15.6670345,28.7731176 15.6784552,28.7891703 15.7435586,28.7891703 L16.1644138,28.7891703 L16.1644138,30.8886301 C16.1644138,30.9485677 16.1752276,30.9646204 16.2407172,30.9646204 L16.7819034,30.9646204 C16.8473931,30.9646204 16.8584276,30.9485677 16.8584276,30.8886301 Z M15.6120828,23.6143198 C15.6588138,23.6143198 15.6825379,23.5907612 15.6825379,23.5447396 L15.6825379,21.6047117 C15.6825379,21.1831214 15.6357517,20.727234 14.9823448,20.727234 C14.5348966,20.727234 14.2288552,20.9733398 14.0351448,21.1253205 C14.0290759,21.078258 13.9584,20.727234 13.8523586,20.727234 C13.8351448,20.727234 13.8168276,20.7454235 13.8056276,20.7507926 L13.5409655,20.8974042 C13.5172414,20.9144979 13.5114483,20.9262772 13.5114483,20.9380566 C13.5114483,20.9669296 13.5581793,21.0086777 13.6056276,21.1831214 C13.6286897,21.2708363 13.6286897,21.3350473 13.6286897,21.5287214 L13.6286897,23.5447396 C13.6286897,23.5907612 13.6523586,23.6143198 13.6993655,23.6143198 L14.0054069,23.6143198 C14.0528,23.6143198 14.0765241,23.5907612 14.0765241,23.5447396 L14.0765241,21.4752487 C14.2230621,21.3468266 14.4702345,21.1189103 14.8530207,21.1189103 C15.1702621,21.1189103 15.2355862,21.3414575 15.2355862,21.5929324 L15.2355862,23.5447396 C15.2355862,23.5907612 15.2586483,23.6143198 15.3060414,23.6143198 L15.6120828,23.6143198 Z M15.1368276,30.8672081 C15.1644138,30.8565245 15.1857655,30.8404718 15.1857655,30.8180089 C15.1857655,30.709913 15.0879448,30.6392918 15.0879448,30.112838 L15.0879448,27.1508576 C15.0879448,27.0588692 15.0769655,27.0364063 15.0329931,27.0364063 C15.0219586,27.0364063 14.9730759,27.0535001 14.956469,27.0535001 L14.4978207,27.1455432 C14.4321103,27.1615959 14.3939862,27.1615959 14.3939862,27.2429007 L14.3939862,28.3547049 C14.3067034,28.295863 14.1804138,28.1920406 13.8857931,28.1920406 C13.208,28.1920406 12.8366345,28.7078108 12.8366345,29.732941 C12.8366345,30.5579871 13.1483034,31.0566088 13.7711448,31.0566088 C14.1644138,31.0566088 14.4047448,30.8126397 14.492469,30.7313349 C14.5193931,30.8672081 14.601269,31.0566088 14.650869,31.0566088 C14.6724414,31.0566088 14.7000276,31.040556 14.7213241,31.0352416 L15.1368276,30.8672081 Z M13.5305931,29.6409527 C13.5305931,29.0385086 13.6126897,28.7346019 14.0219586,28.7346019 C14.2517517,28.7346019 14.3448276,28.8159067 14.3939862,28.8437387 L14.3939862,30.3247016 C14.328,30.3953228 14.2355862,30.5141022 13.9896828,30.5141022 C13.6340414,30.5141022 13.5305931,30.2540804 13.5305931,29.6409527 Z M12.7277793,19.9214732 L12.7277793,19.6817776 C12.7277793,19.634715 12.704331,19.6111564 12.6573241,19.6111564 L11.1034483,19.6111564 C11.0564414,19.6111564 11.0333793,19.634715 11.0333793,19.6817776 L11.0333793,19.9214732 C11.0333793,19.9685905 11.0564414,19.9910534 11.1034483,19.9910534 L11.6390069,19.9910534 L11.6390069,23.2344228 L11.1034483,23.2344228 C11.0564414,23.2344228 11.0333793,23.2579815 11.0333793,23.305044 L11.0333793,23.5447396 C11.0333793,23.5907612 11.0564414,23.6143198 11.1034483,23.6143198 L12.6573241,23.6143198 C12.704331,23.6143198 12.7277793,23.5907612 12.7277793,23.5447396 L12.7277793,23.305044 C12.7277793,23.2579815 12.704331,23.2344228 12.6573241,23.2344228 L12.1217655,23.2344228 L12.1217655,19.9910534 L12.6573241,19.9910534 C12.704331,19.9910534 12.7277793,19.9685905 12.7277793,19.9214732 Z M12.1202759,30.9046828 C12.1584,30.8939992 12.1804138,30.8725773 12.1804138,30.845841 C12.1804138,30.7206514 12.0765241,30.7644814 12.0765241,29.9994278 L12.0765241,28.3065466 C12.0765241,28.2145035 12.0657103,28.1920406 12.0381241,28.1920406 C12.0161655,28.1920406 11.9618759,28.2091891 11.9457103,28.2091891 L11.4864,28.3011774 C11.4209103,28.3172302 11.3825655,28.3225994 11.3825655,28.3985897 L11.3825655,30.3193324 C11.3114483,30.3685864 11.1314759,30.4873659 10.9019586,30.4873659 C10.6228414,30.4873659 10.5959172,30.2380276 10.5959172,30.0315333 L10.5959172,28.3065466 C10.5959172,28.2145035 10.5851034,28.1920406 10.5517241,28.1920406 C10.5355586,28.1920406 10.481269,28.2091891 10.4644414,28.2091891 L10.0054069,28.3011774 C9.94008276,28.3172302 9.90195862,28.3225994 9.90195862,28.3985897 L9.90195862,30.264764 C9.90195862,30.9218313 10.3114483,31.0566088 10.6120828,31.0566088 C11.0441931,31.0566088 11.3006345,30.8672081 11.4482759,30.7367041 C11.5081931,30.9538821 11.5517241,31.0566088 11.6228414,31.0566088 C11.6448552,31.0566088 11.672,31.0512944 11.7047172,31.040556 L12.1202759,30.9046828 Z M8.61743448,31.0566088 C8.98924138,31.0566088 9.38791724,30.9538821 9.38791724,30.8511554 C9.38791724,30.8351026 9.38256552,30.8351026 9.37715862,30.8073253 L9.26725517,30.3621763 C9.26184828,30.3407543 9.24568276,30.3300708 9.22416552,30.3300708 C9.14764138,30.3300708 9.01075862,30.4327975 8.792,30.4327975 C8.60667586,30.4327975 8.60667586,30.2755023 8.60667586,30.1021545 L8.60667586,28.7891703 L9.14764138,28.7891703 C9.21268966,28.7891703 9.22951724,28.7838011 9.24568276,28.7078108 L9.3168,28.3879062 C9.3222069,28.3664842 9.3222069,28.3547049 9.3222069,28.3440213 C9.3222069,28.2851795 9.27867586,28.2851795 9.22951724,28.2851795 L8.60667586,28.2851795 L8.60667586,27.5253854 C8.60667586,27.4601334 8.60126897,27.4323013 8.55172414,27.4323013 C8.5193931,27.4323013 8.49743448,27.4387115 8.4806069,27.4387115 L8,27.5029225 C7.92347586,27.5147018 7.91271724,27.5307546 7.91271724,27.6013758 L7.91271724,28.2851795 L7.5248,28.2851795 C7.45903448,28.2851795 7.44827586,28.3011774 7.44827586,28.361115 L7.44827586,28.71318 C7.44827586,28.7731176 7.45903448,28.7891703 7.5248,28.7891703 L7.91271724,28.7891703 L7.91271724,30.0101114 C7.91271724,30.508733 7.91271724,31.0566088 8.61743448,31.0566088 Z M5.89009655,31.0566088 C6.57864828,31.0566088 7.07045517,30.6018719 7.07045517,29.9127538 C7.07045517,29.4996555 6.87933793,29.2128974 6.60022069,29.006403 C6.11961379,28.6532424 5.48060138,28.5773068 5.48060138,28.1653042 C5.48060138,27.8400304 5.74245517,27.7415772 5.9942069,27.7415772 C6.38731034,27.7415772 6.72628966,27.9812728 6.75928276,27.9812728 C6.78124138,27.9812728 6.80281379,27.9587551 6.81897931,27.9267044 L6.99933793,27.5682293 C7.02157241,27.5253854 7.02692414,27.5029225 7.02692414,27.4868698 C7.02692414,27.3948814 6.49136552,27.1562268 5.97197241,27.1562268 C5.33836138,27.1562268 4.77047172,27.4815554 4.77047172,28.2626618 C4.77047172,28.71318 4.95581793,28.9304127 5.24568828,29.1037606 C5.80281379,29.4397727 6.35988966,29.488972 6.35988966,29.9715957 C6.35988966,30.3086488 6.17456552,30.4713131 5.86852414,30.4713131 C5.39870897,30.4713131 4.99460966,30.2326585 4.96120828,30.2326585 C4.93965793,30.2326585 4.9122869,30.2540804 4.90150621,30.2861859 L4.77586207,30.644661 C4.7650869,30.6778075 4.74849103,30.7152822 4.74849103,30.7313349 C4.74849103,30.8180089 5.33297655,31.0566088 5.89009655,31.0566088 Z M13.9385931,13.6038088 C13.9213241,13.6091231 13.873931,13.6144923 13.873931,13.6498303 C13.873931,13.6680198 13.8797241,13.6968928 13.8857931,13.7204515 L14.6094897,17.5298861 C14.6094897,17.5651693 14.6152828,17.6005073 14.6680828,17.6005073 L15.0922483,17.6005073 C15.1271724,17.6005073 15.1390345,17.5598549 15.1450483,17.5298861 L15.757131,14.298296 L15.7689931,14.298296 L16.2629517,17.5298861 C16.2687448,17.5769486 16.2808276,17.6005073 16.3222069,17.6005073 L16.7629241,17.6005073 C16.8103724,17.6005073 16.8163862,17.5598549 16.8221793,17.5298861 L17.6282483,13.7204515 C17.6340414,13.6968928 17.6401103,13.6680198 17.6401103,13.6498303 C17.6401103,13.6209025 17.6163862,13.6144923 17.5754483,13.6038088 L17.293131,13.5331876 C17.2633379,13.5278184 17.228469,13.5160391 17.2101517,13.5160391 C17.1810207,13.5160391 17.1752276,13.5684708 17.1638069,13.6209025 L16.6282483,16.5079883 C16.598731,16.6652834 16.598731,16.8931997 16.586869,17.0857781 L16.5750069,17.0857781 C16.5750069,16.8814204 16.5398621,16.6599143 16.5161379,16.5133027 L16.0280276,13.6262717 C16.0215724,13.5920294 16.0097103,13.5566914 15.9687724,13.5566914 L15.598069,13.5566914 C15.557131,13.5566914 15.5506207,13.5920294 15.545269,13.6262717 L14.9805793,16.431998 C14.9390345,16.6481349 14.9273931,16.8578618 14.9094621,17.0857781 L14.8976552,17.0857781 C14.8857931,16.9284829 14.8685241,16.5721446 14.850869,16.4662402 L14.3502345,13.6209025 C14.3448276,13.5684708 14.3329655,13.5160391 14.3038897,13.5160391 C14.2855724,13.5160391 14.2504276,13.5278184 14.2273655,13.5331876 L13.9385931,13.6038088 Z M18.1181241,14.8247498 L18.1181241,15.0462559 C18.1181241,15.0933185 18.1415724,15.1168771 18.1885793,15.1168771 L18.6476138,15.1168771 L18.6476138,17.4892337 C18.6476138,17.5362963 18.6713379,17.5598549 18.7183448,17.5598549 L19.0241655,17.5598549 C19.0711172,17.5598549 19.0948414,17.5362963 19.0948414,17.4892337 L19.0948414,14.8418435 C19.0948414,14.7894118 19.0829793,14.7541286 19.0183172,14.7541286 L18.1885793,14.7541286 C18.1415724,14.7541286 18.1181241,14.7776873 18.1181241,14.8247498 Z M18.8416,13.3694275 C18.6418207,13.3694275 18.4827586,13.5278184 18.4827586,13.7257659 C18.4827586,13.9248091 18.6418207,14.0821042 18.8416,14.0821042 C19.0420414,14.0821042 19.2011034,13.918399 19.2011034,13.7257659 C19.2011034,13.5331876 19.0420414,13.3694275 18.8416,13.3694275 Z M20.8584276,22.1943356 C20.8584276,21.3703853 20.5172414,20.727234 19.7107862,20.727234 C18.8577655,20.727234 18.5161379,21.4174478 18.5161379,22.2232086 C18.5161379,23.0589382 18.8577655,23.6967204 19.6519172,23.6967204 C20.5107862,23.6967204 20.8584276,23.0129167 20.8584276,22.1943356 Z M19.6929103,23.3339171 C19.1519448,23.3339171 18.9988966,22.8374321 18.9988966,22.1707769 C18.9988966,21.5929324 19.1573517,21.0899825 19.6875034,21.0899825 C20.2166069,21.0899825 20.3760552,21.6153953 20.3760552,22.1889664 C20.3760552,22.8609907 20.2166069,23.3339171 19.6929103,23.3339171 Z M19.9902897,17.2901905 C19.9784276,17.3137491 19.9666207,17.3319386 19.9666207,17.3608117 C19.9666207,17.4774544 20.5786483,17.6411597 20.8609655,17.6411597 C21.3674483,17.6411597 21.8028138,17.3608117 21.8028138,16.8118402 C21.8028138,15.900175 20.4961103,16.0810288 20.4961103,15.4378775 C20.4961103,15.1693088 20.6961103,15.0526661 20.9321379,15.0526661 C21.2381241,15.0526661 21.4849103,15.2099612 21.5258483,15.2099612 C21.5614345,15.2099612 21.5732966,15.1864025 21.5969655,15.1404358 L21.6734897,14.9820449 C21.6788966,14.959582 21.6972138,14.9413925 21.6972138,14.924244 C21.6972138,14.8942752 21.6788966,14.8718123 21.6318897,14.8483084 C21.4791172,14.7659079 21.137931,14.6727691 20.9374897,14.6727691 C20.4195862,14.6727691 20.0491586,15.0120137 20.0491586,15.4849948 C20.0491586,16.3677869 21.3555862,16.2329547 21.3555862,16.840768 C21.3555862,17.121116 21.137931,17.2613174 20.8846897,17.2613174 C20.4849103,17.2613174 20.178869,17.056905 20.1254069,17.056905 C20.1077517,17.056905 20.0905379,17.0686843 20.0726069,17.1093367 L19.9902897,17.2901905 Z M22.662731,13.4807559 L22.662731,17.4892337 C22.662731,17.5362963 22.6864,17.5598549 22.7334069,17.5598549 L23.0394483,17.5598549 C23.0862345,17.5598549 23.1099034,17.5362963 23.1099034,17.4892337 L23.1099034,16.1216812 L23.1217655,16.1216812 L24.3222069,17.5940971 C24.334069,17.6122866 24.3577379,17.6411597 24.386869,17.6411597 C24.4105379,17.6411597 24.4342621,17.617601 24.4575448,17.6058765 L24.6637793,17.4656751 C24.6749793,17.4538958 24.6989241,17.4485814 24.6989241,17.4250227 C24.6989241,17.3961497 24.6691862,17.372591 24.6573241,17.3544015 L23.6217931,16.052101 L24.6163862,14.959582 C24.6336,14.9413925 24.6573241,14.9178339 24.6573241,14.8889608 C24.6573241,14.8654022 24.6336,14.860033 24.6221793,14.8483084 L24.4159448,14.708107 C24.3926621,14.6963277 24.3689931,14.6727691 24.345931,14.6727691 C24.3161379,14.6727691 24.2984828,14.7016969 24.281269,14.7198864 L23.1099034,16.0403216 L23.1099034,13.4047655 C23.1099034,13.3758925 23.1099034,13.3287751 23.0689655,13.3287751 C23.0273655,13.3341443 23.0452414,13.3287751 22.9978483,13.3405545 L22.703669,13.4101347 C22.6799448,13.4165448 22.662731,13.4400487 22.662731,13.4807559 Z M25.3879172,14.8247498 L25.3879172,16.7647777 C25.3879172,17.1853271 25.4525793,17.6411597 26.2471724,17.6411597 C26.5829517,17.6411597 26.9001931,17.4303919 27.0653241,17.2966006 C27.129931,17.4303919 27.1950345,17.6411597 27.2829793,17.6411597 C27.2948414,17.6411597 27.3067034,17.6358453 27.3297655,17.6240659 L27.5592828,17.4838646 C27.5829517,17.4720852 27.6126897,17.4603059 27.6126897,17.436802 C27.6126897,17.401464 27.5362207,17.2848213 27.5004138,17.2142001 C27.4418207,17.092243 27.4357517,16.9638209 27.4357517,16.8289887 L27.4357517,14.7487594 C27.4357517,14.7198864 27.4357517,14.6727691 27.3943724,14.6727691 C27.3534345,14.6781382 27.3713103,14.6727691 27.3243586,14.6845484 L27.0301793,14.7541286 C27.0064552,14.7605387 26.9888,14.7840974 26.9888,14.8247498 L26.9888,16.9520416 C26.877131,17.056905 26.5000276,17.2495381 26.3179034,17.2495381 C25.9353379,17.2495381 25.8351448,17.028032 25.8351448,16.776557 L25.8351448,14.7487594 C25.8351448,14.7198864 25.8351448,14.6727691 25.7942069,14.6727691 C25.7532138,14.6781382 25.7704828,14.6727691 25.7234759,14.6845484 L25.4292966,14.7541286 C25.4057931,14.7605387 25.3879172,14.7840974 25.3879172,14.8247498 Z M28.8889931,21.1189103 C29.3070897,21.1189103 29.4126897,21.3061743 29.4126897,21.6453641 L29.4126897,21.8550909 C29.0478345,21.8668703 27.8706759,21.8850597 27.8706759,22.8727153 C27.8706759,23.3928137 28.1713103,23.6967204 28.6357517,23.6967204 C29.1245793,23.6967204 29.4126897,23.369255 29.4834207,23.305044 C29.5129379,23.3863488 29.6185379,23.6967204 29.7069241,23.6967204 C29.718731,23.6967204 29.7305931,23.6902554 29.7543172,23.6784761 L29.9838345,23.5383295 C30.0071172,23.5265502 30.0366345,23.5147708 30.0366345,23.491267 C30.0366345,23.4570247 29.9543172,23.3456964 29.9303724,23.2750752 C29.8775724,23.1113699 29.8599172,23.0589382 29.8599172,22.6908205 L29.8599172,21.5458699 C29.8599172,21.0546993 29.6304,20.727234 28.9536552,20.727234 C28.5771586,20.727234 28.0355862,20.8974042 28.0355862,20.9968984 C28.0355862,21.0258263 28.0416,21.04292 28.0534621,21.0728888 L28.129931,21.2772464 C28.1357793,21.2943949 28.1529931,21.3061743 28.1713103,21.3061743 C28.2241655,21.3061743 28.4946207,21.1189103 28.8889931,21.1189103 Z M28.3124966,22.8374321 C28.3124966,22.2232086 29.1540966,22.2232086 29.4126897,22.2178394 L29.4126897,22.9711685 C29.3183448,23.0535691 29.0478345,23.3339171 28.7417931,23.3339171 C28.4418207,23.3339171 28.3124966,23.0707176 28.3124966,22.8374321 Z M32.4299586,14.6727691 C31.7467586,14.6727691 31.4471724,15.3736665 31.4471724,16.215861 C31.4471724,16.9402623 31.7348966,17.6411597 32.3652966,17.6411597 C32.8006621,17.6411597 33.0883862,17.3961497 33.2301793,17.2966006 C33.2532414,17.3896847 33.3595034,17.6411597 33.4418207,17.6411597 C33.4536828,17.6411597 33.4655448,17.6358453 33.4892138,17.6240659 L33.718731,17.4838646 C33.7417931,17.4720852 33.771531,17.4603059 33.771531,17.436802 C33.771531,17.401464 33.6950621,17.2901905 33.6655448,17.2206103 C33.6008828,17.0740535 33.6008828,16.8996099 33.6008828,16.6363556 L33.6008828,13.4047655 C33.6008828,13.3758925 33.6008828,13.3287751 33.5538759,13.3287751 C33.5122759,13.3341443 33.5301517,13.3287751 33.4827586,13.3405545 L33.1950345,13.4101347 C33.1713103,13.4165448 33.1534345,13.4400487 33.1534345,13.4807559 L33.1534345,14.8718123 C32.9945931,14.7723181 32.7942069,14.6727691 32.4299586,14.6727691 Z M32.4471724,17.2495381 C31.9709241,17.2495381 31.9295448,16.6941565 31.9295448,16.2040817 C31.9295448,15.6369207 31.9762759,15.0644454 32.4827586,15.0644454 C32.7769379,15.0644454 32.9655172,15.1575295 33.1534345,15.2570785 L33.1534345,16.9049791 C33.0118621,16.992694 32.7532138,17.2495381 32.4471724,17.2495381 Z M33.9159724,19.7813266 C33.9159724,19.5886935 33.7575172,19.4249882 33.557131,19.4249882 C33.3566897,19.4249882 33.1982897,19.5822833 33.1982897,19.7813266 C33.1982897,19.9792741 33.3566897,20.1376649 33.557131,20.1376649 C33.7575172,20.1376649 33.9159724,19.9739049 33.9159724,19.7813266 Z M35.5446069,14.6727691 C34.8146759,14.6727691 34.3793103,15.2977309 34.3793103,16.1569644 C34.3793103,17.0451257 34.8383448,17.6358453 35.6206897,17.6411597 C36.0564414,17.6411597 36.5506207,17.401464 36.5506207,17.337253 C36.5506207,17.3201593 36.5388138,17.30838 36.5334069,17.2901905 L36.4332138,17.0451257 C36.4213517,17.028032 36.4152828,17.0098425 36.3976276,17.0098425 C36.3624828,17.0098425 36.0564414,17.2495381 35.6741517,17.2495381 C35.0032552,17.2495381 34.862069,16.6063868 34.862069,16.2501032 L36.5506207,16.2501032 C36.6152828,16.2501032 36.6152828,16.2040817 36.6152828,16.1216812 C36.6152828,15.619827 36.5269517,14.6727691 35.5446069,14.6727691 Z M35.5208828,15.0355724 C36.0333793,15.0355724 36.1329655,15.584489 36.1329655,15.8883957 L34.862069,15.8883957 C34.862069,15.5962684 34.979531,15.0355724 35.5208828,15.0355724 Z" />
</svg>
