<svg xmlns="http://www.w3.org/2000/svg" viewBox="0 0 282.82 282.32"><defs><style>.cls-1{fill:#05577a;}.cls-1,.cls-2,.cls-3{stroke:#05577a;stroke-miterlimit:10;}.cls-2,.cls-3{fill:none;}.cls-2{stroke-width:4.42px;}.cls-3{stroke-width:4.3px;}</style></defs><title>Vergrootglas_blauw</title><g id="Laag_2" data-name="Laag 2"><g id="Tekst"><path class="cls-1" d="M143.21,178.35H81.62V166.48h24.82v-91L83,87.21V73.6l25.32-13h11.7V166.48h23.16Z"/><path class="cls-2" d="M105.14,2.21h20.64c3,.47,6.07.92,9.1,1.41,50.58,8.15,90.71,52.67,93.67,104.05,1.51,26.09-5.05,50-19.9,71.57-1.39,2-1.12,3.1.52,4.74q35.78,35.63,71.44,71.39v1.08l-21.8,21.6c-2.75,2.73-2.76,2.74-5.46,0q-34.29-34.27-68.57-68.56c-2.75-2.75-2.71-2.69-5.93-.62-36.44,23.46-74.65,26.58-113.56,7.66C19.52,194.31-5,145.94,4.09,95.68,11.81,53,37.24,24.07,77.69,8.44,86.52,5,95.81,3.47,105.14,2.21Z"/><circle class="cls-3" cx="116.49" cy="115.05" r="96.28"/></g></g></svg>