<?xml version="1.0" encoding="UTF-8" standalone="no"?>
<!-- Created with Inkscape (http://www.inkscape.org/) -->

<svg
   xmlns:dc="http://purl.org/dc/elements/1.1/"
   xmlns:cc="http://creativecommons.org/ns#"
   xmlns:rdf="http://www.w3.org/1999/02/22-rdf-syntax-ns#"
   xmlns:svg="http://www.w3.org/2000/svg"
   xmlns="http://www.w3.org/2000/svg"
   xmlns:sodipodi="http://sodipodi.sourceforge.net/DTD/sodipodi-0.dtd"
   xmlns:inkscape="http://www.inkscape.org/namespaces/inkscape"
   id="svg4141"
   version="1.1"
   inkscape:version="0.91+devel+osxmenu r12911"
   xml:space="preserve"
   width="48"
   height="48"
   viewBox="0 0 48.000001 48"
   sodipodi:docname="linkedin.svg"><metadata
     id="metadata4147"><rdf:RDF><cc:Work
         rdf:about=""><dc:format>image/svg+xml</dc:format><dc:type
           rdf:resource="http://purl.org/dc/dcmitype/StillImage" /><dc:title></dc:title></cc:Work></rdf:RDF></metadata><defs
     id="defs4145" /><sodipodi:namedview
     pagecolor="#ffffff"
     bordercolor="#666666"
     borderopacity="1"
     objecttolerance="10"
     gridtolerance="10"
     guidetolerance="10"
     inkscape:pageopacity="0"
     inkscape:pageshadow="2"
     inkscape:window-width="640"
     inkscape:window-height="480"
     id="namedview4143"
     inkscape:document-units="px"
     showgrid="false"
     inkscape:zoom="2.9476203"
     inkscape:cx="-14.217278"
     inkscape:cy="10.429731"
     inkscape:current-layer="g4151" /><g
     id="g4149"
     inkscape:groupmode="layer"
     inkscape:label="ink_ext_XXXXXX"
     transform="matrix(1.3333333,0,0,-1.3333333,0,48)"><g
       id="g4151"
       transform="scale(0.1)"><path
         d="m 333.365,360 -306.799996,0 c -14.65,0 -26.5599995,-11.621 -26.5599995,-25.957 l 0,-308.066395 C 0.0050045,11.640605 11.915004,4.5000001e-6 26.565004,4.5000001e-6 l 306.799996,0 c 14.69,0 26.63,11.6406004999999 26.63,25.9766004999999 l 0,308.066395 c 0,14.336 -11.94,25.957 -26.63,25.957"
         style="fill:#0977b6;fill-opacity:1;fill-rule:nonzero;stroke:none"
         id="path4169"
         inkscape:connector-curvature="0" /><path
         d="m 80.085004,310.441 c 17.08,0 30.949996,-13.875 30.949996,-30.964 0,-17.094 -13.869995,-30.965 -30.949996,-30.965 -17.15,0 -30.97,13.871 -30.97,30.965 0,17.089 13.82,30.964 30.97,30.964 m -26.73,-85.402 53.439996,0 0,-171.796795 -53.439996,0 0,171.796795"
         style="fill:#ffffff;fill-opacity:1;fill-rule:nonzero;stroke:none"
         id="path4171"
         inkscape:connector-curvature="0" /><path
         d="m 140.295,225.039 51.18,0 0,-23.484 0.73,0 c 7.12,13.504 24.55,27.746 50.53,27.746 54.05,0 64.04,-35.571 64.04,-81.84 l 0,-94.218795 -53.38,0 0,83.542795 c 0,19.926 -0.35,45.555 -27.75,45.555 -27.78,0 -32.02,-21.715 -32.02,-44.125 l 0,-84.972795 -53.33,0 0,171.796795"
         style="fill:#ffffff;fill-opacity:1;fill-rule:nonzero;stroke:none"
         id="path4173"
         inkscape:connector-curvature="0" /></g></g></svg>