<svg xmlns="http://www.w3.org/2000/svg" width="128" height="128">
  <g stroke-width="2">
    <path d="M52.588 116.7c-5.887-.199-11.774.667-17.658.413-2.943-.127-5.89-.538-8.68-1.48-2.79-.943-5.425-2.433-7.49-4.533-1.887-1.92-3.26-4.306-4.19-6.831-.93-2.526-1.43-5.193-1.715-7.869-.57-5.353-.288-10.78-1.053-16.108-.658-4.58-2.079-9.02-2.845-13.584s-.832-9.428 1.114-13.627c1.838-3.967 5.37-7.007 9.375-8.758 4.006-1.75 8.462-2.287 12.83-2.116 8.738.342 17.14 3.407 25.822 4.452 7.94.956 16.003.209 23.963.994 3.98.393 7.949 1.177 11.645 2.705 3.696 1.528 7.12 3.827 9.642 6.93 3.674 4.524 5.219 10.495 5.277 16.322.059 5.827-1.26 11.577-2.781 17.202-1.34 4.954-2.861 9.905-5.32 14.41-2.46 4.505-5.934 8.577-10.445 11.023-5.585 3.028-12.253 3.332-18.577 2.724-6.324-.609-12.565-2.055-18.914-2.27z" fill="#f44336" fill-opacity=".063"/>
    <path d="M36.765 28.384c-17.838.014-27.732 18.69-18.824 34.151 9.09 15.777 19.031 20.75 38.909 33.967 19.884-13.217 29.825-18.19 38.918-33.967 13.353-23.17-14.207-47.058-33.094-28.129l-5.815 5.828-5.824-5.828c-3.8-3.802-8.896-6.026-14.27-6.022z" fill="#fddad7" stroke="#f44336" stroke-linecap="round" stroke-linejoin="round"/>
    <g stroke="#f44336" stroke-linecap="round" stroke-linejoin="round">
      <path d="M-38.303 952.125v9.065c0 18.856 64 18.856 64 0v-9.065M38.853 948.52l5.728 15.997c1.348 3.764 3.3 6.248 6.53 9.333l-7.528 2.717c.534-4.443.464-7.606-.884-11.37l-5.391-15.057" fill="#fbaca5" transform="matrix(.85083 .31101 -.3096 .84787 380.281 -774.615)"/>
      <path d="M-6.303 932.125l-52 16 52 16 52-16z" fill="#fddad7" transform="matrix(.85083 .31101 -.3096 .84787 380.281 -774.615)"/>
    </g>
  </g>
</svg>
