<svg xmlns="http://www.w3.org/2000/svg" width="128" height="128">
  <path d="M82.75 35.044c-6.129-2.16-11.82-5.411-17.91-7.674-3.046-1.131-6.2-2.015-9.43-2.355-3.231-.341-6.547-.127-9.632.89-5.882 1.938-10.47 6.604-14.09 11.63-3.618 5.026-6.517 10.563-10.42 15.372-3.323 4.095-7.324 7.596-10.71 11.64-3.386 4.044-6.213 8.85-6.529 14.115-.32 5.33 2.042 10.614 5.714 14.492 3.672 3.878 8.554 6.45 13.642 8.074 10.176 3.247 21.168 2.888 31.532 5.474 7.495 1.87 14.527 5.247 21.915 7.505 3.694 1.129 7.493 1.979 11.35 2.193 3.857.214 7.782-.223 11.391-1.597 6.196-2.36 11.117-7.36 14.498-13.063 3.38-5.702 5.37-12.11 7.104-18.51 1.423-5.25 2.703-10.593 2.817-16.031.115-5.44-1.014-11.035-4.064-15.54-1.945-2.873-4.612-5.216-7.568-7.036-2.955-1.82-6.199-3.131-9.51-4.172-6.622-2.08-13.554-3.1-20.1-5.407z" fill="#f44336" fill-opacity=".063"/>
  <g fill="#fcdbd8" stroke="#f44336" stroke-width="2" stroke-linecap="round" stroke-linejoin="round">
    <path d="M109.583 12.05c-.39.01-.776.066-1.151.175-19.687 5.998-39.89 15.071-54.993 30.06-2.424 2.39-1.385 6.507 1.883 7.462 4.058 1.198 8.02 1.459 11.334 2.057 3.314.598 5.758 1.438 7.392 2.964 1.636 1.526 2.66 3.914 3.488 7.184.826 3.27 1.382 7.226 2.86 11.194 1.163 3.116 5.206 3.91 7.462 1.464 14.543-15.736 22.085-36.989 26.223-57.224.56-2.81-1.633-5.413-4.498-5.336zM87.369 32.973h.036c.152-.01.302-.01.453 0a6.695 6.695 0 1 1-6.695 6.696 6.695 6.695 0 0 1 6.207-6.696z"/>
    <path d="M67.22 56.688a3.5 3.5 0 0 0-3.5 3.5 3.5 3.5 0 0 0 1.088 2.529c-.38.045-.749.152-1.094.316a5.5 5.5 0 0 0-5.494-5.345 5.499 5.499 0 0 0-5.463 4.888 7.5 7.5 0 1 0-3.537 14.111 7.49 7.49 0 0 0 5.1-2.007 5.5 5.5 0 0 0 10.4-2.494 5.5 5.5 0 0 0-.73-2.729c.393.15.81.227 1.23.229a3.5 3.5 0 0 0 2.416-6.03 3.5 3.5 0 0 0 3.084-3.47 3.5 3.5 0 0 0-3.5-3.5zM61.898 67.27c.015.049.03.098.047.146a6.14 6.14 0 0 0-.129-.074l.082-.072zM38.22 68.688a2.5 2.5 0 1 0 0 5 2.5 2.5 0 0 0 0-5zm2 6a4.5 4.5 0 1 0 0 9 4.5 4.5 0 0 0 0-9zm12 2a4.5 4.5 0 1 0 0 9 4.5 4.5 0 0 0 0-9z"/>
  </g>
</svg>
