<svg xmlns="http://www.w3.org/2000/svg" width="128" height="128">
  <path d="M38.812 96.211c5.315 3.737 9.914 8.408 15.165 12.234 2.625 1.913 5.423 3.618 8.44 4.82 3.019 1.202 6.269 1.893 9.514 1.75 6.187-.274 11.867-3.525 16.71-7.384 4.844-3.859 9.133-8.405 14.192-11.978 4.308-3.043 9.107-5.33 13.46-8.307 4.355-2.977 8.377-6.839 10.106-11.821 1.751-5.046.907-10.771-1.579-15.498-2.485-4.727-6.488-8.525-10.947-11.465-8.918-5.88-19.597-8.508-28.874-13.803-6.71-3.829-12.566-8.983-19.067-13.156-3.25-2.086-6.678-3.933-10.332-5.182-3.655-1.25-7.552-1.892-11.4-1.546-6.602.595-12.692 4.078-17.49 8.652-4.799 4.575-8.447 10.206-11.849 15.896-2.79 4.67-5.469 9.467-7.05 14.672C6.227 59.3 5.8 64.992 7.516 70.153c1.096 3.294 3.029 6.271 5.382 8.822 2.352 2.552 5.12 4.693 8.026 6.59 5.812 3.796 12.21 6.654 17.887 10.646z" fill="#f44336" fill-opacity=".063"/>
  <path d="M20.48 4.84C7.208 4.85-.155 18.734 6.474 30.23c6.764 11.728 14.16 15.426 28.952 25.251 14.796-9.825 22.193-13.523 28.959-25.252C74.322 13.003 53.814-4.756 39.76 9.317l-4.327 4.332L31.1 9.317c-2.828-2.827-6.62-4.48-10.619-4.477z" fill="#fddad7" stroke="#f44336" stroke-width="2" stroke-linecap="round" stroke-linejoin="round"/>
  <g fill="#fddad7" stroke="#f44336" stroke-width="2.5" stroke-linecap="round" stroke-linejoin="round">
    <path transform="matrix(.73113 0 0 .73116 29.165 119.67)" d="M78.676-40.182a6 6 0 0 0-5.348 2.973 56.01 56.01 0 0 0-6.7 41.088 6 6 0 1 0 11.714-2.61 43.994 43.994 0 0 1 5.263-32.283 6 6 0 0 0-4.93-9.168zM89.2-29.078a6 6 0 0 0-5.422 3.81A40.002 40.002 0 0 0 81.393-3.37a6 6 0 1 0 11.826-2.035 27.994 27.994 0 0 1 1.672-15.326 6 6 0 0 0-5.69-8.346zm13.672 12.369a6 6 0 0 0-6 6 6 6 0 0 0 6 6 6 6 0 0 0 6-6 6 6 0 0 0-6-6z"/>
    <path transform="matrix(.73113 0 0 .73116 29.165 119.67)" d="M64.758-67.648A6 6 0 0 0 62.93-55.9a43.996 43.996 0 0 1 25.326 20.7 6 6 0 0 0 10.404.315 6 6 0 0 0 .1-6.119 56.004 56.004 0 0 0-32.233-26.344 6 6 0 0 0-1.77-.3zm-1.686 16.314a6 6 0 0 0-1.799 11.656 27.986 27.986 0 0 1 12.436 9.11 6 6 0 0 0 10.072-.754 6 6 0 0 0-.588-6.6 40.003 40.003 0 0 0-17.77-13.016 6 6 0 0 0-2.35-.396zM60.754-34.66a6 6 0 0 0-4.912 2.994 6 6 0 0 0 2.195 8.195 6 6 0 0 0 8.197-2.195 6 6 0 0 0-2.197-8.197 6 6 0 0 0-3.283-.797z"/>
    <path transform="matrix(.73113 0 0 .73116 29.165 119.67)" d="M97.254-61.838a6 6 0 0 0-2.858.8A6 6 0 0 0 92.2-52.84a6 6 0 0 0 8.197 2.195 6 6 0 0 0 2.196-8.195 6 6 0 0 0-5.338-2.998zm13.254 10.262a6 6 0 0 0-3.692 1.445 27.998 27.998 0 0 1-14.109 6.217 6 6 0 0 0-4.383 9.098 6 6 0 0 0 6.01 2.79 40.002 40.002 0 0 0 20.156-8.88 6 6 0 0 0-3.982-10.67zm13.826 9.285a6 6 0 0 0-4.197 1.639A43.988 43.988 0 0 1 89.549-29.07a6 6 0 0 0-5.477 8.855 6 6 0 0 0 5.25 3.143 56.007 56.007 0 0 0 38.932-14.742 6 6 0 0 0-3.92-10.477z"/>
    <path transform="matrix(.73113 0 0 .73116 29.165 119.67)" d="M96.504-44.707c-1.242.35-2.51.617-3.797.793a6 6 0 0 0-4.957 7.848c.169.289.344.573.506.867a6 6 0 0 0 10.404.314 6 6 0 0 0 .1-6.119 55.945 55.945 0 0 0-2.256-3.703zM78.676-40.182a6 6 0 0 0-5.348 2.973 55.943 55.943 0 0 0-2.103 3.854 28.011 28.011 0 0 1 2.484 2.787 6 6 0 0 0 10.023-.674 6 6 0 0 0 .079-.143 6 6 0 0 0 .193-.406 6 6 0 0 0 .055-.125 6 6 0 0 0 .156-.43 6 6 0 0 0 .043-.134 6 6 0 0 0 .125-.502 6 6 0 0 0 .006-.028 6 6 0 0 0 .002-.017 6 6 0 0 0 .084-.56 6 6 0 0 0 .002-.017 6 6 0 0 0 0-.01 6 6 0 0 0 .027-.587 6 6 0 0 0-.031-.584 6 6 0 0 0 0-.016 6 6 0 0 0-.002-.012 6 6 0 0 0-.088-.564 6 6 0 0 0-.002-.018 6 6 0 0 0-.002-.01 6 6 0 0 0-.358-1.132 6 6 0 0 0-.578-1.049 6 6 0 0 0-.25-.336c-.09-.116-.19-.223-.28-.338a6 6 0 0 0-4.237-1.922zM89.549-29.07a6 6 0 0 0-.565.01 6 6 0 0 0-.09.005 6 6 0 0 0-.48.057 6 6 0 0 0-.15.027 6 6 0 0 0-.412.09 6 6 0 0 0-.213.063 6 6 0 0 0-.323.103 6 6 0 0 0-.295.117 6 6 0 0 0-.234.104 6 6 0 0 0-.369.193 6 6 0 0 0-.111.063 6 6 0 0 0-.424.275 6 6 0 0 0-.065.047 6 6 0 0 0-.427.342 6 6 0 0 0-.026.023 6 6 0 0 0-.416.41 6 6 0 0 0-1.17 1.873c-.066.163-.117.33-.181.493a6 6 0 0 0 .474 4.56 6 6 0 0 0 5.25 3.143c1.47.028 2.935-.017 4.393-.104a28.002 28.002 0 0 1 1.176-3.556 6 6 0 0 0-5.342-8.338z"/>
  </g>
  <path d="M54.54 59.023c-1.36 0-1.36-4.078 0-4.078h6.405V48.54c0-1.37 4.11-1.37 4.11 0v6.406h6.406c1.36 0 1.36 4.078 0 4.078h-6.406v6.438c0 1.37-4.11 1.37-4.11 0v-6.438z" fill="#fddad7" stroke="#f44336" stroke-width="2" stroke-linejoin="round"/>
  <g fill="#fbaca5" stroke="#f44336" stroke-width="2" stroke-linecap="round" stroke-linejoin="round">
    <path d="M203.15-87.819a27.99 27.99 0 0 1-3.797.793 6 6 0 0 0-4.957 7.848c.168.29.343.573.506.867a6 6 0 0 0 10.404.314 6 6 0 0 0 .1-6.119 55.95 55.95 0 0 0-2.256-3.703zM185.321-83.293a6 6 0 0 0-5.347 2.972 55.94 55.94 0 0 0-2.104 3.854 28.011 28.011 0 0 1 2.485 2.787 6 6 0 0 0 10.023-.674 6 6 0 0 0 .078-.143 6 6 0 0 0 .194-.406 6 6 0 0 0 .054-.125 6 6 0 0 0 .156-.43 6 6 0 0 0 .043-.134 6 6 0 0 0 .125-.502 6 6 0 0 0 .006-.028 6 6 0 0 0 .002-.017 6 6 0 0 0 .084-.56 6 6 0 0 0 .002-.016 6 6 0 0 0 0-.01 6 6 0 0 0 .028-.588 6 6 0 0 0-.031-.584 6 6 0 0 0 0-.016 6 6 0 0 0-.002-.011 6 6 0 0 0-.088-.565 6 6 0 0 0-.002-.017 6 6 0 0 0-.002-.01 6 6 0 0 0-.358-1.133 6 6 0 0 0-.578-1.049 6 6 0 0 0-.25-.336c-.09-.116-.19-.223-.281-.338a6 6 0 0 0-4.236-1.921zM196.194-72.182a6 6 0 0 0-.564.01 6 6 0 0 0-.09.006 6 6 0 0 0-.48.056 6 6 0 0 0-.15.028 6 6 0 0 0-.413.09 6 6 0 0 0-.213.062 6 6 0 0 0-.322.103 6 6 0 0 0-.295.118 6 6 0 0 0-.234.103 6 6 0 0 0-.37.194 6 6 0 0 0-.11.062 6 6 0 0 0-.425.275 6 6 0 0 0-.064.047 6 6 0 0 0-.428.342 6 6 0 0 0-.025.024 6 6 0 0 0-.416.41 6 6 0 0 0-1.17 1.873c-.066.162-.118.329-.182.492a6 6 0 0 0 .475 4.56 6 6 0 0 0 5.25 3.143c1.47.028 2.934-.016 4.393-.103a28.002 28.002 0 0 1 1.175-3.557 6 6 0 0 0-5.342-8.338z" transform="matrix(.73113 0 0 .73116 -48.807 151.192)"/>
  </g>
</svg>
