<svg xmlns="http://www.w3.org/2000/svg" width="128" height="128">
  <path d="M75.785 116.076c4.438 1.227 8.806 2.753 13.338 3.57 4.531.816 9.318.889 13.623-.745 5.453-2.07 9.619-6.705 12.337-11.866 2.718-5.16 4.166-10.877 5.641-16.52 1.925-7.364 3.952-14.839 3.695-22.446-.128-3.803-.841-7.612-2.369-11.097-1.527-3.486-3.893-6.64-6.985-8.857-3.587-2.572-8.021-3.796-12.43-4.005-4.408-.208-8.813.551-13.085 1.657-8.546 2.213-16.863 5.843-25.686 6.121-8.847.279-17.415-2.841-26.18-4.077-4.382-.618-8.886-.758-13.2.229-4.315.986-8.445 3.174-11.23 6.614-2.914 3.6-4.174 8.357-4.064 12.987.11 4.63 1.505 9.153 3.432 13.364 4.166 9.104 10.963 17.054 19.544 22.212 13.05 7.845 28.944 8.8 43.62 12.859z" fill="#f44336" fill-opacity=".063"/>
  <path d="M41.351 21.231c-20.013.016-31.115 20.975-21.12 38.328 10.2 17.706 21.353 23.287 43.656 38.12 22.31-14.833 33.464-20.414 43.666-38.12 14.983-26.004-15.94-52.812-37.131-31.57l-6.524 6.541-6.536-6.54c-4.264-4.268-9.98-6.763-16.011-6.759z" fill="#fddad7" stroke="#f44336" stroke-width="2" stroke-linecap="round" stroke-linejoin="round"/>
</svg>
