<?xml version="1.0" encoding="utf-8"?>
<!-- Generator: Adobe Illustrator 23.0.1, SVG Export Plug-In . SVG Version: 6.00 Build 0)  -->
<svg version="1.1" id="Laag_1" xmlns="http://www.w3.org/2000/svg" xmlns:xlink="http://www.w3.org/1999/xlink" x="0px" y="0px"
	 viewBox="0 0 500 500" style="enable-background:new 0 0 500 500;" xml:space="preserve">
<style type="text/css">
	.st0{fill:#009598;}
	.st1{enable-background:new    ;}
	.st2{fill:#FFFFFF;}
	.st3{fill:none;stroke:#FFFFFF;stroke-width:4.42;stroke-miterlimit:10;}
	.st4{fill:none;stroke:#FFFFFF;stroke-width:4.3;stroke-miterlimit:10;}
</style>
<title>Middel 7hdpi</title>
<g>
	<g id="Tekst">
		<rect id="Logo" class="st0" width="500" height="500"/>
		<g id="Logo-2">
			<g class="st1">
				<path class="st2" d="M69,207.7H33v-7h14.5v-53.3l-13.7,6.9v-8l14.8-7.6h6.9v62H69V207.7z"/>
				<path class="st2" d="M168.8,137.8c7.3,0,12.8,3.1,16.7,9.4c3.9,6.2,5.9,15,5.9,26.3c0,10.9-1.9,19.6-5.7,26
					c-3.8,6.4-9.4,9.6-16.9,9.6c-7.2,0-12.8-3.1-16.7-9.3c-3.9-6.2-5.9-15-5.9-26.3c0-11,1.9-19.6,5.7-26
					C155.7,141,161.4,137.8,168.8,137.8z M168.8,202c4.8,0,8.4-2.3,10.7-6.8c2.3-4.6,3.5-11.8,3.5-21.8c0-10-1.2-17.2-3.5-21.8
					s-5.9-6.8-10.7-6.8c-4.7,0-8.3,2.3-10.6,7c-2.3,4.6-3.5,11.8-3.5,21.6c0,9.9,1.2,17.1,3.5,21.7C160.5,199.7,164,202,168.8,202z
					 M168.6,166.2c2,0,3.8,0.7,5.2,2.1c1.4,1.4,2.1,3.1,2.1,5.2c0,2.1-0.7,3.9-2.1,5.4c-1.4,1.5-3.1,2.3-5.2,2.3
					c-2,0-3.7-0.8-5.1-2.3c-1.4-1.5-2.1-3.3-2.1-5.4c0-2.1,0.7-3.8,2.1-5.2C164.9,166.9,166.6,166.2,168.6,166.2z"/>
			</g>
			<g class="st1">
				<path class="st2" d="M343.1,207.7h-61.6v-11.9h24.8v-91l-23.4,11.7V103l25.3-13h11.7v105.9h23.2V207.7z"/>
			</g>
			<g class="st1">
				<path class="st2" d="M49.3,257.3c7.3,0,12.8,3.1,16.7,9.4c3.9,6.2,5.9,15,5.9,26.3c0,10.9-1.9,19.6-5.7,26
					c-3.8,6.4-9.4,9.6-16.9,9.6c-7.2,0-12.8-3.1-16.7-9.3c-3.9-6.2-5.9-15-5.9-26.3c0-11,1.9-19.6,5.7-26
					C36.2,260.5,41.8,257.3,49.3,257.3z M49.3,321.5c4.8,0,8.4-2.3,10.7-6.8c2.3-4.6,3.5-11.8,3.5-21.8c0-10-1.2-17.2-3.5-21.8
					s-5.9-6.8-10.7-6.8c-4.7,0-8.3,2.3-10.6,7c-2.3,4.6-3.5,11.8-3.5,21.6c0,9.9,1.2,17.1,3.5,21.7C41,319.2,44.5,321.5,49.3,321.5z
					 M49.1,285.6c2,0,3.8,0.7,5.2,2.1c1.4,1.4,2.1,3.1,2.1,5.2c0,2.1-0.7,3.9-2.1,5.4c-1.4,1.5-3.1,2.3-5.2,2.3
					c-2,0-3.7-0.8-5.1-2.3c-1.4-1.5-2.1-3.3-2.1-5.4c0-2.1,0.7-3.8,2.1-5.2C45.4,286.3,47.1,285.6,49.1,285.6z"/>
				<path class="st2" d="M188.5,327.2h-36.1v-7H167V267l-13.7,6.9v-8l14.8-7.6h6.9v62h13.6V327.2z"/>
				<path class="st2" d="M288.3,257.3c7.3,0,12.8,3.1,16.7,9.4c3.9,6.2,5.9,15,5.9,26.3c0,10.9-1.9,19.6-5.7,26s-9.4,9.6-16.9,9.6
					c-7.2,0-12.8-3.1-16.7-9.3c-3.9-6.2-5.9-15-5.9-26.3c0-11,1.9-19.6,5.7-26S280.9,257.3,288.3,257.3z M288.3,321.5
					c4.8,0,8.4-2.3,10.7-6.8c2.3-4.6,3.5-11.8,3.5-21.8c0-10-1.2-17.2-3.5-21.8s-5.9-6.8-10.7-6.8c-4.7,0-8.3,2.3-10.6,7
					c-2.3,4.6-3.5,11.8-3.5,21.6c0,9.9,1.2,17.1,3.5,21.7C280,319.2,283.5,321.5,288.3,321.5z M288.1,285.6c2,0,3.8,0.7,5.2,2.1
					c1.4,1.4,2.1,3.1,2.1,5.2c0,2.1-0.7,3.9-2.1,5.4c-1.4,1.5-3.1,2.3-5.2,2.3c-2,0-3.7-0.8-5.1-2.3c-1.4-1.5-2.1-3.3-2.1-5.4
					c0-2.1,0.7-3.8,2.1-5.2S286.1,285.6,288.1,285.6z"/>
			</g>
			<g class="st1">
				<path class="st2" d="M69,446.7H33v-7h14.5v-53.3l-13.7,6.9v-8l14.8-7.6h6.9v62H69V446.7z"/>
				<path class="st2" d="M168.8,376.8c7.3,0,12.8,3.1,16.7,9.4c3.9,6.2,5.9,15,5.9,26.3c0,10.9-1.9,19.6-5.7,26
					c-3.8,6.4-9.4,9.6-16.9,9.6c-7.2,0-12.8-3.1-16.7-9.3c-3.9-6.2-5.9-15-5.9-26.3c0-11,1.9-19.6,5.7-26
					C155.7,380,161.4,376.8,168.8,376.8z M168.8,441c4.8,0,8.4-2.3,10.7-6.8c2.3-4.6,3.5-11.8,3.5-21.8c0-10-1.2-17.2-3.5-21.8
					s-5.9-6.8-10.7-6.8c-4.7,0-8.3,2.3-10.6,7c-2.3,4.6-3.5,11.8-3.5,21.6c0,9.9,1.2,17.1,3.5,21.7C160.5,438.7,164,441,168.8,441z
					 M168.6,405.1c2,0,3.8,0.7,5.2,2.1c1.4,1.4,2.1,3.1,2.1,5.2c0,2.1-0.7,3.9-2.1,5.4c-1.4,1.5-3.1,2.3-5.2,2.3
					c-2,0-3.7-0.8-5.1-2.3c-1.4-1.5-2.1-3.3-2.1-5.4c0-2.1,0.7-3.8,2.1-5.2C164.9,405.8,166.6,405.1,168.6,405.1z"/>
				<path class="st2" d="M308,446.7H272v-7h14.5v-53.3l-13.7,6.9v-8l14.8-7.6h6.9v62H308V446.7z"/>
			</g>
			<path class="st3" d="M305,31.6h20.6c3,0.5,6.1,0.9,9.1,1.4c50.6,8.1,90.7,52.7,93.7,104c1.5,26.1-5,50-19.9,71.6
				c-1.4,2-1.1,3.1,0.5,4.7c23.9,23.8,47.7,47.6,71.4,71.4v1.1l-21.8,21.6c-2.8,2.7-2.8,2.7-5.5,0l-68.6-68.6
				c-2.8-2.8-2.7-2.7-5.9-0.6c-36.4,23.5-74.6,26.6-113.6,7.7c-45.8-22.3-70.3-70.6-61.2-120.9c7.7-42.7,33.2-71.6,73.6-87.2
				C286.4,34.4,295.6,32.8,305,31.6z"/>
			<circle class="st4" cx="316.3" cy="144.4" r="96.3"/>
		</g>
	</g>
</g>
</svg>
