<svg xmlns="http://www.w3.org/2000/svg" viewBox="0 0 500 500"><defs><style>.cls-1{fill:#009598;}.cls-2{font-size:99.57px;fill:#fff;font-family:AndaleMono, Andale Mono;}.cls-3{font-size:170px;}.cls-4,.cls-5{fill:none;stroke:#fff;stroke-miterlimit:10;}.cls-4{stroke-width:4.42px;}.cls-5{stroke-width:4.3px;}</style></defs><title>Middel 7hdpi</title><g id="Laag_2" data-name="Laag 2"><g id="Tekst"><rect id="Logo" class="cls-1" width="500" height="500"/><g id="Logo-2" data-name="Logo"><text class="cls-2" transform="translate(19.55 207.73)">1 0 <tspan class="cls-3" x="239" y="0">1</tspan><tspan x="0" y="119.48">0 1 0</tspan><tspan x="0" y="238.96">1 0 1</tspan></text><path class="cls-4" d="M305,31.58h20.64c3,.47,6.07.92,9.1,1.41,50.58,8.15,90.7,52.67,93.67,104,1.51,26.09-5.05,50-19.9,71.57-1.39,2-1.12,3.1.52,4.74q35.78,35.64,71.44,71.39v1.08l-21.8,21.6c-2.75,2.74-2.76,2.74-5.46,0l-68.57-68.57c-2.75-2.75-2.71-2.69-5.93-.62-36.44,23.46-74.65,26.58-113.56,7.67-45.77-22.26-70.3-70.63-61.21-120.89,7.73-42.72,33.16-71.61,73.61-87.24C286.36,34.4,295.65,32.84,305,31.58Z"/><circle class="cls-5" cx="316.33" cy="144.42" r="96.28"/></g></g></g></svg>