<?xml version="1.0" encoding="utf-8"?>
<!-- Generator: Adobe Illustrator 23.0.1, SVG Export Plug-In . SVG Version: 6.00 Build 0)  -->
<svg version="1.1" id="Laag_1" xmlns="http://www.w3.org/2000/svg" xmlns:xlink="http://www.w3.org/1999/xlink" x="0px" y="0px"
	 viewBox="0 0 1920 1080" style="enable-background:new 0 0 1920 1080;" xml:space="preserve">
<style type="text/css">
	.st0{enable-background:new    ;}
	.st1{fill:#FFFFFF;}
	.st2{fill:none;stroke:#FFFFFF;stroke-width:4.42;stroke-miterlimit:10;}
	.st3{opacity:0.8;enable-background:new    ;}
	.st4{fill:none;stroke:#FFFFFF;stroke-width:2.32;stroke-miterlimit:10;}
	.st5{fill:none;stroke:#FFFFFF;stroke-width:4.3;stroke-miterlimit:10;}
</style>
<title>Middel 4hdpi</title>
<g>
	<g id="Tekst">
		<rect id="Zwart" width="1920" height="1080"/>
		<g id="Origineel">
			<g class="st0">
				<path class="st1" d="M102.8,490H66.8v-7h14.5v-53.3l-13.7,6.9v-8l14.8-7.6h6.9v62h13.6V490z"/>
				<path class="st1" d="M202.6,420.1c7.3,0,12.8,3.1,16.7,9.4c3.9,6.2,5.9,15,5.9,26.3c0,10.9-1.9,19.6-5.7,26
					c-3.8,6.4-9.4,9.6-16.9,9.6c-7.2,0-12.8-3.1-16.7-9.3c-3.9-6.2-5.9-15-5.9-26.3c0-11,1.9-19.6,5.7-26
					C189.5,423.3,195.2,420.1,202.6,420.1z M202.6,484.3c4.8,0,8.4-2.3,10.7-6.8c2.3-4.6,3.5-11.8,3.5-21.8c0-10-1.2-17.2-3.5-21.8
					s-5.9-6.8-10.7-6.8c-4.7,0-8.3,2.3-10.6,7c-2.3,4.6-3.5,11.8-3.5,21.6c0,9.9,1.2,17.1,3.5,21.7
					C194.3,482,197.8,484.3,202.6,484.3z M202.4,448.4c2,0,3.8,0.7,5.2,2.1c1.4,1.4,2.1,3.1,2.1,5.2c0,2.1-0.7,3.9-2.1,5.4
					c-1.4,1.5-3.1,2.3-5.2,2.3c-2,0-3.7-0.8-5.1-2.3c-1.4-1.5-2.1-3.3-2.1-5.4c0-2.1,0.7-3.8,2.1-5.2
					C198.7,449.1,200.4,448.4,202.4,448.4z"/>
			</g>
			<g class="st0">
				<path class="st1" d="M376.9,490h-61.6v-11.9h24.8v-91l-23.4,11.7v-13.6l25.3-13h11.7v105.9h23.2V490z"/>
			</g>
			<g class="st0">
				<path class="st1" d="M83.1,539.6c7.3,0,12.8,3.1,16.7,9.4c3.9,6.2,5.9,15,5.9,26.3c0,10.9-1.9,19.6-5.7,26
					c-3.8,6.4-9.4,9.6-16.9,9.6c-7.2,0-12.8-3.1-16.7-9.3c-3.9-6.2-5.9-15-5.9-26.3c0-11,1.9-19.6,5.7-26
					C70,542.8,75.6,539.6,83.1,539.6z M83.1,603.8c4.8,0,8.4-2.3,10.7-6.8c2.3-4.6,3.5-11.8,3.5-21.8c0-10-1.2-17.2-3.5-21.8
					s-5.9-6.8-10.7-6.8c-4.7,0-8.3,2.3-10.6,7c-2.3,4.6-3.5,11.8-3.5,21.6c0,9.9,1.2,17.1,3.5,21.7
					C74.8,601.5,78.3,603.8,83.1,603.8z M82.9,567.9c2,0,3.8,0.7,5.2,2.1c1.4,1.4,2.1,3.1,2.1,5.2c0,2.1-0.7,3.9-2.1,5.4
					c-1.4,1.5-3.1,2.3-5.2,2.3c-2,0-3.7-0.8-5.1-2.3c-1.4-1.5-2.1-3.3-2.1-5.4c0-2.1,0.7-3.8,2.1-5.2
					C79.2,568.6,80.9,567.9,82.9,567.9z"/>
				<path class="st1" d="M222.3,609.5h-36.1v-7h14.5v-53.3l-13.7,6.9v-8l14.8-7.6h6.9v62h13.6V609.5z"/>
				<path class="st1" d="M322.1,539.6c7.3,0,12.8,3.1,16.7,9.4c3.9,6.2,5.9,15,5.9,26.3c0,10.9-1.9,19.6-5.7,26
					c-3.8,6.4-9.4,9.6-16.9,9.6c-7.2,0-12.8-3.1-16.7-9.3c-3.9-6.2-5.9-15-5.9-26.3c0-11,1.9-19.6,5.7-26
					C309,542.8,314.7,539.6,322.1,539.6z M322.1,603.8c4.8,0,8.4-2.3,10.7-6.8c2.3-4.6,3.5-11.8,3.5-21.8c0-10-1.2-17.2-3.5-21.8
					s-5.9-6.8-10.7-6.8c-4.7,0-8.3,2.3-10.6,7c-2.3,4.6-3.5,11.8-3.5,21.6c0,9.9,1.2,17.1,3.5,21.7
					C313.8,601.5,317.3,603.8,322.1,603.8z M321.9,567.9c2,0,3.8,0.7,5.2,2.1c1.4,1.4,2.1,3.1,2.1,5.2c0,2.1-0.7,3.9-2.1,5.4
					c-1.4,1.5-3.1,2.3-5.2,2.3c-2,0-3.7-0.8-5.1-2.3c-1.4-1.5-2.1-3.3-2.1-5.4c0-2.1,0.7-3.8,2.1-5.2
					C318.2,568.6,319.9,567.9,321.9,567.9z"/>
			</g>
			<g class="st0">
				<path class="st1" d="M102.8,729H66.8v-7h14.5v-53.3l-13.7,6.9v-8l14.8-7.6h6.9v62h13.6V729z"/>
				<path class="st1" d="M202.6,659c7.3,0,12.8,3.1,16.7,9.4c3.9,6.2,5.9,15,5.9,26.3c0,10.9-1.9,19.6-5.7,26
					c-3.8,6.4-9.4,9.6-16.9,9.6c-7.2,0-12.8-3.1-16.7-9.3c-3.9-6.2-5.9-15-5.9-26.3c0-11,1.9-19.6,5.7-26
					C189.5,662.2,195.2,659,202.6,659z M202.6,723.3c4.8,0,8.4-2.3,10.7-6.8c2.3-4.6,3.5-11.8,3.5-21.8c0-10-1.2-17.2-3.5-21.8
					s-5.9-6.8-10.7-6.8c-4.7,0-8.3,2.3-10.6,7c-2.3,4.6-3.5,11.8-3.5,21.6c0,9.9,1.2,17.1,3.5,21.7
					C194.3,721,197.8,723.3,202.6,723.3z M202.4,687.4c2,0,3.8,0.7,5.2,2.1c1.4,1.4,2.1,3.1,2.1,5.2c0,2.1-0.7,3.9-2.1,5.4
					c-1.4,1.5-3.1,2.3-5.2,2.3c-2,0-3.7-0.8-5.1-2.3c-1.4-1.5-2.1-3.3-2.1-5.4c0-2.1,0.7-3.8,2.1-5.2
					C198.7,688.1,200.4,687.4,202.4,687.4z"/>
				<path class="st1" d="M341.9,729h-36.1v-7h14.5v-53.3l-13.7,6.9v-8l14.8-7.6h6.9v62h13.6V729z"/>
			</g>
			<path class="st2" d="M338.8,313.9h20.6c3,0.5,6.1,0.9,9.1,1.4c50.6,8.1,90.7,52.7,93.7,104c1.5,26.1-5,50-19.9,71.6
				c-1.4,2-1.1,3.1,0.5,4.7c23.9,23.8,47.7,47.6,71.4,71.4v1.1l-21.8,21.6c-2.8,2.7-2.8,2.7-5.5,0l-68.6-68.6
				c-2.8-2.8-2.7-2.7-5.9-0.6c-36.4,23.5-74.6,26.6-113.6,7.7c-45.8-22.3-70.3-70.6-61.2-120.9c7.7-42.7,33.2-71.6,73.6-87.2
				C320.2,316.7,329.5,315.1,338.8,313.9z"/>
			<g class="st0">
				<path class="st1" d="M666.8,387.5c-6.2-2.1-12.1-3.2-17.6-3.2c-6.3,0-11.4,1.4-15.4,4.3c-4,2.9-5.9,7-5.9,12.3
					c0,6.3,5.2,11.8,15.5,16.6c7.7,3.5,12.7,6,15.2,7.4c2.5,1.4,5,3.3,7.6,5.7c2.6,2.4,4.6,5.2,6.2,8.5c1.5,3.3,2.3,6.9,2.3,11
					c0,10.1-3.4,18-10.2,23.5c-6.8,5.6-14.8,8.4-24.1,8.4c-8.9,0-16.8-1.8-23.5-5.3l2.5-10.4c7.9,3.6,14.8,5.4,20.7,5.4
					c6.9,0,12.4-1.8,16.5-5.3c4.2-3.6,6.2-8.5,6.2-14.7c0-4.6-1.4-8.5-4.1-11.8c-2.7-3.2-7.7-6.5-15-9.8c-7.5-3.4-12.3-5.8-14.5-7
					c-2.2-1.3-4.4-3-6.5-5.2c-2.2-2.2-3.8-4.7-5-7.4c-1.2-2.8-1.8-5.7-1.8-9c0-8.6,3.1-15.3,9.3-20.1c6.2-4.8,14-7.2,23.5-7.2
					c6.9,0,13.8,1.1,20.6,3.2L666.8,387.5z"/>
				<path class="st1" d="M768.4,403.2L739.3,480c-4.2,11.3-8.4,19.2-12.6,23.7c-4.2,4.5-8.9,6.7-14.2,6.7c-4.7,0-9.4-0.9-14-2.6
					l1.9-9.2c3.7,1.2,7.1,1.8,10,1.8c4.1,0,7.5-1.6,10.2-4.8c2.7-3.2,5.3-8.4,8-15.7l-28.8-76.6h12.5l21.7,61.2l21.7-61.2H768.4z"/>
				<path class="st1" d="M861.6,480h-11.5v-50.4c0-12.2-2.3-18.3-6.8-18.3c-2.3,0-4.9,2.1-7.6,6.3c-2.8,4.2-4.2,6.5-4.2,7V480h-11.4
					v-50.4c0-12.2-2.3-18.3-6.9-18.3c-2.3,0-4.8,2.1-7.6,6.3c-2.8,4.2-4.2,6.5-4.2,7V480H790v-76.8h11.1v11.6
					c2.2-4.1,4.7-7.3,7.7-9.8c3-2.4,5.9-3.6,8.9-3.6c3.1,0,5.9,1.2,8.3,3.6c2.5,2.4,4.2,5.7,5.1,9.8c2.2-4.1,4.7-7.3,7.7-9.8
					c3-2.4,5.9-3.6,8.8-3.6c9.3,0,13.9,8.3,13.9,24.9V480z"/>
				<path class="st1" d="M898.4,413.1c2.6-3.5,6-6.4,10.4-8.5c4.3-2.2,8.9-3.2,13.7-3.2c8.8,0,15.8,3.6,20.8,10.9
					c5,7.3,7.6,16.8,7.6,28.5c0,11.8-2.6,21.6-7.9,29.4c-5.3,7.8-12.4,11.8-21.3,11.8c-4.8,0-9.2-1.2-13.4-3.6
					c-4.2-2.4-7.4-5.5-9.8-9.5v41.4h-11.5V403.2h11.5V413.1z M898.4,424.6v31.9c2.2,4.3,5.1,7.9,8.8,10.8c3.7,2.9,7.5,4.3,11.4,4.3
					c6.2,0,11.1-2.9,14.8-8.7c3.7-5.8,5.5-13,5.5-21.6c0-8.8-1.7-16.1-5.2-21.7c-3.5-5.6-8.4-8.4-14.6-8.4
					C910.9,411.3,904.1,415.7,898.4,424.6z"/>
				<path class="st1" d="M1006.9,401.4c10.6,0,19,3.7,25.2,11.1c6.2,7.4,9.4,17.1,9.4,29.1c0,12.1-3.1,21.9-9.4,29.3
					c-6.2,7.4-14.6,11.1-25.2,11.1c-10.6,0-19-3.7-25.2-11.1c-6.2-7.4-9.3-17.2-9.3-29.4c0-12.1,3.1-21.8,9.4-29.1
					C987.9,405,996.3,401.4,1006.9,401.4z M1006.9,472c7,0,12.5-2.9,16.5-8.8c4-5.9,6-13,6-21.4c0-8.8-2-16.1-6-21.8
					s-9.5-8.5-16.6-8.5c-7.1,0-12.7,2.8-16.6,8.4c-3.9,5.6-5.9,12.9-5.9,21.9c0,8.5,2,15.7,6,21.6C994.4,469,999.9,472,1006.9,472z"
					/>
				<path class="st1" d="M1119.2,414.2c-6.4-2.1-12.5-3.2-18.2-3.2c-6.2,0-11.2,1-14.8,3.1c-3.6,2.1-5.5,4.9-5.5,8.4
					c0,2.2,0.8,4.1,2.5,5.8c1.7,1.6,5,3.2,10,4.6l11,3.2c5.1,1.4,9.2,3.1,12.4,5.1c3.2,2,5.6,4.4,7.2,7.2c1.6,2.8,2.4,6.1,2.4,9.8
					c0,7.3-3.1,13.1-9.2,17.4c-6.1,4.3-14,6.4-23.4,6.4c-9.4,0-17.2-1.4-23.4-4.3l2.2-9.9c6.4,3,13.3,4.6,20.7,4.6
					c6.4,0,11.6-1.2,15.6-3.6c4-2.4,6-5.5,6-9.5c0-2.7-1-5-3-7.1c-2-2.1-6.7-4.3-14-6.5c-5.9-1.8-10.3-3.2-13.1-4.1
					c-2.8-0.9-5.4-2.2-7.8-4c-2.4-1.8-4.2-3.9-5.5-6.3c-1.3-2.5-1.9-5.2-1.9-8.3c0-6.6,2.9-11.9,8.7-15.8c5.8-3.9,13.5-5.8,23.1-5.8
					c6.2,0,13.1,1.1,20.6,3.2L1119.2,414.2z"/>
				<path class="st1" d="M1198.6,480h-11.5v-66.8h-22.6v-9.9h34.1V480z M1193,374.2c2.2,0,4,0.8,5.5,2.3c1.5,1.5,2.3,3.4,2.3,5.6
					c0,2.3-0.8,4.2-2.2,5.7c-1.5,1.5-3.4,2.3-5.6,2.3c-2,0-3.8-0.8-5.3-2.4s-2.3-3.5-2.3-5.6c0-2.1,0.8-4,2.3-5.5
					C1189.3,374.9,1191,374.2,1193,374.2z"/>
				<path class="st1" d="M1308.2,480h-11.5v-11.3c-8.3,8.8-17,13.2-26.1,13.2c-14.4,0-21.6-8.7-21.6-26.2v-52.5h11.5v49.2
					c0,6.5,1,11.4,3.1,14.6c2.1,3.2,5.6,4.8,10.5,4.8c7,0,14.6-4.4,22.6-13.1v-55.5h11.5V480z"/>
				<path class="st1" d="M1405,480h-11.5v-50.4c0-12.2-2.3-18.3-6.8-18.3c-2.3,0-4.9,2.1-7.6,6.3c-2.8,4.2-4.2,6.5-4.2,7V480h-11.4
					v-50.4c0-12.2-2.3-18.3-6.9-18.3c-2.3,0-4.8,2.1-7.6,6.3c-2.8,4.2-4.2,6.5-4.2,7V480h-11.5v-76.8h11.1v11.6
					c2.2-4.1,4.7-7.3,7.7-9.8c3-2.4,5.9-3.6,8.9-3.6c3.1,0,5.9,1.2,8.3,3.6c2.5,2.4,4.2,5.7,5.1,9.8c2.2-4.1,4.7-7.3,7.7-9.8
					c3-2.4,5.9-3.6,8.8-3.6c9.3,0,13.9,8.3,13.9,24.9V480z"/>
				<path class="st1" d="M1577.4,480h-57.2v-8.8c14.5-16.2,23.9-27,28.2-32.5c4.3-5.5,7.8-11.3,10.5-17.3c2.7-6,4.1-12.1,4.1-18.1
					c0-5.8-1.8-10.4-5.3-13.7c-3.5-3.3-8.4-5-14.8-5c-4.9,0-11.4,1.5-19.6,4.5l-1.7-10.4c7.4-3.1,15.2-4.7,23.3-4.7
					c9.3,0,16.8,2.6,22.4,7.8c5.7,5.2,8.5,12.2,8.5,21c0,6.2-1.5,12.4-4.4,18.6c-2.9,6.1-6.7,12-11.2,17.7
					c-4.6,5.7-13.5,15.8-26.7,30.4h43.8V480z"/>
				<path class="st1" d="M1640.8,374c11,0,19.5,4.7,25.4,14.2c5.9,9.5,8.9,22.7,8.9,39.8c0,16.6-2.9,29.7-8.6,39.4
					c-5.7,9.7-14.3,14.6-25.6,14.6c-11,0-19.4-4.7-25.4-14.2c-5.9-9.4-8.9-22.7-8.9-39.8c0-16.6,2.9-29.8,8.7-39.5
					S1629.5,374,1640.8,374z M1640.8,471.4c7.3,0,12.7-3.5,16.2-10.4c3.5-6.9,5.3-17.9,5.3-33c0-15.1-1.8-26.1-5.3-33
					c-3.5-6.9-8.9-10.3-16.2-10.3c-7.2,0-12.5,3.5-16.1,10.5c-3.5,7-5.3,17.9-5.3,32.7c0,15,1.8,26,5.3,32.9
					C1628.2,467.9,1633.5,471.4,1640.8,471.4z M1640.5,417c3.1,0,5.7,1.1,7.8,3.2c2.1,2.1,3.2,4.8,3.2,7.8c0,3.2-1.1,5.9-3.2,8.2
					c-2.2,2.3-4.8,3.4-7.8,3.4c-3,0-5.6-1.1-7.7-3.4c-2.1-2.3-3.2-5-3.2-8.2c0-3.1,1-5.8,3.1-7.9C1634.8,418,1637.4,417,1640.5,417z
					"/>
				<path class="st1" d="M1758.5,480h-57.2v-8.8c14.5-16.2,23.9-27,28.2-32.5c4.3-5.5,7.8-11.3,10.5-17.3c2.7-6,4.1-12.1,4.1-18.1
					c0-5.8-1.8-10.4-5.3-13.7c-3.5-3.3-8.4-5-14.8-5c-4.9,0-11.4,1.5-19.6,4.5l-1.7-10.4c7.4-3.1,15.2-4.7,23.3-4.7
					c9.3,0,16.8,2.6,22.4,7.8c5.7,5.2,8.5,12.2,8.5,21c0,6.2-1.5,12.4-4.4,18.6c-2.9,6.1-6.7,12-11.2,17.7
					c-4.6,5.7-13.5,15.8-26.7,30.4h43.8V480z"/>
				<path class="st1" d="M1821.9,374c11,0,19.5,4.7,25.4,14.2c5.9,9.5,8.9,22.7,8.9,39.8c0,16.6-2.9,29.7-8.6,39.4
					c-5.7,9.7-14.3,14.6-25.6,14.6c-11,0-19.4-4.7-25.4-14.2c-5.9-9.4-8.9-22.7-8.9-39.8c0-16.6,2.9-29.8,8.7-39.5
					S1810.6,374,1821.9,374z M1821.9,471.4c7.3,0,12.7-3.5,16.2-10.4c3.5-6.9,5.3-17.9,5.3-33c0-15.1-1.8-26.1-5.3-33
					c-3.5-6.9-8.9-10.3-16.2-10.3c-7.2,0-12.5,3.5-16.1,10.5c-3.5,7-5.3,17.9-5.3,32.7c0,15,1.8,26,5.3,32.9
					C1809.3,467.9,1814.7,471.4,1821.9,471.4z M1821.6,417c3.1,0,5.7,1.1,7.8,3.2c2.1,2.1,3.2,4.8,3.2,7.8c0,3.2-1.1,5.9-3.2,8.2
					c-2.2,2.3-4.8,3.4-7.8,3.4c-3,0-5.6-1.1-7.7-3.4c-2.1-2.3-3.2-5-3.2-8.2c0-3.1,1-5.8,3.1-7.9C1815.9,418,1818.5,417,1821.6,417z
					"/>
			</g>
			<g class="st3">
				<path class="st1" d="M652.7,667.4h-7.8l-7.1-22.4h-21l-7.2,22.4h-7.7l20.9-64h8.9L652.7,667.4z M635.7,638.5l-8.4-26.5
					l-8.3,26.5H635.7z"/>
				<path class="st1" d="M701.1,667.4H694v-6.8c-1.5,2.3-3.5,4.2-6.2,5.8c-2.7,1.5-5.6,2.3-8.5,2.3c-5.4,0-9.7-2.4-12.8-7.2
					c-3.1-4.8-4.7-10.9-4.7-18.3c0-6.9,1.6-12.7,4.9-17.2c3.3-4.5,7.6-6.8,13-6.8c6,0,10.7,2.4,14.4,7.3v-22.9h7.1V667.4z
					 M694,652.9v-19.6c-3.4-5.4-7.5-8.2-12.2-8.2c-3.9,0-7,1.7-9.3,5.2c-2.3,3.5-3.4,7.8-3.4,13.1c0,5.4,1.1,9.9,3.2,13.5
					s5.1,5.3,8.8,5.3c1.8,0,3.6-0.5,5.4-1.5c1.8-1,3.5-2.4,5.1-4.4C693.2,654.5,694,653.3,694,652.9z"/>
				<path class="st1" d="M759.1,620.1l-17.9,47.3h-6.4l-17.8-47.3h7.7l13.4,37.6l13.4-37.6H759.1z"/>
				<path class="st1" d="M813.9,667.4h-7c-0.6-1.9-0.9-4.4-0.9-7.6c-4,5.9-9.5,8.8-16.4,8.8c-3.5,0-6.6-1.2-9.3-3.7
					c-2.7-2.5-4-5.7-4-9.6c0-2.3,0.5-4.4,1.4-6.2c0.9-1.8,2.3-3.3,4.1-4.5c1.8-1.2,4-2.2,6.6-2.9c2.6-0.7,5.7-1.2,9.3-1.5l7.9-0.6
					v-2.3c0-8.1-3.8-12.2-11.3-12.2c-1.8,0-4,0.4-6.8,1.2c-2.7,0.8-5.1,1.7-7.1,2.7l-1.9-5.1c6.4-3.3,12.4-4.9,18-4.9
					c10.8,0,16.1,5.7,16.1,17.1v20.3C812.7,660.5,813.1,664.2,813.9,667.4z M805.7,653.3v-8.6c-6.4,0.6-10.8,1.1-13.1,1.6
					c-2.4,0.5-4.4,1.4-6.2,2.8c-1.7,1.4-2.6,3.2-2.6,5.5c0,2.1,0.7,3.8,2.2,5.1c1.5,1.3,3.4,2,5.7,2c2.5,0,5-0.7,7.5-2.2
					C801.6,658,803.8,656,805.7,653.3z"/>
				<path class="st1" d="M868.5,667.4h-7.1v-30.3c0-4.2-0.7-7.2-2-9.1c-1.3-1.9-3.5-2.8-6.3-2.8c-4.3,0-9,2.7-13.9,8.1v34.2H832
					v-47.3h7.1v6.9c5.1-5.4,10.4-8.1,16.1-8.1c8.9,0,13.3,5.4,13.3,16.1V667.4z"/>
				<path class="st1" d="M924,665.8c-4.1,1.9-8.6,2.8-13.6,2.8c-7.4,0-13.4-2.3-17.8-6.8c-4.4-4.5-6.6-10.5-6.6-18
					c0-7.5,2.2-13.5,6.7-18c4.5-4.5,10.3-6.8,17.6-6.8c4.7,0,9.3,0.8,13.6,2.5l-1.9,5.8c-4.3-1.5-8.2-2.2-11.6-2.2
					c-5.2,0-9.3,1.7-12.4,5c-3,3.4-4.6,7.9-4.6,13.7c0,5.3,1.6,9.7,4.7,13.3c3.1,3.6,7.2,5.4,12.3,5.4c4,0,8.1-0.8,12.3-2.3
					L924,665.8z"/>
				<path class="st1" d="M981.3,644h-32.4c0,5.4,1.5,9.8,4.6,13.2c3.1,3.5,6.9,5.2,11.4,5.2c4.3,0,8.7-0.8,13.3-2.3l1.2,5.7
					c-4.2,1.9-9,2.8-14.6,2.8c-7,0-12.7-2.3-17-6.8c-4.3-4.5-6.4-10.6-6.4-18.2c0-7.5,1.9-13.5,5.8-17.9c3.9-4.5,8.8-6.7,14.9-6.7
					c5.4,0,10,2.1,13.7,6.2c3.7,4.1,5.5,9.7,5.5,16.6V644z M973.6,638.2c0-3.7-1.1-6.8-3.4-9.3s-4.9-3.8-7.7-3.8
					c-3.7,0-6.7,1.2-9.1,3.6c-2.4,2.4-3.7,5.6-4,9.5H973.6z"/>
				<path class="st1" d="M1035.5,667.4h-7.1v-6.8c-1.5,2.3-3.5,4.2-6.2,5.8s-5.6,2.3-8.5,2.3c-5.4,0-9.7-2.4-12.8-7.2
					c-3.1-4.8-4.7-10.9-4.7-18.3c0-6.9,1.6-12.7,4.9-17.2c3.3-4.5,7.6-6.8,13-6.8c6,0,10.7,2.4,14.4,7.3v-22.9h7.1V667.4z
					 M1028.4,652.9v-19.6c-3.4-5.4-7.5-8.2-12.2-8.2c-3.9,0-7,1.7-9.3,5.2c-2.3,3.5-3.4,7.8-3.4,13.1c0,5.4,1.1,9.9,3.2,13.5
					c2.1,3.6,5.1,5.3,8.8,5.3c1.8,0,3.6-0.5,5.4-1.5c1.8-1,3.5-2.4,5.1-4.4C1027.6,654.5,1028.4,653.3,1028.4,652.9z"/>
				<path class="st1" d="M1154.3,667.4h-7.8l-7.1-22.4h-21l-7.2,22.4h-7.7l20.9-64h8.9L1154.3,667.4z M1137.3,638.5l-8.4-26.5
					l-8.3,26.5H1137.3z"/>
				<path class="st1" d="M1202.9,667.4h-7.1v-30.3c0-4.2-0.7-7.2-2-9.1c-1.3-1.9-3.5-2.8-6.3-2.8c-4.3,0-9,2.7-13.9,8.1v34.2h-7.1
					v-47.3h7.1v6.9c5.1-5.4,10.4-8.1,16.1-8.1c8.9,0,13.3,5.4,13.3,16.1V667.4z"/>
				<path class="st1" d="M1259.8,667.4h-7c-0.6-1.9-0.9-4.4-0.9-7.6c-4,5.9-9.5,8.8-16.4,8.8c-3.5,0-6.6-1.2-9.3-3.7
					c-2.7-2.5-4-5.7-4-9.6c0-2.3,0.5-4.4,1.4-6.2c0.9-1.8,2.3-3.3,4.1-4.5c1.8-1.2,4-2.2,6.6-2.9c2.6-0.7,5.7-1.2,9.3-1.5l7.9-0.6
					v-2.3c0-8.1-3.8-12.2-11.3-12.2c-1.8,0-4,0.4-6.8,1.2c-2.7,0.8-5.1,1.7-7.1,2.7l-1.9-5.1c6.4-3.3,12.4-4.9,18-4.9
					c10.8,0,16.1,5.7,16.1,17.1v20.3C1258.6,660.5,1259,664.2,1259.8,667.4z M1251.6,653.3v-8.6c-6.4,0.6-10.8,1.1-13.1,1.6
					c-2.4,0.5-4.4,1.4-6.2,2.8c-1.7,1.4-2.6,3.2-2.6,5.5c0,2.1,0.7,3.8,2.2,5.1c1.5,1.3,3.4,2,5.7,2c2.5,0,5-0.7,7.5-2.2
					C1247.5,658,1249.7,656,1251.6,653.3z"/>
				<path class="st1" d="M1310.9,667.4h-19.3v-57.9h-12.3v-6.1h19.4v57.9h12.2V667.4z"/>
				<path class="st1" d="M1372.2,620.1l-17.9,47.3c-2.6,7-5.2,11.8-7.7,14.6c-2.6,2.8-5.5,4.1-8.7,4.1c-2.9,0-5.8-0.5-8.6-1.6
					l1.2-5.7c2.3,0.7,4.4,1.1,6.2,1.1c2.5,0,4.6-1,6.3-2.9c1.6-2,3.3-5.2,4.9-9.7l-17.7-47.2h7.7l13.4,37.7l13.4-37.7H1372.2z"/>
				<path class="st1" d="M1426.3,665.2c-4.7,2.2-9.4,3.3-14,3.3c-8.4,0-12.7-4.5-12.7-13.4v-28.9h-9.1v-6.1h9.1v-12.9h6.9v12.9h16.1
					v6.1h-16.1v27c0,2.9,0.6,5.1,1.9,6.7s3,2.4,5.2,2.4c3.9,0,7.7-0.9,11.5-2.6L1426.3,665.2z"/>
				<path class="st1" d="M1469.8,667.4h-7.1v-41.1h-13.9v-6.1h21V667.4z M1466.3,602.2c1.3,0,2.5,0.5,3.4,1.4c0.9,1,1.4,2.1,1.4,3.4
					c0,1.4-0.5,2.6-1.4,3.5c-0.9,0.9-2.1,1.4-3.4,1.4c-1.2,0-2.3-0.5-3.3-1.5c-1-1-1.4-2.1-1.4-3.4c0-1.3,0.5-2.4,1.4-3.4
					C1464,602.7,1465.1,602.2,1466.3,602.2z"/>
				<path class="st1" d="M1537.1,665.8c-4.1,1.9-8.6,2.8-13.6,2.8c-7.4,0-13.4-2.3-17.8-6.8c-4.4-4.5-6.6-10.5-6.6-18
					c0-7.5,2.2-13.5,6.7-18c4.5-4.5,10.3-6.8,17.6-6.8c4.7,0,9.3,0.8,13.6,2.5l-1.9,5.8c-4.3-1.5-8.2-2.2-11.6-2.2
					c-5.2,0-9.3,1.7-12.4,5c-3,3.4-4.6,7.9-4.6,13.7c0,5.3,1.6,9.7,4.7,13.3s7.2,5.4,12.3,5.4c4,0,8.1-0.8,12.3-2.3L1537.1,665.8z"
					/>
				<path class="st1" d="M1588.1,626.9c-4-1.3-7.7-2-11.2-2c-3.8,0-6.9,0.6-9.1,1.9c-2.2,1.3-3.4,3-3.4,5.1c0,1.4,0.5,2.5,1.5,3.6
					c1,1,3.1,2,6.2,2.8l6.8,2c3.1,0.9,5.7,1.9,7.6,3.2c2,1.2,3.4,2.7,4.4,4.4c1,1.7,1.5,3.8,1.5,6.1c0,4.5-1.9,8.1-5.7,10.7
					c-3.8,2.6-8.6,3.9-14.4,3.9c-5.8,0-10.6-0.9-14.4-2.6l1.4-6.1c4,1.9,8.2,2.8,12.7,2.8c3.9,0,7.1-0.7,9.6-2.2
					c2.5-1.5,3.7-3.4,3.7-5.8c0-1.6-0.6-3.1-1.8-4.4s-4.1-2.6-8.6-4c-3.7-1.1-6.3-2-8.1-2.5s-3.3-1.4-4.8-2.5
					c-1.5-1.1-2.6-2.4-3.4-3.9c-0.8-1.5-1.2-3.2-1.2-5.1c0-4.1,1.8-7.3,5.4-9.7c3.6-2.4,8.3-3.6,14.2-3.6c3.8,0,8,0.7,12.7,1.9
					L1588.1,626.9z"/>
				<path class="st1" d="M1630.1,619.4c1.5,0,2.8,0.5,3.9,1.6s1.6,2.3,1.6,3.8c0,1.5-0.5,2.8-1.6,3.8c-1.1,1-2.4,1.6-3.9,1.6
					c-1.5,0-2.8-0.5-3.8-1.6c-1-1-1.6-2.3-1.6-3.8c0-1.5,0.5-2.8,1.6-3.8C1627.3,619.9,1628.6,619.4,1630.1,619.4z M1630.1,657.3
					c1.5,0,2.8,0.5,3.9,1.5c1.1,1,1.6,2.3,1.6,3.9c0,1.5-0.5,2.8-1.6,3.8s-2.4,1.5-3.9,1.5c-1.5,0-2.8-0.5-3.8-1.5
					c-1-1-1.6-2.3-1.6-3.8c0-1.5,0.5-2.8,1.6-3.9C1627.3,657.9,1628.6,657.3,1630.1,657.3z"/>
			</g>
			<g class="st0">
				<path class="st1" d="M606.5,703h9.5c6.3,0,11.3,2.1,15.1,6.4c3.8,4.3,5.7,10.1,5.7,17.6c0,7.6-1.9,13.5-5.8,17.7
					c-3.8,4.2-8.8,6.3-14.8,6.3h-9.7V703z M612,746.1h3.9c4.6,0,8.2-1.7,10.8-5.1c2.7-3.4,4-8.1,4-14c0-5.9-1.3-10.6-4-14
					c-2.7-3.4-6.3-5.1-10.8-5.1H612V746.1z"/>
				<path class="st1" d="M666.9,751h-5.3v-30.9h-10.4v-4.6h15.7V751z M664.4,702.1c1,0,1.8,0.4,2.6,1.1c0.7,0.7,1.1,1.6,1.1,2.6
					c0,1-0.3,1.9-1,2.6s-1.5,1.1-2.6,1.1c-0.9,0-1.8-0.4-2.5-1.1c-0.7-0.7-1.1-1.6-1.1-2.6c0-1,0.4-1.8,1.1-2.6
					S663.4,702.1,664.4,702.1z"/>
				<path class="st1" d="M719.2,715.5L705.7,751h-4.8l-13.4-35.4h5.8l10,28.2l10-28.2H719.2z"/>
				<path class="st1" d="M750.5,751h-5.3v-30.9h-10.4v-4.6h15.7V751z M748,702.1c1,0,1.8,0.4,2.6,1.1c0.7,0.7,1.1,1.6,1.1,2.6
					c0,1-0.3,1.9-1,2.6s-1.5,1.1-2.6,1.1c-0.9,0-1.8-0.4-2.5-1.1c-0.7-0.7-1.1-1.6-1.1-2.6c0-1,0.4-1.8,1.1-2.6S747,702.1,748,702.1
					z"/>
				<path class="st1" d="M801.2,751h-5.3v-22.7c0-3.2-0.5-5.4-1.5-6.9c-1-1.4-2.6-2.1-4.7-2.1c-3.2,0-6.7,2-10.4,6.1V751h-5.3v-35.4
					h5.3v5.2c3.8-4,7.8-6.1,12-6.1c6.6,0,10,4,10,12V751z"/>
				<path class="st1" d="M825.5,737.6c-3.3,1.6-5,3-5,4.3c0,0.7,0.4,1.2,1.1,1.7c0.8,0.5,1.8,0.7,3.1,0.7l11.9-0.3
					c2.8,0,5,0.7,6.6,2.1c1.6,1.4,2.4,3.3,2.4,5.9c0,4-1.8,7.2-5.4,9.6s-7.8,3.6-12.6,3.6c-3.9,0-7.1-0.8-9.6-2.5
					c-2.5-1.6-3.7-3.8-3.7-6.4c0-2.8,1.9-5.2,5.8-7.2c-3.2-1.5-4.8-3.3-4.8-5.5c0-2.5,2.1-4.8,6.2-7c-1.9-1.2-3.4-2.7-4.4-4.5
					c-1-1.8-1.5-3.8-1.5-5.8c0-3.3,1.1-6.1,3.4-8.2c2.3-2.1,5.1-3.2,8.5-3.2c2.4,0,4.7,0.5,6.6,1.5l10.5-1.6v5.2H838
					c1,1.8,1.5,3.9,1.5,6.3c0,3.2-1.1,5.9-3.4,8.2c-2.2,2.2-5.1,3.3-8.5,3.3C826.9,737.7,826.2,737.6,825.5,737.6z M827.8,760.8
					c3.5,0,6.5-0.8,8.9-2.3c2.5-1.6,3.7-3.5,3.7-5.8c0-2.4-1.7-3.5-5.2-3.5c-1.2,0-3.2,0.1-6,0.2c-1.8,0.1-3.2,0.1-4.2,0.1
					c-0.5,0-1.3,0.4-2.3,1.2c-1.1,0.8-1.9,1.6-2.4,2.5c-0.6,0.8-0.8,1.7-0.8,2.6c0,1.4,0.8,2.6,2.3,3.6
					C823.2,760.4,825.3,760.8,827.8,760.8z M827.6,733.5c1.9,0,3.5-0.7,4.8-2c1.2-1.3,1.9-3.1,1.9-5.3c0-2.3-0.6-4.1-1.8-5.4
					c-1.2-1.3-2.8-1.9-4.8-1.9c-1.9,0-3.5,0.7-4.7,2c-1.3,1.3-1.9,3.1-1.9,5.3c0,2.1,0.6,3.9,1.9,5.3
					C824.1,732.8,825.7,733.5,827.6,733.5z"/>
				<path class="st1" d="M899.1,703h9.5c6.3,0,11.3,2.1,15.1,6.4c3.8,4.3,5.7,10.1,5.7,17.6c0,7.6-1.9,13.5-5.8,17.7
					c-3.8,4.2-8.8,6.3-14.8,6.3h-9.7V703z M904.7,746.1h3.9c4.6,0,8.2-1.7,10.8-5.1c2.7-3.4,4-8.1,4-14c0-5.9-1.3-10.6-4-14
					c-2.7-3.4-6.3-5.1-10.8-5.1h-3.9V746.1z"/>
				<path class="st1" d="M969.5,733.4h-24.3c0,4,1.2,7.3,3.5,9.9c2.3,2.6,5.2,3.9,8.6,3.9c3.2,0,6.5-0.6,10-1.7l0.9,4.3
					c-3.1,1.4-6.8,2.1-11,2.1c-5.3,0-9.5-1.7-12.7-5.1c-3.2-3.4-4.8-7.9-4.8-13.7c0-5.6,1.4-10.1,4.3-13.5s6.6-5,11.2-5
					c4.1,0,7.5,1.6,10.2,4.7c2.7,3.1,4.1,7.2,4.1,12.4V733.4z M963.7,729.1c0-2.8-0.9-5.1-2.6-7c-1.7-1.9-3.7-2.8-5.8-2.8
					c-2.7,0-5,0.9-6.8,2.7s-2.8,4.2-3,7.1H963.7z"/>
				<path class="st1" d="M1011.3,733.4h-24.3c0,4,1.2,7.3,3.5,9.9c2.3,2.6,5.2,3.9,8.6,3.9c3.2,0,6.5-0.6,10-1.7l0.9,4.3
					c-3.1,1.4-6.8,2.1-11,2.1c-5.3,0-9.5-1.7-12.7-5.1c-3.2-3.4-4.8-7.9-4.8-13.7c0-5.6,1.4-10.1,4.3-13.5c2.9-3.3,6.6-5,11.2-5
					c4.1,0,7.5,1.6,10.2,4.7c2.7,3.1,4.1,7.2,4.1,12.4V733.4z M1005.5,729.1c0-2.8-0.9-5.1-2.6-7s-3.7-2.8-5.8-2.8
					c-2.7,0-5,0.9-6.8,2.7s-2.8,4.2-3,7.1H1005.5z"/>
				<path class="st1" d="M1030,720.1c1.2-1.6,2.8-2.9,4.8-3.9s4.1-1.5,6.3-1.5c4.1,0,7.3,1.7,9.6,5.1c2.3,3.4,3.5,7.7,3.5,13.1
					c0,5.4-1.2,10-3.7,13.6c-2.4,3.6-5.7,5.4-9.8,5.4c-2.2,0-4.3-0.5-6.2-1.6s-3.4-2.6-4.5-4.4V765h-5.3v-49.5h5.3V720.1z
					 M1030,725.4v14.7c1,2,2.3,3.7,4,5c1.7,1.3,3.5,2,5.3,2c2.9,0,5.1-1.3,6.8-4c1.7-2.7,2.5-6,2.5-10c0-4.1-0.8-7.4-2.4-10
					s-3.9-3.9-6.7-3.9C1035.8,719.2,1032.6,721.3,1030,725.4z"/>
				<path class="st1" d="M1126.8,751h-5.3v-30.9H1111v-4.6h15.7V751z M1124.2,702.1c1,0,1.8,0.4,2.6,1.1c0.7,0.7,1.1,1.6,1.1,2.6
					c0,1-0.3,1.9-1,2.6c-0.7,0.7-1.5,1.1-2.6,1.1c-0.9,0-1.8-0.4-2.5-1.1c-0.7-0.7-1.1-1.6-1.1-2.6c0-1,0.4-1.8,1.1-2.6
					C1122.4,702.5,1123.3,702.1,1124.2,702.1z"/>
				<path class="st1" d="M1177.4,751h-5.3v-22.7c0-3.2-0.5-5.4-1.5-6.9c-1-1.4-2.6-2.1-4.7-2.1c-3.2,0-6.7,2-10.4,6.1V751h-5.3
					v-35.4h5.3v5.2c3.8-4,7.8-6.1,12-6.1c6.6,0,10,4,10,12V751z"/>
				<path class="st1" d="M1219.6,749.4c-3.6,1.6-7.1,2.4-10.5,2.4c-6.3,0-9.5-3.3-9.5-10v-21.7h-6.8v-4.6h6.8v-9.7h5.2v9.7h12v4.6
					h-12v20.3c0,2.2,0.5,3.8,1.4,5c1,1.2,2.2,1.8,3.9,1.8c2.9,0,5.8-0.6,8.6-1.9L1219.6,749.4z"/>
				<path class="st1" d="M1247.3,714.7c4.9,0,8.8,1.7,11.6,5.1c2.9,3.4,4.3,7.9,4.3,13.4c0,5.6-1.4,10.1-4.3,13.5
					c-2.9,3.4-6.8,5.1-11.6,5.1c-4.9,0-8.8-1.7-11.6-5.1c-2.9-3.4-4.3-7.9-4.3-13.6c0-5.6,1.4-10.1,4.3-13.5
					C1238.5,716.4,1242.4,714.7,1247.3,714.7z M1247.3,747.2c3.2,0,5.8-1.4,7.6-4.1c1.9-2.7,2.8-6,2.8-9.9c0-4.1-0.9-7.4-2.8-10.1
					c-1.8-2.6-4.4-3.9-7.7-3.9c-3.3,0-5.8,1.3-7.7,3.9c-1.8,2.6-2.7,6-2.7,10.1c0,3.9,0.9,7.3,2.8,9.9
					C1241.5,745.9,1244,747.2,1247.3,747.2z"/>
				<path class="st1" d="M1346.2,715.5l-13.4,35.4c-2,5.2-3.9,8.9-5.8,10.9c-1.9,2.1-4.1,3.1-6.5,3.1c-2.2,0-4.3-0.4-6.5-1.2
					l0.9-4.3c1.7,0.5,3.3,0.8,4.6,0.8c1.9,0,3.5-0.7,4.7-2.2c1.2-1.5,2.5-3.9,3.7-7.2l-13.3-35.4h5.8l10,28.3l10-28.3H1346.2z"/>
				<path class="st1" d="M1372.7,714.7c4.9,0,8.8,1.7,11.6,5.1s4.3,7.9,4.3,13.4c0,5.6-1.4,10.1-4.3,13.5s-6.8,5.1-11.6,5.1
					c-4.9,0-8.8-1.7-11.7-5.1c-2.9-3.4-4.3-7.9-4.3-13.6c0-5.6,1.4-10.1,4.3-13.5C1363.9,716.4,1367.8,714.7,1372.7,714.7z
					 M1372.7,747.2c3.2,0,5.8-1.4,7.6-4.1c1.9-2.7,2.8-6,2.8-9.9c0-4.1-0.9-7.4-2.8-10.1c-1.8-2.6-4.4-3.9-7.7-3.9
					c-3.3,0-5.8,1.3-7.7,3.9c-1.8,2.6-2.7,6-2.7,10.1c0,3.9,0.9,7.3,2.8,9.9C1366.9,745.9,1369.4,747.2,1372.7,747.2z"/>
				<path class="st1" d="M1428.2,751h-5.3v-5.2c-3.8,4.1-7.8,6.1-12,6.1c-6.6,0-10-4-10-12.1v-24.2h5.3v22.7c0,3,0.5,5.3,1.4,6.8
					s2.6,2.2,4.8,2.2c3.2,0,6.7-2,10.4-6.1v-25.6h5.3V751z"/>
				<path class="st1" d="M1470.6,716.5l-2.1,5.1c-2.3-1-4.4-1.5-6.1-1.5c-1.6,0-3.1,0.4-4.6,1.3c-1.5,0.9-2.9,2.2-4.1,3.8
					c-1.3,1.7-1.9,2.6-1.9,2.8V751h-5.3v-35.4h5.3v7.2c2.8-5.4,6.5-8,11-8C1465.5,714.7,1468.1,715.3,1470.6,716.5z"/>
				<path class="st1" d="M1526.1,703h9.5c6.3,0,11.3,2.1,15.1,6.4c3.8,4.3,5.7,10.1,5.7,17.6c0,7.6-1.9,13.5-5.8,17.7
					c-3.8,4.2-8.8,6.3-14.8,6.3h-9.7V703z M1531.7,746.1h3.9c4.6,0,8.2-1.7,10.8-5.1s4-8.1,4-14c0-5.9-1.3-10.6-4-14
					c-2.7-3.4-6.3-5.1-10.8-5.1h-3.9V746.1z"/>
				<path class="st1" d="M1596.3,751h-5.3c-0.4-1.4-0.6-3.3-0.6-5.7c-3,4.4-7.1,6.6-12.3,6.6c-2.6,0-4.9-0.9-7-2.8s-3-4.3-3-7.2
					c0-1.7,0.4-3.3,1.1-4.6s1.7-2.5,3.1-3.4c1.4-0.9,3-1.6,5-2.2c2-0.5,4.3-0.9,6.9-1.1l6-0.5v-1.7c0-6.1-2.8-9.1-8.5-9.1
					c-1.3,0-3,0.3-5.1,0.9c-2.1,0.6-3.8,1.3-5.3,2.1l-1.4-3.8c4.8-2.5,9.3-3.7,13.5-3.7c8.1,0,12.1,4.3,12.1,12.8v15.2
					C1595.4,745.8,1595.7,748.5,1596.3,751z M1590.1,740.4V734c-4.8,0.4-8.1,0.8-9.8,1.2s-3.3,1.1-4.6,2.1s-2,2.4-2,4.1
					c0,1.6,0.6,2.9,1.7,3.8c1.1,1,2.5,1.5,4.3,1.5c1.9,0,3.8-0.6,5.6-1.7C1587.1,744,1588.7,742.4,1590.1,740.4z"/>
				<path class="st1" d="M1637.6,749.4c-3.6,1.6-7.1,2.4-10.5,2.4c-6.3,0-9.5-3.3-9.5-10v-21.7h-6.8v-4.6h6.8v-9.7h5.2v9.7h12v4.6
					h-12v20.3c0,2.2,0.5,3.8,1.4,5s2.2,1.8,3.9,1.8c2.9,0,5.8-0.6,8.6-1.9L1637.6,749.4z"/>
				<path class="st1" d="M1679.9,751h-5.3c-0.4-1.4-0.6-3.3-0.6-5.7c-3,4.4-7.1,6.6-12.3,6.6c-2.6,0-4.9-0.9-7-2.8s-3-4.3-3-7.2
					c0-1.7,0.4-3.3,1.1-4.6s1.7-2.5,3.1-3.4c1.4-0.9,3-1.6,5-2.2c2-0.5,4.3-0.9,6.9-1.1l6-0.5v-1.7c0-6.1-2.8-9.1-8.5-9.1
					c-1.3,0-3,0.3-5.1,0.9c-2.1,0.6-3.8,1.3-5.3,2.1l-1.4-3.8c4.8-2.5,9.3-3.7,13.5-3.7c8.1,0,12.1,4.3,12.1,12.8v15.2
					C1679,745.8,1679.3,748.5,1679.9,751z M1673.7,740.4V734c-4.8,0.4-8.1,0.8-9.8,1.2s-3.3,1.1-4.6,2.1s-2,2.4-2,4.1
					c0,1.6,0.6,2.9,1.7,3.8c1.1,1,2.5,1.5,4.3,1.5c1.9,0,3.8-0.6,5.6-1.7C1670.7,744,1672.3,742.4,1673.7,740.4z"/>
			</g>
			<line class="st4" x1="599.3" y1="552.4" x2="1853.2" y2="552.4"/>
			<circle class="st5" cx="350.1" cy="426.7" r="96.3"/>
		</g>
	</g>
</g>
</svg>
