<?xml version="1.0" encoding="utf-8"?>
<!-- Generator: Adobe Illustrator 23.0.1, SVG Export Plug-In . SVG Version: 6.00 Build 0)  -->
<svg version="1.1" id="Laag_1" xmlns="http://www.w3.org/2000/svg" xmlns:xlink="http://www.w3.org/1999/xlink" x="0px" y="0px"
	 viewBox="0 0 463.1 439" style="enable-background:new 0 0 463.1 439;" xml:space="preserve">
<style type="text/css">
	.st0{enable-background:new    ;}
	.st1{fill:#FFFFFF;}
	.st2{fill:none;stroke:#FFFFFF;stroke-width:4.42;stroke-miterlimit:10;}
	.st3{fill:none;stroke:#FFFFFF;stroke-width:4.3;stroke-miterlimit:10;}
</style>
<title>Logo_symposium_withdpi</title>
<g>
	<g id="Tekst">
		<g id="Logo">
			<g class="st0">
				<path class="st1" d="M49.5,178.4H13.4v-7H28v-53.3L14.2,125v-8l14.8-7.6h6.9v62h13.6V178.4z"/>
				<path class="st1" d="M149.3,108.4c7.3,0,12.8,3.1,16.7,9.4c3.9,6.2,5.9,15,5.9,26.3c0,10.9-1.9,19.6-5.7,26
					c-3.8,6.4-9.4,9.6-16.9,9.6c-7.2,0-12.8-3.1-16.7-9.3c-3.9-6.2-5.9-15-5.9-26.3c0-11,1.9-19.6,5.7-26
					C136.2,111.6,141.8,108.4,149.3,108.4z M149.3,172.7c4.8,0,8.4-2.3,10.7-6.8c2.3-4.6,3.5-11.8,3.5-21.8c0-10-1.2-17.2-3.5-21.8
					s-5.9-6.8-10.7-6.8c-4.7,0-8.3,2.3-10.6,7c-2.3,4.6-3.5,11.8-3.5,21.6c0,9.9,1.2,17.1,3.5,21.7
					C141,170.4,144.5,172.7,149.3,172.7z M149.1,136.8c2,0,3.8,0.7,5.2,2.1c1.4,1.4,2.1,3.1,2.1,5.2c0,2.1-0.7,3.9-2.1,5.4
					c-1.4,1.5-3.1,2.3-5.2,2.3c-2,0-3.7-0.8-5.1-2.3c-1.4-1.5-2.1-3.3-2.1-5.4c0-2.1,0.7-3.8,2.1-5.2
					C145.3,137.5,147,136.8,149.1,136.8z"/>
			</g>
			<g class="st0">
				<path class="st1" d="M323.5,178.4h-61.6v-11.9h24.8v-91l-23.4,11.7V73.6l25.3-13h11.7v105.9h23.2V178.4z"/>
			</g>
			<g class="st0">
				<path class="st1" d="M29.8,227.9c7.3,0,12.8,3.1,16.7,9.4c3.9,6.2,5.9,15,5.9,26.3c0,10.9-1.9,19.6-5.7,26
					c-3.8,6.4-9.4,9.6-16.9,9.6c-7.2,0-12.8-3.1-16.7-9.3c-3.9-6.2-5.9-15-5.9-26.3c0-11,1.9-19.6,5.7-26
					C16.7,231.1,22.3,227.9,29.8,227.9z M29.8,292.1c4.8,0,8.4-2.3,10.7-6.8c2.3-4.6,3.5-11.8,3.5-21.8c0-10-1.2-17.2-3.5-21.8
					s-5.9-6.8-10.7-6.8c-4.7,0-8.3,2.3-10.6,7c-2.3,4.6-3.5,11.8-3.5,21.6c0,9.9,1.2,17.1,3.5,21.7C21.4,289.8,25,292.1,29.8,292.1z
					 M29.6,256.3c2,0,3.8,0.7,5.2,2.1c1.4,1.4,2.1,3.1,2.1,5.2c0,2.1-0.7,3.9-2.1,5.4c-1.4,1.5-3.1,2.3-5.2,2.3
					c-2,0-3.7-0.8-5.1-2.3c-1.4-1.5-2.1-3.3-2.1-5.4c0-2.1,0.7-3.8,2.1-5.2C25.8,257,27.5,256.3,29.6,256.3z"/>
				<path class="st1" d="M169,297.8h-36.1v-7h14.5v-53.3l-13.7,6.9v-8l14.8-7.6h6.9v62H169V297.8z"/>
				<path class="st1" d="M268.8,227.9c7.3,0,12.8,3.1,16.7,9.4s5.9,15,5.9,26.3c0,10.9-1.9,19.6-5.7,26c-3.8,6.4-9.4,9.6-16.9,9.6
					c-7.2,0-12.8-3.1-16.7-9.3c-3.9-6.2-5.9-15-5.9-26.3c0-11,1.9-19.6,5.7-26C255.7,231.1,261.3,227.9,268.8,227.9z M268.8,292.1
					c4.8,0,8.4-2.3,10.7-6.8c2.3-4.6,3.5-11.8,3.5-21.8c0-10-1.2-17.2-3.5-21.8s-5.9-6.8-10.7-6.8c-4.7,0-8.3,2.3-10.6,7
					c-2.3,4.6-3.5,11.8-3.5,21.6c0,9.9,1.2,17.1,3.5,21.7C260.5,289.8,264,292.1,268.8,292.1z M268.6,256.3c2,0,3.8,0.7,5.2,2.1
					c1.4,1.4,2.1,3.1,2.1,5.2c0,2.1-0.7,3.9-2.1,5.4c-1.4,1.5-3.1,2.3-5.2,2.3c-2,0-3.7-0.8-5.1-2.3c-1.4-1.5-2.1-3.3-2.1-5.4
					c0-2.1,0.7-3.8,2.1-5.2C264.8,257,266.5,256.3,268.6,256.3z"/>
			</g>
			<g class="st0">
				<path class="st1" d="M49.5,417.3H13.4v-7H28v-53.3l-13.7,6.9v-8l14.8-7.6h6.9v62h13.6V417.3z"/>
				<path class="st1" d="M149.3,347.4c7.3,0,12.8,3.1,16.7,9.4c3.9,6.2,5.9,15,5.9,26.3c0,10.9-1.9,19.6-5.7,26
					c-3.8,6.4-9.4,9.6-16.9,9.6c-7.2,0-12.8-3.1-16.7-9.3c-3.9-6.2-5.9-15-5.9-26.3c0-11,1.9-19.6,5.7-26
					C136.2,350.6,141.8,347.4,149.3,347.4z M149.3,411.6c4.8,0,8.4-2.3,10.7-6.8c2.3-4.6,3.5-11.8,3.5-21.8c0-10-1.2-17.2-3.5-21.8
					s-5.9-6.8-10.7-6.8c-4.7,0-8.3,2.3-10.6,7c-2.3,4.6-3.5,11.8-3.5,21.6c0,9.9,1.2,17.1,3.5,21.7
					C141,409.3,144.5,411.6,149.3,411.6z M149.1,375.7c2,0,3.8,0.7,5.2,2.1c1.4,1.4,2.1,3.1,2.1,5.2c0,2.1-0.7,3.9-2.1,5.4
					c-1.4,1.5-3.1,2.3-5.2,2.3c-2,0-3.7-0.8-5.1-2.3c-1.4-1.5-2.1-3.3-2.1-5.4c0-2.1,0.7-3.8,2.1-5.2
					C145.3,376.4,147,375.7,149.1,375.7z"/>
				<path class="st1" d="M288.5,417.3h-36.1v-7H267v-53.3l-13.7,6.9v-8l14.8-7.6h6.9v62h13.6V417.3z"/>
			</g>
			<path class="st2" d="M285.4,2.2h20.6c3,0.5,6.1,0.9,9.1,1.4c50.6,8.1,90.7,52.7,93.7,104.1c1.5,26.1-5,50-19.9,71.6
				c-1.4,2-1.1,3.1,0.5,4.7c23.9,23.8,47.7,47.6,71.4,71.4v1.1l-21.8,21.6c-2.8,2.7-2.8,2.7-5.5,0l-68.6-68.6
				c-2.8-2.8-2.7-2.7-5.9-0.6c-36.4,23.5-74.6,26.6-113.6,7.7c-45.8-22.3-70.3-70.6-61.2-120.9C192.1,53,217.5,24.1,258,8.4
				C266.8,5,276.1,3.5,285.4,2.2z"/>
			<circle class="st3" cx="296.8" cy="115.1" r="96.3"/>
		</g>
	</g>
</g>
</svg>
