<svg xmlns="http://www.w3.org/2000/svg" viewBox="0 0 463.11 439.04"><defs><style>.cls-1{font-size:99.57px;fill:#fff;font-family:AndaleMono, Andale Mono;}.cls-2{font-size:170px;}.cls-3,.cls-4{fill:none;stroke:#fff;stroke-miterlimit:10;}.cls-3{stroke-width:4.42px;}.cls-4{stroke-width:4.3px;}</style></defs><title>Logo_symposium_withdpi</title><g id="Laag_2" data-name="Laag 2"><g id="Tekst"><g id="Logo"><text class="cls-1" transform="translate(0 178.35)">1 0 <tspan class="cls-2" x="239" y="0">1</tspan><tspan x="0" y="119.48">0 1 0</tspan><tspan x="0" y="238.96">1 0 1</tspan></text><path class="cls-3" d="M285.43,2.21h20.65c3,.47,6.06.92,9.09,1.41,50.58,8.15,90.71,52.67,93.67,104.05,1.51,26.09-5,50-19.89,71.57-1.39,2-1.13,3.1.51,4.74q35.79,35.63,71.44,71.39v1.08l-21.79,21.6c-2.76,2.73-2.76,2.74-5.47,0l-68.57-68.56c-2.75-2.75-2.71-2.69-5.93-.62-36.44,23.46-74.65,26.58-113.56,7.66-45.76-22.25-70.29-70.62-61.2-120.88C192.1,53,217.53,24.07,258,8.44,266.82,5,276.1,3.47,285.43,2.21Z"/><circle class="cls-4" cx="296.78" cy="115.05" r="96.28"/></g></g></g></svg>