<?xml version="1.0" encoding="utf-8"?>
<!-- Generator: Adobe Illustrator 23.0.1, SVG Export Plug-In . SVG Version: 6.00 Build 0)  -->
<svg version="1.1" id="Laag_1" xmlns="http://www.w3.org/2000/svg" xmlns:xlink="http://www.w3.org/1999/xlink" x="0px" y="0px"
	 viewBox="0 0 463.6 439.5" style="enable-background:new 0 0 463.6 439.5;" xml:space="preserve">
<style type="text/css">
	.st0{enable-background:new    ;}
	.st1{fill:#1D1D1B;}
	.st2{fill:none;stroke:#1D1D1B;stroke-miterlimit:10;}
	.st3{fill:none;stroke:#1D1D1B;stroke-width:4.42;stroke-miterlimit:10;}
	.st4{fill:none;stroke:#1D1D1B;stroke-width:4.3;stroke-miterlimit:10;}
</style>
<title>Logohdpi</title>
<g>
	<g id="Tekst">
		<g id="Logo">
			<g class="st0">
				<path class="st1" d="M50,178.4H13.9v-7h14.5v-53.3L14.7,125v-8l14.8-7.6h6.9v62H50V178.4z"/>
				<path class="st1" d="M149.8,108.4c7.3,0,12.8,3.1,16.7,9.4c3.9,6.2,5.9,15,5.9,26.3c0,10.9-1.9,19.6-5.7,26
					c-3.8,6.4-9.4,9.6-16.9,9.6c-7.2,0-12.8-3.1-16.7-9.3c-3.9-6.2-5.9-15-5.9-26.3c0-11,1.9-19.6,5.7-26
					C136.7,111.6,142.3,108.4,149.8,108.4z M149.8,172.7c4.8,0,8.4-2.3,10.7-6.8c2.3-4.6,3.5-11.8,3.5-21.8c0-10-1.2-17.2-3.5-21.8
					s-5.9-6.8-10.7-6.8c-4.7,0-8.3,2.3-10.6,7c-2.3,4.6-3.5,11.8-3.5,21.6c0,9.9,1.2,17.1,3.5,21.7
					C141.5,170.4,145,172.7,149.8,172.7z M149.6,136.8c2,0,3.8,0.7,5.2,2.1c1.4,1.4,2.1,3.1,2.1,5.2c0,2.1-0.7,3.9-2.1,5.4
					c-1.4,1.5-3.1,2.3-5.2,2.3c-2,0-3.7-0.8-5.1-2.3c-1.4-1.5-2.1-3.3-2.1-5.4c0-2.1,0.7-3.8,2.1-5.2
					C145.8,137.5,147.5,136.8,149.6,136.8z"/>
			</g>
			<g class="st0">
				<path class="st2" d="M50,178.4H13.9v-7h14.5v-53.3L14.7,125v-8l14.8-7.6h6.9v62H50V178.4z"/>
				<path class="st2" d="M149.8,108.4c7.3,0,12.8,3.1,16.7,9.4c3.9,6.2,5.9,15,5.9,26.3c0,10.9-1.9,19.6-5.7,26
					c-3.8,6.4-9.4,9.6-16.9,9.6c-7.2,0-12.8-3.1-16.7-9.3c-3.9-6.2-5.9-15-5.9-26.3c0-11,1.9-19.6,5.7-26
					C136.7,111.6,142.3,108.4,149.8,108.4z M149.8,172.7c4.8,0,8.4-2.3,10.7-6.8c2.3-4.6,3.5-11.8,3.5-21.8c0-10-1.2-17.2-3.5-21.8
					s-5.9-6.8-10.7-6.8c-4.7,0-8.3,2.3-10.6,7c-2.3,4.6-3.5,11.8-3.5,21.6c0,9.9,1.2,17.1,3.5,21.7
					C141.5,170.4,145,172.7,149.8,172.7z M149.6,136.8c2,0,3.8,0.7,5.2,2.1c1.4,1.4,2.1,3.1,2.1,5.2c0,2.1-0.7,3.9-2.1,5.4
					c-1.4,1.5-3.1,2.3-5.2,2.3c-2,0-3.7-0.8-5.1-2.3c-1.4-1.5-2.1-3.3-2.1-5.4c0-2.1,0.7-3.8,2.1-5.2
					C145.8,137.5,147.5,136.8,149.6,136.8z"/>
			</g>
			<g class="st0">
				<path class="st1" d="M324,178.4h-61.6v-11.9h24.8v-91l-23.4,11.7V73.6l25.3-13h11.7v105.9H324V178.4z"/>
			</g>
			<g class="st0">
				<path class="st2" d="M324,178.4h-61.6v-11.9h24.8v-91l-23.4,11.7V73.6l25.3-13h11.7v105.9H324V178.4z"/>
			</g>
			<g class="st0">
				<path class="st1" d="M30.3,227.9c7.3,0,12.8,3.1,16.7,9.4c3.9,6.2,5.9,15,5.9,26.3c0,10.9-1.9,19.6-5.7,26
					c-3.8,6.4-9.4,9.6-16.9,9.6c-7.2,0-12.8-3.1-16.7-9.3c-3.9-6.2-5.9-15-5.9-26.3c0-11,1.9-19.6,5.7-26
					C17.2,231.1,22.8,227.9,30.3,227.9z M30.3,292.1c4.8,0,8.4-2.3,10.7-6.8c2.3-4.6,3.5-11.8,3.5-21.8c0-10-1.2-17.2-3.5-21.8
					s-5.9-6.8-10.7-6.8c-4.7,0-8.3,2.3-10.6,7c-2.3,4.6-3.5,11.8-3.5,21.6c0,9.9,1.2,17.1,3.5,21.7
					C21.9,289.8,25.5,292.1,30.3,292.1z M30.1,256.3c2,0,3.8,0.7,5.2,2.1c1.4,1.4,2.1,3.1,2.1,5.2c0,2.1-0.7,3.9-2.1,5.4
					c-1.4,1.5-3.1,2.3-5.2,2.3c-2,0-3.7-0.8-5.1-2.3c-1.4-1.5-2.1-3.3-2.1-5.4c0-2.1,0.7-3.8,2.1-5.2C26.3,257,28,256.3,30.1,256.3z
					"/>
				<path class="st1" d="M169.5,297.8h-36.1v-7H148v-53.3l-13.7,6.9v-8l14.8-7.6h6.9v62h13.6V297.8z"/>
				<path class="st1" d="M269.3,227.9c7.3,0,12.8,3.1,16.7,9.4s5.9,15,5.9,26.3c0,10.9-1.9,19.6-5.7,26c-3.8,6.4-9.4,9.6-16.9,9.6
					c-7.2,0-12.8-3.1-16.7-9.3c-3.9-6.2-5.9-15-5.9-26.3c0-11,1.9-19.6,5.7-26C256.2,231.1,261.8,227.9,269.3,227.9z M269.3,292.1
					c4.8,0,8.4-2.3,10.7-6.8c2.3-4.6,3.5-11.8,3.5-21.8c0-10-1.2-17.2-3.5-21.8s-5.9-6.8-10.7-6.8c-4.7,0-8.3,2.3-10.6,7
					c-2.3,4.6-3.5,11.8-3.5,21.6c0,9.9,1.2,17.1,3.5,21.7C261,289.8,264.5,292.1,269.3,292.1z M269.1,256.3c2,0,3.8,0.7,5.2,2.1
					c1.4,1.4,2.1,3.1,2.1,5.2c0,2.1-0.7,3.9-2.1,5.4c-1.4,1.5-3.1,2.3-5.2,2.3c-2,0-3.7-0.8-5.1-2.3c-1.4-1.5-2.1-3.3-2.1-5.4
					c0-2.1,0.7-3.8,2.1-5.2C265.3,257,267,256.3,269.1,256.3z"/>
			</g>
			<g class="st0">
				<path class="st2" d="M30.3,227.9c7.3,0,12.8,3.1,16.7,9.4c3.9,6.2,5.9,15,5.9,26.3c0,10.9-1.9,19.6-5.7,26
					c-3.8,6.4-9.4,9.6-16.9,9.6c-7.2,0-12.8-3.1-16.7-9.3c-3.9-6.2-5.9-15-5.9-26.3c0-11,1.9-19.6,5.7-26
					C17.2,231.1,22.8,227.9,30.3,227.9z M30.3,292.1c4.8,0,8.4-2.3,10.7-6.8c2.3-4.6,3.5-11.8,3.5-21.8c0-10-1.2-17.2-3.5-21.8
					s-5.9-6.8-10.7-6.8c-4.7,0-8.3,2.3-10.6,7c-2.3,4.6-3.5,11.8-3.5,21.6c0,9.9,1.2,17.1,3.5,21.7
					C21.9,289.8,25.5,292.1,30.3,292.1z M30.1,256.3c2,0,3.8,0.7,5.2,2.1c1.4,1.4,2.1,3.1,2.1,5.2c0,2.1-0.7,3.9-2.1,5.4
					c-1.4,1.5-3.1,2.3-5.2,2.3c-2,0-3.7-0.8-5.1-2.3c-1.4-1.5-2.1-3.3-2.1-5.4c0-2.1,0.7-3.8,2.1-5.2C26.3,257,28,256.3,30.1,256.3z
					"/>
				<path class="st2" d="M169.5,297.8h-36.1v-7H148v-53.3l-13.7,6.9v-8l14.8-7.6h6.9v62h13.6V297.8z"/>
				<path class="st2" d="M269.3,227.9c7.3,0,12.8,3.1,16.7,9.4s5.9,15,5.9,26.3c0,10.9-1.9,19.6-5.7,26c-3.8,6.4-9.4,9.6-16.9,9.6
					c-7.2,0-12.8-3.1-16.7-9.3c-3.9-6.2-5.9-15-5.9-26.3c0-11,1.9-19.6,5.7-26C256.2,231.1,261.8,227.9,269.3,227.9z M269.3,292.1
					c4.8,0,8.4-2.3,10.7-6.8c2.3-4.6,3.5-11.8,3.5-21.8c0-10-1.2-17.2-3.5-21.8s-5.9-6.8-10.7-6.8c-4.7,0-8.3,2.3-10.6,7
					c-2.3,4.6-3.5,11.8-3.5,21.6c0,9.9,1.2,17.1,3.5,21.7C261,289.8,264.5,292.1,269.3,292.1z M269.1,256.3c2,0,3.8,0.7,5.2,2.1
					c1.4,1.4,2.1,3.1,2.1,5.2c0,2.1-0.7,3.9-2.1,5.4c-1.4,1.5-3.1,2.3-5.2,2.3c-2,0-3.7-0.8-5.1-2.3c-1.4-1.5-2.1-3.3-2.1-5.4
					c0-2.1,0.7-3.8,2.1-5.2C265.3,257,267,256.3,269.1,256.3z"/>
			</g>
			<g class="st0">
				<path class="st1" d="M50,417.3H13.9v-7h14.5v-53.3l-13.7,6.9v-8l14.8-7.6h6.9v62H50V417.3z"/>
				<path class="st1" d="M149.8,347.4c7.3,0,12.8,3.1,16.7,9.4c3.9,6.2,5.9,15,5.9,26.3c0,10.9-1.9,19.6-5.7,26
					c-3.8,6.4-9.4,9.6-16.9,9.6c-7.2,0-12.8-3.1-16.7-9.3c-3.9-6.2-5.9-15-5.9-26.3c0-11,1.9-19.6,5.7-26
					C136.7,350.6,142.3,347.4,149.8,347.4z M149.8,411.6c4.8,0,8.4-2.3,10.7-6.8c2.3-4.6,3.5-11.8,3.5-21.8c0-10-1.2-17.2-3.5-21.8
					s-5.9-6.8-10.7-6.8c-4.7,0-8.3,2.3-10.6,7c-2.3,4.6-3.5,11.8-3.5,21.6c0,9.9,1.2,17.1,3.5,21.7
					C141.5,409.3,145,411.6,149.8,411.6z M149.6,375.7c2,0,3.8,0.7,5.2,2.1c1.4,1.4,2.1,3.1,2.1,5.2c0,2.1-0.7,3.9-2.1,5.4
					c-1.4,1.5-3.1,2.3-5.2,2.3c-2,0-3.7-0.8-5.1-2.3c-1.4-1.5-2.1-3.3-2.1-5.4c0-2.1,0.7-3.8,2.1-5.2
					C145.8,376.4,147.5,375.7,149.6,375.7z"/>
				<path class="st1" d="M289,417.3h-36.1v-7h14.5v-53.3l-13.7,6.9v-8l14.8-7.6h6.9v62H289V417.3z"/>
			</g>
			<g class="st0">
				<path class="st2" d="M50,417.3H13.9v-7h14.5v-53.3l-13.7,6.9v-8l14.8-7.6h6.9v62H50V417.3z"/>
				<path class="st2" d="M149.8,347.4c7.3,0,12.8,3.1,16.7,9.4c3.9,6.2,5.9,15,5.9,26.3c0,10.9-1.9,19.6-5.7,26
					c-3.8,6.4-9.4,9.6-16.9,9.6c-7.2,0-12.8-3.1-16.7-9.3c-3.9-6.2-5.9-15-5.9-26.3c0-11,1.9-19.6,5.7-26
					C136.7,350.6,142.3,347.4,149.8,347.4z M149.8,411.6c4.8,0,8.4-2.3,10.7-6.8c2.3-4.6,3.5-11.8,3.5-21.8c0-10-1.2-17.2-3.5-21.8
					s-5.9-6.8-10.7-6.8c-4.7,0-8.3,2.3-10.6,7c-2.3,4.6-3.5,11.8-3.5,21.6c0,9.9,1.2,17.1,3.5,21.7
					C141.5,409.3,145,411.6,149.8,411.6z M149.6,375.7c2,0,3.8,0.7,5.2,2.1c1.4,1.4,2.1,3.1,2.1,5.2c0,2.1-0.7,3.9-2.1,5.4
					c-1.4,1.5-3.1,2.3-5.2,2.3c-2,0-3.7-0.8-5.1-2.3c-1.4-1.5-2.1-3.3-2.1-5.4c0-2.1,0.7-3.8,2.1-5.2
					C145.8,376.4,147.5,375.7,149.6,375.7z"/>
				<path class="st2" d="M289,417.3h-36.1v-7h14.5v-53.3l-13.7,6.9v-8l14.8-7.6h6.9v62H289V417.3z"/>
			</g>
			<path class="st3" d="M285.9,2.2h20.6c3,0.5,6.1,0.9,9.1,1.4c50.6,8.1,90.7,52.7,93.7,104.1c1.5,26.1-5,50-19.9,71.6
				c-1.4,2-1.1,3.1,0.5,4.7c23.9,23.8,47.7,47.6,71.4,71.4v1.1l-21.8,21.6c-2.8,2.7-2.8,2.7-5.5,0c-22.9-22.8-45.7-45.7-68.6-68.6
				c-2.8-2.8-2.7-2.7-5.9-0.6c-36.4,23.5-74.6,26.6-113.6,7.7c-45.8-22.3-70.3-70.6-61.2-120.9C192.6,53,218,24.1,258.5,8.4
				C267.3,5,276.6,3.5,285.9,2.2z"/>
			<circle class="st4" cx="297.3" cy="115.1" r="96.3"/>
		</g>
	</g>
</g>
</svg>
