<svg xmlns="http://www.w3.org/2000/svg" viewBox="0 0 2560 1440"><defs><style>.cls-1{fill:#009598;}.cls-2{font-size:150.93px;}.cls-2,.cls-3,.cls-5{fill:#fff;font-family:AndaleMono, Andale Mono;}.cls-3{opacity:0.8;font-size:69.66px;}.cls-4,.cls-7,.cls-8{fill:none;stroke:#fff;stroke-miterlimit:10;}.cls-4{stroke-width:2.32px;}.cls-5{font-size:99.57px;}.cls-6{font-size:170px;}.cls-7{stroke-width:4.42px;}.cls-8{stroke-width:4.3px;}</style></defs><title>Middel 5hdpi</title><g id="Laag_2" data-name="Laag 2"><g id="Tekst"><rect id="Groen" class="cls-1" width="2560" height="1440"/><g id="Groen-2" data-name="Groen"><g id="Titel"><text class="cls-2" transform="translate(737.86 710.69)">Advanced Analytics</text><text class="cls-3" transform="translate(737.86 898.06)">Diving Deep into your Data</text><line class="cls-4" x1="737.86" y1="783.12" x2="2367.88" y2="783.12"/></g><g id="Logo"><text class="cls-5" transform="translate(191.86 677.73)">1 0 <tspan class="cls-6" x="239" y="0">1</tspan><tspan x="0" y="119.48">0 1 0</tspan><tspan x="0" y="238.96">1 0 1</tspan></text><path class="cls-7" d="M477.29,501.58h20.64c3,.47,6.07.92,9.1,1.41,50.57,8.15,90.7,52.67,93.67,104,1.51,26.09-5.05,50-19.9,71.57-1.39,2-1.13,3.1.52,4.74q35.77,35.64,71.44,71.39v1.08L631,777.42c-2.76,2.74-2.76,2.74-5.47,0l-68.56-68.57c-2.76-2.75-2.71-2.69-5.93-.62-36.44,23.46-74.66,26.58-113.57,7.67-45.76-22.26-70.29-70.63-61.2-120.89,7.73-42.72,33.15-71.61,73.61-87.24C458.67,504.4,468,502.84,477.29,501.58Z"/><circle class="cls-8" cx="488.63" cy="614.42" r="96.28"/></g></g></g></g></svg>