<svg xmlns="http://www.w3.org/2000/svg" viewBox="0 0 1920 1080"><defs><style>.cls-1{font-size:99.57px;}.cls-1,.cls-4,.cls-5{fill:#fff;font-family:AndaleMono, Andale Mono;}.cls-2{font-size:170px;}.cls-3,.cls-7,.cls-8{fill:none;stroke:#fff;stroke-miterlimit:10;}.cls-3{stroke-width:4.42px;}.cls-4{font-size:150.93px;}.cls-5{opacity:0.8;font-size:92.88px;}.cls-6{font-size:69.66px;}.cls-7{stroke-width:2.32px;}.cls-8{stroke-width:4.3px;}</style></defs><title>Middel 4hdpi</title><g id="Laag_2" data-name="Laag 2"><g id="Tekst"><rect id="Zwart" width="1920" height="1080"/><g id="Origineel"><text class="cls-1" transform="translate(53.35 489.99)">1 0 <tspan class="cls-2" x="239" y="0">1</tspan><tspan x="0" y="119.48">0 1 0</tspan><tspan x="0" y="238.96">1 0 1</tspan></text><path class="cls-3" d="M338.78,313.85h20.64c3,.47,6.07.92,9.1,1.41,50.58,8.15,90.71,52.67,93.67,104.05,1.51,26.09-5,50-19.9,71.57-1.39,2-1.12,3.1.52,4.73q35.78,35.64,71.44,71.39v1.09l-21.8,21.6c-2.75,2.73-2.75,2.74-5.46,0l-68.57-68.56c-2.75-2.76-2.71-2.7-5.93-.62-36.44,23.45-74.65,26.58-113.56,7.66-45.77-22.25-70.3-70.63-61.2-120.89,7.72-42.71,33.15-71.6,73.6-87.23C320.16,316.66,329.45,315.11,338.78,313.85Z"/><text class="cls-4" transform="translate(599.35 479.99)">Symposium 2020</text><text class="cls-5" transform="translate(599.35 667.36)">Advanced Analytics:<tspan class="cls-6"><tspan x="0" y="83.59">Diving Deep into your Data</tspan></tspan></text><line class="cls-7" x1="599.35" y1="552.42" x2="1853.21" y2="552.42"/><circle class="cls-8" cx="350.13" cy="426.68" r="96.28"/></g></g></g></svg>