<svg xmlns="http://www.w3.org/2000/svg" xmlns:xlink="http://www.w3.org/1999/xlink" viewBox="0 0 1685.75 636.99"><defs><style>.cls-1,.cls-10,.cls-11,.cls-12,.cls-13,.cls-14,.cls-15,.cls-16,.cls-17,.cls-18,.cls-19,.cls-2,.cls-20,.cls-21,.cls-22,.cls-23,.cls-24,.cls-25,.cls-26,.cls-27,.cls-28,.cls-29,.cls-3,.cls-30,.cls-31,.cls-32,.cls-33,.cls-34,.cls-35,.cls-36,.cls-37,.cls-38,.cls-39,.cls-4,.cls-40,.cls-41,.cls-42,.cls-43,.cls-44,.cls-45,.cls-46,.cls-47,.cls-48,.cls-49,.cls-5,.cls-50,.cls-51,.cls-52,.cls-53,.cls-54,.cls-55,.cls-56,.cls-57,.cls-58,.cls-59,.cls-6,.cls-60,.cls-61,.cls-62,.cls-63,.cls-64,.cls-65,.cls-66,.cls-67,.cls-68,.cls-69,.cls-7,.cls-70,.cls-71,.cls-72,.cls-73,.cls-74,.cls-75,.cls-76,.cls-77,.cls-78,.cls-79,.cls-8,.cls-80,.cls-9{fill:none;stroke-miterlimit:10;}.cls-1{stroke:url(#Naamloos_verloop_76);}.cls-2{stroke:url(#Naamloos_verloop_76-2);}.cls-3{stroke:url(#Naamloos_verloop_76-3);}.cls-4{stroke:url(#Naamloos_verloop_76-4);}.cls-5{stroke:url(#Naamloos_verloop_76-5);}.cls-6{stroke:url(#Naamloos_verloop_76-6);}.cls-7{stroke:url(#Naamloos_verloop_76-7);}.cls-8{stroke:url(#Naamloos_verloop_76-8);}.cls-9{stroke:url(#Naamloos_verloop_76-9);}.cls-10{stroke:url(#Naamloos_verloop_76-10);}.cls-11{stroke:url(#Naamloos_verloop_76-11);}.cls-12{stroke:url(#Naamloos_verloop_76-12);}.cls-13{stroke:url(#Naamloos_verloop_76-13);}.cls-14{stroke:url(#Naamloos_verloop_76-14);}.cls-15{stroke:url(#Naamloos_verloop_76-15);}.cls-16{stroke:url(#Naamloos_verloop_76-16);}.cls-17{stroke:url(#Naamloos_verloop_76-17);}.cls-18{stroke:url(#Naamloos_verloop_76-18);}.cls-19{stroke:url(#Naamloos_verloop_76-19);}.cls-20{stroke:url(#Naamloos_verloop_76-20);}.cls-21{stroke:url(#Naamloos_verloop_76-21);}.cls-22{stroke:url(#Naamloos_verloop_76-22);}.cls-23{stroke:url(#Naamloos_verloop_76-23);}.cls-24{stroke:url(#Naamloos_verloop_76-24);}.cls-25{stroke:url(#Naamloos_verloop_76-25);}.cls-26{stroke:url(#Naamloos_verloop_76-26);}.cls-27{stroke:url(#Naamloos_verloop_76-27);}.cls-28{stroke:url(#Naamloos_verloop_76-28);}.cls-29{stroke:url(#Naamloos_verloop_76-29);}.cls-30{stroke:url(#Naamloos_verloop_76-30);}.cls-31{stroke:url(#Naamloos_verloop_76-31);}.cls-32{stroke:url(#Naamloos_verloop_76-32);}.cls-33{stroke:url(#Naamloos_verloop_76-33);}.cls-34{stroke:url(#Naamloos_verloop_76-34);}.cls-35{stroke:url(#Naamloos_verloop_76-35);}.cls-36{stroke:url(#Naamloos_verloop_76-36);}.cls-37{stroke:url(#Naamloos_verloop_76-37);}.cls-38{stroke:url(#Naamloos_verloop_76-38);}.cls-39{stroke:url(#Naamloos_verloop_76-39);}.cls-40{stroke:url(#Naamloos_verloop_76-40);}.cls-41{stroke:url(#Naamloos_verloop_76-41);}.cls-42{stroke:url(#Naamloos_verloop_76-42);}.cls-43{stroke:url(#Naamloos_verloop_76-43);}.cls-44{stroke:url(#Naamloos_verloop_76-44);}.cls-45{stroke:url(#Naamloos_verloop_76-45);}.cls-46{stroke:url(#Naamloos_verloop_76-46);}.cls-47{stroke:url(#Naamloos_verloop_76-47);}.cls-48{stroke:url(#Naamloos_verloop_76-48);}.cls-49{stroke:url(#Naamloos_verloop_76-49);}.cls-50{stroke:url(#Naamloos_verloop_76-50);}.cls-51{stroke:url(#Naamloos_verloop_76-51);}.cls-52{stroke:url(#Naamloos_verloop_76-52);}.cls-53{stroke:url(#Naamloos_verloop_76-53);}.cls-54{stroke:url(#Naamloos_verloop_76-54);}.cls-55{stroke:url(#Naamloos_verloop_76-55);}.cls-56{stroke:url(#Naamloos_verloop_76-56);}.cls-57{stroke:url(#Naamloos_verloop_76-57);}.cls-58{stroke:url(#Naamloos_verloop_76-58);}.cls-59{stroke:url(#Naamloos_verloop_76-59);}.cls-60{stroke:url(#Naamloos_verloop_76-60);}.cls-61{stroke:url(#Naamloos_verloop_76-61);}.cls-62{stroke:url(#Naamloos_verloop_76-62);}.cls-63{stroke:url(#Naamloos_verloop_76-63);}.cls-64{stroke:url(#Naamloos_verloop_76-64);}.cls-65{stroke:url(#Naamloos_verloop_76-65);}.cls-66{stroke:url(#Naamloos_verloop_76-66);}.cls-67{stroke:url(#Naamloos_verloop_76-67);}.cls-68{stroke:url(#Naamloos_verloop_76-68);}.cls-69{stroke:url(#Naamloos_verloop_76-69);}.cls-70{stroke:url(#Naamloos_verloop_76-70);}.cls-71{stroke:url(#Naamloos_verloop_76-71);}.cls-72{stroke:url(#Naamloos_verloop_76-72);}.cls-73{stroke:url(#Naamloos_verloop_76-73);}.cls-74{stroke:url(#Naamloos_verloop_76-74);}.cls-75{stroke:url(#Naamloos_verloop_76-75);}.cls-76{stroke:url(#Naamloos_verloop_76-76);}.cls-77{stroke:url(#Naamloos_verloop_76-77);}.cls-78{stroke:url(#Naamloos_verloop_76-78);}.cls-79{stroke:url(#Naamloos_verloop_76-79);}.cls-80{stroke:url(#Naamloos_verloop_76-80);}</style><linearGradient id="Naamloos_verloop_76" y1="1736.47" x2="1684" y2="1736.47" gradientTransform="matrix(1, 0, 0, -1, 0, 1736.99)" gradientUnits="userSpaceOnUse"><stop offset="0.01" stop-color="#02577a"/><stop offset="0.24" stop-color="#025476"/><stop offset="0.47" stop-color="#024a6b"/><stop offset="0.69" stop-color="#023957"/><stop offset="0.91" stop-color="#01213c"/><stop offset="1" stop-color="#01162f"/></linearGradient><linearGradient id="Naamloos_verloop_76-2" y1="1721.16" x2="1684" y2="1721.16" xlink:href="#Naamloos_verloop_76"/><linearGradient id="Naamloos_verloop_76-3" y1="1707.42" x2="1684.01" y2="1707.42" xlink:href="#Naamloos_verloop_76"/><linearGradient id="Naamloos_verloop_76-4" x1="0.01" y1="1692.97" x2="1684.01" y2="1692.97" xlink:href="#Naamloos_verloop_76"/><linearGradient id="Naamloos_verloop_76-5" x1="0.02" y1="1678.95" x2="1684.02" y2="1678.95" xlink:href="#Naamloos_verloop_76"/><linearGradient id="Naamloos_verloop_76-6" x1="0.03" y1="1665.37" x2="1684.04" y2="1665.37" xlink:href="#Naamloos_verloop_76"/><linearGradient id="Naamloos_verloop_76-7" x1="0.05" y1="1651.86" x2="1684.05" y2="1651.86" xlink:href="#Naamloos_verloop_76"/><linearGradient id="Naamloos_verloop_76-8" x1="0.06" y1="1638.58" x2="1684.07" y2="1638.58" xlink:href="#Naamloos_verloop_76"/><linearGradient id="Naamloos_verloop_76-9" x1="0.08" y1="1625.45" x2="1684.09" y2="1625.45" xlink:href="#Naamloos_verloop_76"/><linearGradient id="Naamloos_verloop_76-10" x1="0.1" y1="1612.5" x2="1684.11" y2="1612.5" xlink:href="#Naamloos_verloop_76"/><linearGradient id="Naamloos_verloop_76-11" x1="0.13" y1="1599.66" x2="1684.14" y2="1599.66" xlink:href="#Naamloos_verloop_76"/><linearGradient id="Naamloos_verloop_76-12" x1="0.15" y1="1586.99" x2="1684.16" y2="1586.99" xlink:href="#Naamloos_verloop_76"/><linearGradient id="Naamloos_verloop_76-13" x1="0.18" y1="1574.41" x2="1684.19" y2="1574.41" xlink:href="#Naamloos_verloop_76"/><linearGradient id="Naamloos_verloop_76-14" x1="0.21" y1="1561.87" x2="1684.22" y2="1561.87" xlink:href="#Naamloos_verloop_76"/><linearGradient id="Naamloos_verloop_76-15" x1="0.24" y1="1549.42" x2="1684.25" y2="1549.42" xlink:href="#Naamloos_verloop_76"/><linearGradient id="Naamloos_verloop_76-16" x1="0.28" y1="1537.12" x2="1684.28" y2="1537.12" xlink:href="#Naamloos_verloop_76"/><linearGradient id="Naamloos_verloop_76-17" x1="0.31" y1="1523.93" x2="1684.31" y2="1523.93" xlink:href="#Naamloos_verloop_76"/><linearGradient id="Naamloos_verloop_76-18" x1="0.34" y1="1512.55" x2="1684.35" y2="1512.55" xlink:href="#Naamloos_verloop_76"/><linearGradient id="Naamloos_verloop_76-19" x1="0.38" y1="1500.42" x2="1684.39" y2="1500.42" xlink:href="#Naamloos_verloop_76"/><linearGradient id="Naamloos_verloop_76-20" x1="0.41" y1="1489.39" x2="1684.43" y2="1489.39" xlink:href="#Naamloos_verloop_76"/><linearGradient id="Naamloos_verloop_76-21" x1="0.46" y1="1478.88" x2="1684.47" y2="1478.88" xlink:href="#Naamloos_verloop_76"/><linearGradient id="Naamloos_verloop_76-22" x1="0.5" y1="1469.28" x2="1684.51" y2="1469.28" xlink:href="#Naamloos_verloop_76"/><linearGradient id="Naamloos_verloop_76-23" x1="0.55" y1="1461.09" x2="1684.55" y2="1461.09" xlink:href="#Naamloos_verloop_76"/><linearGradient id="Naamloos_verloop_76-24" x1="0.59" y1="1453.06" x2="1684.59" y2="1453.06" xlink:href="#Naamloos_verloop_76"/><linearGradient id="Naamloos_verloop_76-25" x1="0.63" y1="1443.84" x2="1684.64" y2="1443.84" xlink:href="#Naamloos_verloop_76"/><linearGradient id="Naamloos_verloop_76-26" x1="0.67" y1="1434.59" x2="1684.68" y2="1434.59" xlink:href="#Naamloos_verloop_76"/><linearGradient id="Naamloos_verloop_76-27" x1="0.72" y1="1425.37" x2="1684.73" y2="1425.37" xlink:href="#Naamloos_verloop_76"/><linearGradient id="Naamloos_verloop_76-28" x1="0.76" y1="1416.32" x2="1684.77" y2="1416.32" xlink:href="#Naamloos_verloop_76"/><linearGradient id="Naamloos_verloop_76-29" x1="0.81" y1="1409.49" x2="1684.82" y2="1409.49" xlink:href="#Naamloos_verloop_76"/><linearGradient id="Naamloos_verloop_76-30" x1="0.85" y1="1401.56" x2="1684.87" y2="1401.56" xlink:href="#Naamloos_verloop_76"/><linearGradient id="Naamloos_verloop_76-31" x1="0.9" y1="1393.76" x2="1684.92" y2="1393.76" xlink:href="#Naamloos_verloop_76"/><linearGradient id="Naamloos_verloop_76-32" x1="0.95" y1="1384.64" x2="1684.98" y2="1384.64" xlink:href="#Naamloos_verloop_76"/><linearGradient id="Naamloos_verloop_76-33" x1="0.99" y1="1376.68" x2="1685.03" y2="1376.68" xlink:href="#Naamloos_verloop_76"/><linearGradient id="Naamloos_verloop_76-34" x1="1.04" y1="1368.77" x2="1685.08" y2="1368.77" xlink:href="#Naamloos_verloop_76"/><linearGradient id="Naamloos_verloop_76-35" x1="1.09" y1="1360.94" x2="1685.13" y2="1360.94" xlink:href="#Naamloos_verloop_76"/><linearGradient id="Naamloos_verloop_76-36" x1="1.14" y1="1353.23" x2="1685.19" y2="1353.23" xlink:href="#Naamloos_verloop_76"/><linearGradient id="Naamloos_verloop_76-37" x1="1.19" y1="1345.64" x2="1685.24" y2="1345.64" xlink:href="#Naamloos_verloop_76"/><linearGradient id="Naamloos_verloop_76-38" x1="1.24" y1="1338.22" x2="1685.29" y2="1338.22" xlink:href="#Naamloos_verloop_76"/><linearGradient id="Naamloos_verloop_76-39" x1="1.29" y1="1330.99" x2="1685.34" y2="1330.99" xlink:href="#Naamloos_verloop_76"/><linearGradient id="Naamloos_verloop_76-40" x1="1.34" y1="1323.96" x2="1685.39" y2="1323.96" xlink:href="#Naamloos_verloop_76"/><linearGradient id="Naamloos_verloop_76-41" x1="1.39" y1="1317.17" x2="1685.44" y2="1317.17" xlink:href="#Naamloos_verloop_76"/><linearGradient id="Naamloos_verloop_76-42" x1="1.44" y1="1310.64" x2="1685.49" y2="1310.64" xlink:href="#Naamloos_verloop_76"/><linearGradient id="Naamloos_verloop_76-43" x1="1.48" y1="1304.53" x2="1685.53" y2="1304.53" xlink:href="#Naamloos_verloop_76"/><linearGradient id="Naamloos_verloop_76-44" x1="1.53" y1="1298.13" x2="1685.58" y2="1298.13" xlink:href="#Naamloos_verloop_76"/><linearGradient id="Naamloos_verloop_76-45" x1="1.56" y1="1291.72" x2="1685.61" y2="1291.72" xlink:href="#Naamloos_verloop_76"/><linearGradient id="Naamloos_verloop_76-46" x1="1.6" y1="1285.32" x2="1685.65" y2="1285.32" xlink:href="#Naamloos_verloop_76"/><linearGradient id="Naamloos_verloop_76-47" x1="1.62" y1="1278.97" x2="1685.67" y2="1278.97" xlink:href="#Naamloos_verloop_76"/><linearGradient id="Naamloos_verloop_76-48" x1="1.65" y1="1272.68" x2="1685.7" y2="1272.68" xlink:href="#Naamloos_verloop_76"/><linearGradient id="Naamloos_verloop_76-49" x1="1.67" y1="1266.49" x2="1685.71" y2="1266.49" xlink:href="#Naamloos_verloop_76"/><linearGradient id="Naamloos_verloop_76-50" x1="1.68" y1="1260.42" x2="1685.73" y2="1260.42" xlink:href="#Naamloos_verloop_76"/><linearGradient id="Naamloos_verloop_76-51" x1="1.69" y1="1254.5" x2="1685.74" y2="1254.5" xlink:href="#Naamloos_verloop_76"/><linearGradient id="Naamloos_verloop_76-52" x1="1.7" y1="1248.78" x2="1685.74" y2="1248.78" xlink:href="#Naamloos_verloop_76"/><linearGradient id="Naamloos_verloop_76-53" x1="1.71" y1="1243.25" x2="1685.75" y2="1243.25" xlink:href="#Naamloos_verloop_76"/><linearGradient id="Naamloos_verloop_76-54" x1="1.71" y1="1238.18" x2="1685.74" y2="1238.18" xlink:href="#Naamloos_verloop_76"/><linearGradient id="Naamloos_verloop_76-55" x1="1.7" y1="1233.07" x2="1685.74" y2="1233.07" xlink:href="#Naamloos_verloop_76"/><linearGradient id="Naamloos_verloop_76-56" x1="1.69" y1="1226.89" x2="1685.73" y2="1226.89" xlink:href="#Naamloos_verloop_76"/><linearGradient id="Naamloos_verloop_76-57" x1="1.68" y1="1221" x2="1685.72" y2="1221" xlink:href="#Naamloos_verloop_76"/><linearGradient id="Naamloos_verloop_76-58" x1="1.67" y1="1215.29" x2="1685.71" y2="1215.29" xlink:href="#Naamloos_verloop_76"/><linearGradient id="Naamloos_verloop_76-59" x1="1.66" y1="1209.72" x2="1685.69" y2="1209.72" xlink:href="#Naamloos_verloop_76"/><linearGradient id="Naamloos_verloop_76-60" x1="1.64" y1="1204.29" x2="1685.67" y2="1204.29" xlink:href="#Naamloos_verloop_76"/><linearGradient id="Naamloos_verloop_76-61" x1="1.62" y1="1199.01" x2="1685.65" y2="1199.01" xlink:href="#Naamloos_verloop_76"/><linearGradient id="Naamloos_verloop_76-62" x1="1.6" y1="1193.9" x2="1685.63" y2="1193.9" xlink:href="#Naamloos_verloop_76"/><linearGradient id="Naamloos_verloop_76-63" x1="1.57" y1="1188.97" x2="1685.6" y2="1188.97" xlink:href="#Naamloos_verloop_76"/><linearGradient id="Naamloos_verloop_76-64" x1="1.54" y1="1184.24" x2="1685.58" y2="1184.24" xlink:href="#Naamloos_verloop_76"/><linearGradient id="Naamloos_verloop_76-65" x1="1.51" y1="1179.7" x2="1685.55" y2="1179.7" xlink:href="#Naamloos_verloop_76"/><linearGradient id="Naamloos_verloop_76-66" x1="1.48" y1="1175.38" x2="1685.52" y2="1175.38" xlink:href="#Naamloos_verloop_76"/><linearGradient id="Naamloos_verloop_76-67" x1="1.45" y1="1171.05" x2="1685.5" y2="1171.05" xlink:href="#Naamloos_verloop_76"/><linearGradient id="Naamloos_verloop_76-68" x1="1.42" y1="1167.2" x2="1685.46" y2="1167.2" xlink:href="#Naamloos_verloop_76"/><linearGradient id="Naamloos_verloop_76-69" x1="1.39" y1="1163.84" x2="1685.43" y2="1163.84" xlink:href="#Naamloos_verloop_76"/><linearGradient id="Naamloos_verloop_76-70" x1="1.35" y1="1160.94" x2="1685.4" y2="1160.94" xlink:href="#Naamloos_verloop_76"/><linearGradient id="Naamloos_verloop_76-71" x1="1.31" y1="1158.29" x2="1685.37" y2="1158.29" xlink:href="#Naamloos_verloop_76"/><linearGradient id="Naamloos_verloop_76-72" x1="1.28" y1="1155.9" x2="1685.33" y2="1155.9" xlink:href="#Naamloos_verloop_76"/><linearGradient id="Naamloos_verloop_76-73" x1="1.24" y1="1153.76" x2="1685.3" y2="1153.76" xlink:href="#Naamloos_verloop_76"/><linearGradient id="Naamloos_verloop_76-74" x1="1.2" y1="1151.9" x2="1685.26" y2="1151.9" xlink:href="#Naamloos_verloop_76"/><linearGradient id="Naamloos_verloop_76-75" x1="1.16" y1="1150.3" x2="1685.22" y2="1150.3" xlink:href="#Naamloos_verloop_76"/><linearGradient id="Naamloos_verloop_76-76" x1="1.13" y1="1148.99" x2="1685.19" y2="1148.99" xlink:href="#Naamloos_verloop_76"/><linearGradient id="Naamloos_verloop_76-77" x1="1.09" y1="1147.96" x2="1685.15" y2="1147.96" xlink:href="#Naamloos_verloop_76"/><linearGradient id="Naamloos_verloop_76-78" x1="1.05" y1="1147.21" x2="1685.11" y2="1147.21" xlink:href="#Naamloos_verloop_76"/><linearGradient id="Naamloos_verloop_76-79" x1="1.01" y1="1146.77" x2="1685.07" y2="1146.77" xlink:href="#Naamloos_verloop_76"/><linearGradient id="Naamloos_verloop_76-80" x1="0.98" y1="1146.62" x2="1685.04" y2="1146.62" xlink:href="#Naamloos_verloop_76"/></defs><title>Golf_transparant_opdekophdpi</title><g id="Laag_2" data-name="Laag 2"><g id="design"><g id="_2xHorizontaal" data-name="2xHorizontaal"><path class="cls-1" d="M0,.5q842,.1,1684,0"/><path class="cls-2" d="M0,15.38q842,2.14,1684,0"/><path class="cls-3" d="M0,30c144.55.4,289.31-3.94,433.83-2.1,68.42.88,136.11,5.23,204.72,3.22s135.18-4.7,203.88-2.56c134.31,4.18,265.16-.94,399.19-.93,147.48,0,294.9,2.63,442.38,2.37"/><path class="cls-4" d="M0,44.45c139.77.2,281.06-8,420.66-3.94,71.35,2.07,140.22,9.7,212.16,5.84,72.63-3.9,138.93-8.44,212.25-4.58s145.22,8.58,219.06,6.31c65.15-2,128.24-8.44,193.78-8.44,142.11,0,284,4.9,426.09,4.81"/><path class="cls-5" d="M0,58.64c133.53-.14,271.7-12.71,404.77-6.12,75,3.72,144.63,15,220.93,8.89,78.6-6.26,142.93-12.82,223-6.91C927,60.29,1005,68.56,1084.58,64.3c65.38-3.5,126.81-13.38,193.07-13.43,135.66-.1,270.71,7.59,406.37,7.77"/><path class="cls-6" d="M0,72.61c126.38-.54,261.89-17.44,387.41-8.48C466.52,69.77,536.5,84.82,617.86,76.3,659.36,72,700,63.37,742.43,61.36c36.77-1.74,74.53,2.18,110.42,5.53,83.26,7.77,168.83,20.09,254,13.58,65.64-5,125.08-18.73,192.35-18.86,128.61-.26,256.13,10.51,384.79,11"/><path class="cls-7" d="M.05,86.35c119.15-.92,252-21.77,369.86-10.86,83.18,7.7,153.3,26.53,240,15.48,43.37-5.53,85.76-16.38,130.46-19.11,38.68-2.37,79.33,3.07,116.69,7.18,87.64,9.65,182,26.3,272.37,17.4,65.88-6.49,123.21-24.15,191.63-24.36,121.56-.38,241.32,13.48,363,14.27"/><path class="cls-8" d="M.07,99.87c112.66-1.21,242.28-25.49,353.39-13.11,87,9.69,157.17,32.1,249.06,18.62,45.3-6.64,89-19.4,136-23.06,40.11-3.12,84.14,4,122.42,8.73,91.39,11.34,194.88,32.23,289.71,21,66.1-7.82,121.32-29.26,190.92-29.53,115-.44,227.28,16.32,342.53,17.34"/><path class="cls-9" d="M.09,113.17c107.53-1.38,233.43-28.49,339.26-15.08,90.24,11.43,160.42,37,257,21.4C643.16,111.91,688.14,97.27,737,93c41.33-3.63,87.89,4.77,126.94,10,94.54,12.77,206.27,37.37,304.92,24.15,66.35-8.89,119.45-33.68,190.23-34,109.66-.46,215.08,18.81,325,20"/><path class="cls-10" d="M.11,126.24c56.48-.74,108.85-5.46,163.72-11.55,52-5.77,112.66-12.23,165-5,92.75,12.7,162.76,40.91,263.09,23.62,48-8.28,93.81-24.5,144-29.21,42-3.94,90.21,5.37,129.61,11,97.11,13.93,214.94,41.28,316.81,26.6,66.77-9.62,117.65-37,189.58-37.33,105.91-.44,205.82,20.75,312.12,21.9"/><path class="cls-11" d="M.13,139.09c55.86-.62,106.45-5.44,160.32-12.1,50.88-6.28,111.32-12.7,162.79-5.43,94.33,13.33,163.86,43.38,266.82,25.07,48.26-8.58,94.84-26.35,145.7-30.87,42.49-3.77,90.12,5.61,129.79,11.53,99.13,14.77,219.7,43.46,324.23,28.08,67.48-9.93,115.91-38.91,189-39.19,104.24-.39,200.71,21.91,305.37,22.91"/><path class="cls-12" d="M.16,151.73c55.68-.71,106.58-5.46,160.43-11.88,51-6.07,111-12.5,162.42-5.2C417.7,148.08,488.72,177,591.54,158.93c48.13-8.45,94.79-25.7,145.4-30.21,42.46-3.79,90.11,5.53,129.88,11.33,99,14.42,220.06,42.89,324.13,27.86,67.46-9.75,117-38.46,189.81-38.78,103.5-.46,199.5,21.52,303.4,22.6"/><path class="cls-13" d="M.18,164.14c103.47-1.39,223.45-28.55,325.31-15.2,95.5,12.52,170.91,38.26,272.75,21.5,48.13-7.92,94.44-23.08,144.55-27.72,42.17-3.9,90.49,5.17,130.27,10.55,98.6,13.33,218.21,40,321.1,26.3,67.64-9,120.87-35.88,193-36.24,101-.5,195.73,19.7,297.06,20.81"/><path class="cls-14" d="M.21,176.34c106.36-1.17,225-24,330.07-12.4,96.87,10.64,178.11,32.46,279.23,17.59,47.7-7,94.08-20.06,143.36-24.16,42.23-3.51,89.57,4.48,129.91,9.34,98.76,11.92,214.74,35.55,317,23.88,68.47-7.81,125.73-31.78,197.54-32.13,97.15-.48,189.45,16.93,286.91,17.88"/><path class="cls-15" d="M.24,188.32c110.3-.65,227.56-18,337.11-9,98.54,8.16,186.16,25.41,287,12.86,47.13-5.85,93.44-16.45,141.73-19.77,42.23-2.9,88,3.61,128.88,7.81,99,10.18,210.18,29.91,311.85,20.8,69.71-6.24,131.11-26.53,203-26.86,92.54-.43,181.58,13.47,274.36,14.12"/><path class="cls-16" d="M.28,200.08c114.7.07,232-11.3,346.34-5.16,100.37,5.39,194,17.54,295.34,7.65,46.41-4.53,92.44-12.44,139.61-14.83,42-2.13,86.06,2.68,127.26,6.07,98.95,8.13,205,23.52,305.74,17.25,71.11-4.42,136.52-20.51,208.85-20.84,87.62-.39,173.09,9.57,260.86,9.86"/><path class="cls-17" d="M.31,211.63c119.17.9,238.64-4.32,357.73-1.29,102.22,2.61,200.81,9.26,303.18,2.27,90.95-6.21,170.19-10.84,262-5.38,98.16,5.84,199.52,16.83,298.71,13.45,72.46-2.47,141.54-14.1,214.49-14.45,82.92-.4,164.87,5.47,247.84,5.4"/><path class="cls-18" d="M.35,223q185.45,2.55,371.21,2.38c103.78,0,206,.9,309.69-3,86.12-3.23,169.84-5,256.13-2,96.54,3.41,193.94,10.24,290.82,9.57,73.52-.5,145.8-7.69,219.42-8.1,79-.43,157.77,1.46,236.73,1.08"/><path class="cls-19" d="M.39,234.09c128.26,2.34,258.47,8.32,386.73,5.57,188.3-4,374.58-8.35,563.1-6.39,94.16,1,188.07,4.14,282.13,5.82,74.13,1.33,148.9-1.73,223.08-2.18,76.31-.47,152.63-2.2,229-2.82"/><path class="cls-20" d="M.42,245c133.39,2.64,271,13,404.25,8,104-3.93,210.89-14.2,315.08-11.79,81.43,1.89,159.3,5.59,241.09,4.43,166.4-2.35,331.35,6.34,497.62,5.32,75.46-.47,150.43-5.2,226-6"/><path class="cls-21" d="M.46,255.71c139.33,2.49,284.67,16,423.68,9.37,102-4.9,209.88-19.85,312.18-14.7,40.1,2,79.18,7.83,119.31,9.56,37.2,1.6,75.61-1.11,112.65-2.49,88.31-3.29,174.39-5.39,262.53-.47,73.9,4.13,150,7.13,224.46,6.74,76.78-.4,152.28-7.26,229.19-8"/><path class="cls-22" d="M.51,266.2c146.47,1.71,298.93,16.82,445,9.43,98.49-5,205.58-23.41,304.33-16.21C788,262.2,824.32,270,862.65,272c35.89,1.86,73.43-1.43,109-3.46,85.28-4.88,166.34-8.29,251.74-2.62,73,4.85,147.37,9.2,221.1,8.95,80.59-.28,159.34-8.13,240.07-8.69"/><path class="cls-23" d="M.55,276.48c154.09.34,312.2,14.07,465.87,7.12,94.19-4.26,198.46-23.71,292.61-15.26,36.07,3.24,69.68,12.12,106.09,14.36,34.47,2.11,71.17-1.47,105.11-3.85,82.08-5.75,158.13-9.58,240.61-3.91,71.21,4.9,142.48,9.21,214.47,9.09,86.91-.16,172.26-7.42,259.24-7.55"/><path class="cls-24" d="M.59,286.56c158.81-.77,320.32,8.62,478.74,2.31,91.83-3.66,194.61-20.79,285.88-11.46,34.75,3.55,67.3,12.46,102.4,15,33.16,2.41,68.74-1.38,101.39-3.8,78.34-5.81,151.17-10.07,230.09-4.86,68.86,4.54,137.58,8.29,207.1,8.25,93-.06,185.42-5.72,278.4-5.46"/><path class="cls-25" d="M.64,296.43c162.31-1.75,325.83,3,487.9-2.07,90.81-2.86,192.23-17.24,282-7.51,34.12,3.69,66.42,12.36,100.85,15.09,32.08,2.54,66.43-1.29,98-3.74,74.69-5.78,144.36-10.36,219.78-5.64,66.61,4.16,132.91,7.33,200.08,7.38,98.48.07,197-4,295.33-3.51"/><path class="cls-26" d="M.68,306.09c164.52-2.58,329.23-2.65,493.7-6,91-1.87,191.15-13.16,280.75-3.47,34.1,3.69,66.85,11.89,101.23,14.66,31.23,2.51,64.26-1.21,95.06-3.67,71.14-5.7,137.7-10.49,209.68-6.28,64.47,3.77,128.52,6.34,193.44,6.49,103.39.24,207-2.12,310.14-1.7"/><path class="cls-27" d="M.73,315.55c165.37-3.29,331-8.36,496.45-9.61,92-.69,191.3-8.64,281.81.66,34.65,3.56,68.42,11.06,103.31,13.75,30.58,2.35,62.24-1.13,92.43-3.6,67.7-5.55,131.22-10.45,199.84-6.77,62.44,3.35,124.39,5.33,187.17,5.58,50.12.2,100.1,1.4,150.17,2.28,58,1,114.95-2.39,172.82-2.29"/><path class="cls-28" d="M.77,324.81c164.89-3.87,331.43-14,496.52-12.83,93.72.65,192.59-3.77,284.9,4.83,35.7,3.33,71,9.94,106.89,12.43,30.08,2.09,60.39-1.07,90.12-3.52,64.42-5.31,124.92-10.27,190.3-7.12,60.51,2.91,120.51,4.28,181.26,4.66,52,.33,103.54,2.24,155.35,3.93,60.49,2,118.38-2.26,178.66-2.38"/><path class="cls-29" d="M.82,333.86C164,329.54,331.68,314.51,495,318.16c95.94,2.14,194.93,1.36,289.76,9,70.82,5.72,128.11,13.27,199.87,7.33,61.23-5.06,118.88-10,181.08-7.36,58.68,2.46,116.9,3.24,175.73,3.74,53.54.45,106.4,3.13,159.64,5.63,63,2.95,121-2.21,183.71-2.65"/><path class="cls-30" d="M.87,342.71c86.3-2.5,172.22-6.81,258.22-11.1,76.06-3.79,155.19-10.05,231.64-7.16,98.51,3.74,198.23,6.65,296.11,13.18,70.74,4.71,133,11.31,204.11,5.46,58.16-4.78,113.07-9.57,172.2-7.51,57,2,113.56,2.23,170.59,2.84,54.85.59,108.77,3.95,163.12,7.35,65.45,4.09,122.89-2.21,188-3.06"/><path class="cls-31" d="M.91,351.36c85.18-2.65,169.74-7.67,254.46-12.69,74.74-4.42,154.15-11.82,229.37-7.82,101.3,5.39,202.31,12,303.66,17.27,71.18,3.71,138.4,9.14,209.47,3.37,110.65-9,217.68-7.07,329.55-5.62,56,.73,110.65,4.88,165.87,9.08,68,5.16,124.07-2.24,191.62-3.59"/><path class="cls-32" d="M1,359.82c83.8-2.74,166.68-8.43,249.83-14.13,73.3-5,152.74-13.38,226.59-8.37,170.63,11.56,355.14,36.05,527.9,22.4,105.94-8.38,209.86-8.12,317.09-6.48,56.91.87,112.09,5.82,168,10.78,25.29,2.25,52.44,5.35,78.18,4.84,39.3-.79,76.83-8,116.45-9"/><path class="cls-33" d="M1,368.07c82.23-2.78,163.21-9.07,244.57-15.4,71.81-5.59,151-14.71,223.41-8.82,178.77,14.51,361.59,37.83,544,23.91,101.62-7.76,202.57-9.05,305.48-7.24,57.66,1,113.15,6.74,169.46,12.45,25.61,2.59,53.61,6.25,79.8,5.65,39.68-.91,77.26-9.14,117.29-10.55"/><path class="cls-34" d="M1.06,376.12c80.55-2.77,159.44-9.61,238.89-16.53,70.35-6.12,148.85-15.82,220-9.18,110.65,10.32,217.37,27.68,330.85,28.92,75.74.82,154.93,1.77,230.06-3.71q146.54-10.69,294.74-7.91c58.26,1.15,113.87,7.64,170.45,14,25.8,2.92,54.59,7.13,81.14,6.44,40-1,77.55-10.32,117.92-12.07"/><path class="cls-35" d="M1.11,384c78.83-2.72,155.53-10.06,233-17.52,69-6.65,146.49-16.74,216.35-9.48,113.93,11.84,222.67,32.55,340.49,32.48,78.12-.06,160.13-.81,237.65-6.15,94.2-6.5,189.55-10.58,284.92-8.51,58.72,1.28,114.29,8.51,171,15.56,25.93,3.23,55.43,8,82.26,7.19,40.29-1.16,77.71-11.49,118.36-13.57"/><path class="cls-36" d="M1.16,391.65c77.13-2.64,151.61-10.42,227.07-18.39,67.71-7.14,144-17.47,212.74-9.71,117.19,13.24,227.82,37.13,349.95,35.8,80.73-.87,165-3.36,245.23-8.52,91.14-5.88,183.82-11.2,276-9,59.07,1.39,114.47,9.32,171.15,17,26,3.51,56.14,8.74,83.19,7.89,40.53-1.28,77.76-12.61,118.64-15"/><path class="cls-37" d="M1.21,399.12C76.73,396.61,149,388.44,222.57,380,289.12,372.37,364,362,431.8,370.09c120.35,14.47,232.64,41.36,359,38.88,83.41-1.64,169.57-5.85,252.55-10.79,88.54-5.27,178.62-11.72,268.12-9.48,59.32,1.49,114.45,10.05,171,18.24,26,3.76,56.72,9.45,84,8.52,40.74-1.38,77.72-13.64,118.79-16.34"/><path class="cls-38" d="M1.26,406.4c74.09-2.34,144.26-10.89,216.07-19.72,65.53-8.07,138.94-18.51,205.93-10.09,123.33,15.5,237,45.18,367.27,41.66,86-2.33,173.66-8.22,259.39-12.88,86.39-4.7,174-12.16,261.23-9.87,59.49,1.56,114.26,10.7,170.67,19.36,26,4,57.23,10.09,84.61,9.1,40.93-1.48,77.61-14.6,118.83-17.56"/><path class="cls-39" d="M1.3,413.48c72.9-2.13,141.09-11,211.4-20.21,64.67-8.44,136.64-18.85,203-10.26,126,16.31,240.75,48.54,374.56,44.13,88.46-2.91,177.23-10.4,265.54-14.74,84.78-4.17,169.79-12.3,255.37-10.21,59.55,1.46,114.06,11.27,170.18,20.32,26,4.19,57.66,10.63,85.18,9.59,41.1-1.55,77.43-15.43,118.78-18.62"/><path class="cls-40" d="M1.35,420.37c72-1.9,138.49-11.05,207.55-20.58,63.87-8.81,134.73-19.08,200.53-10.45C537.79,406.19,653.16,440.7,790,435.59c63.7-2.39,125.34-11.16,188.7-14.24,27.25-1.33,54.74-.87,82-2.08,83.47-3.69,166.36-12.58,250.61-10.49,59.62,1.48,113.67,11.69,169.59,21.07,26,4.36,58.07,11.08,85.71,10,41.29-1.59,77.21-16.13,118.7-19.49"/><path class="cls-41" d="M1.4,427.08c71.38-1.63,136.57-11,204.74-20.85,63.2-9.14,133.28-19.23,198.67-10.66,130.81,17.14,245.31,52.75,385.05,48,65.1-2.23,127.62-12.3,192.25-15.63,27.36-1.41,55.07-.82,82.5-1.91,82.56-3.27,163.59-12.78,247-10.73,59.68,1.47,113.25,12,169,21.61,26,4.49,58.45,11.41,86.23,10.33,41.47-1.61,77-16.66,118.59-20.12"/><path class="cls-42" d="M1.45,433.59c71.2-1.33,135.48-10.88,203.18-21,62.69-9.39,132.4-19.3,197.53-10.91,132.12,17,246.31,54.24,387.68,49.27,65.93-2.32,128.91-13.21,194.31-16.65,27.51-1.44,55.46-.74,83.07-1.72,82-2.93,161.53-12.9,244.46-10.93,59.74,1.43,112.83,12.12,168.49,21.9,26.12,4.6,58.84,11.63,86.8,10.56,41.65-1.59,76.69-17,118.48-20.5"/><path class="cls-43" d="M1.49,440c131.7-2.11,269.09-48.76,400.45-32,132.21,16.87,246.56,54.31,388,49.45,66-2.26,128.85-13.23,194.23-16.75,27.6-1.48,55.68-.72,83.38-1.66,82.07-2.79,160.91-13.09,243.94-11.12,59.78,1.42,112.79,12.11,168.49,21.93,26.2,4.62,59.06,11.71,87.13,10.67,41.7-1.55,76.65-17.05,118.43-20.55"/><path class="cls-44" d="M1.53,446.45c132.79-2,268.51-48.64,401.21-31.78,131.29,16.69,246.5,52.87,386.45,48.46,65.25-2.05,127.65-12.32,192.31-15.87,27.61-1.52,55.64-.78,83.35-1.76,82.53-2.91,161.51-13.73,245.08-11.66,60,1.49,113.6,12.16,169.59,22,26.35,4.62,59.35,11.82,87.54,10.82,41.6-1.48,76.88-16.85,118.47-20.42"/><path class="cls-45" d="M1.57,453.1c134.14-1.88,267.94-48.29,402.33-31.66,129.44,16,246.36,51.53,383.8,47,64.09-2.11,125.67-11.13,189.24-14.54,27.63-1.49,55.61-.81,83.32-1.86,83.23-3.16,162.54-14.77,246.93-12.59,60.5,1.56,115,12.28,171.49,22.12,26.61,4.63,59.88,12,88.32,11,41.51-1.4,77.13-16.58,118.57-20.17"/><path class="cls-46" d="M1.6,459.87c135.66-1.74,267.46-47.73,403.76-31.62,127.95,15.12,245.17,48.7,380.16,45.2,89.58-2.32,179-11.05,268.51-14.79,84.15-3.51,164-16.1,249.45-13.82,61.18,1.63,116.76,12.45,174,22.33,27,4.65,60.64,12.15,89.42,11.26,41.43-1.3,77.41-16.25,118.7-19.83"/><path class="cls-47" d="M1.63,466.75c137.28-1.61,267.1-47,405.44-31.7,126.23,14,243.49,45.42,375.69,43.12,87.5-1.52,176.37-8.86,263.7-12.89,85.28-3.93,165.83-17.64,252.61-15.27,62,1.7,118.84,12.64,176.94,22.56,27.41,4.68,61.54,12.34,90.75,11.51,41.36-1.17,77.7-15.84,118.87-19.38"/><path class="cls-48" d="M1.65,473.73c138.93-1.5,266.9-46.27,407.32-31.91,124.35,12.72,241.36,41.8,370.54,40.86,85.24-.63,173.38-6.46,258.33-10.77,86.58-4.4,168.08-19.3,256.37-16.85,62.9,1.75,121.1,12.8,180.15,22.75,27.92,4.71,62.53,12.52,92.21,11.77,41.31-1.05,78-15.38,119.08-18.85"/><path class="cls-49" d="M1.67,480.78c140.54-1.42,266.91-45.49,409.34-32.25,122.36,11.37,238.83,38,364.89,38.48,82.87.34,170.05-3.92,252.57-8.49,88.06-4.88,170.73-21,260.68-18.47,63.84,1.78,123.42,12.91,183.48,22.88,28.45,4.72,63.53,12.64,93.71,12,41.27-.91,78.33-14.85,119.33-18.24"/><path class="cls-50" d="M1.69,487.89c142.06-1.39,267.13-44.77,411.45-32.75,120.33,10,235.94,34.08,358.87,36.11,80.59,1.32,166.41-1.41,246.66-6.15,89.7-5.31,173.7-22.59,265.49-20.06,64.75,1.79,125.68,12.95,186.73,22.89,29,4.72,64.5,12.71,95.19,12.14,41.24-.75,78.66-14.26,119.61-17.54"/><path class="cls-51" d="M1.7,495c143.45-1.43,267.57-44.22,413.6-33.42,118.3,8.74,232.76,30.25,352.65,33.8,78.44,2.33,162.61,1.1,240.77-3.8,91.31-5.73,177.2-24.33,270.78-21.51,65.67,2,127.58,12.84,189.73,22.73,29.54,4.71,65.38,12.69,96.55,12.24,41.23-.6,79-13.64,119.92-16.78"/><path class="cls-52" d="M1.71,502.21c144.71-1.54,268.18-43.92,415.74-34.27,116.32,7.6,229.37,26.61,346.38,31.66,76.53,3.31,158.71,3.47,235.09-1.52,93.21-6.09,180.89-25.55,276.5-22.77,66.37,1.94,129.32,12.62,192.32,22.38,30.56,4.73,65.55,12.1,97.71,12.23,40.76.16,79.83-13,120.26-16"/><path class="cls-53" d="M1.71,509.38c145.86-1.75,268.88-44,417.81-35.32C610,485.17,795.59,517.38,989.58,504.44c95.25-6.35,184.86-26.41,282.6-23.72,66.88,1.85,130.65,12.23,194.33,21.77,31,4.65,66.08,11.85,98.58,12.1,40.8.32,80.15-12.28,120.62-15.07"/><path class="cls-54" d="M1.71,516.53c76.77-1.08,144.66-13.65,216.78-25.46,68.28-11.19,131.51-14.94,203-11.12,185.64,9.91,371.17,43.3,559.53,30.75,97.46-6.49,189.07-26.83,289-24.3,67.13,1.7,131.43,11.63,195.58,20.87,31.4,4.52,66.31,11.39,99.09,11.83,40.78.55,80.53-11.53,121-14.14"/><path class="cls-55" d="M1.71,523.65c77.38-1.31,145.61-14.4,218.12-26.57,68.69-11.54,131.42-15.19,203.42-11.49,181.66,9.32,366.39,43.18,550.22,31.24,99.82-6.48,193.51-26.69,295.79-24.42,67.09,1.5,131.55,10.81,195.91,19.63,31.62,4.34,66.27,10.84,99.13,11.41,40.85.7,80.85-10.75,121.41-13.16"/><path class="cls-56" d="M1.7,530.71c78-1.62,146.49-15.28,219.32-27.9,69-11.95,131.26-15.71,203.77-11.88,109.45,5.78,215.85,16.95,324,26.53,72.19,6.39,145.44,9.85,218.49,5.36,102.39-6.29,198.1-25.71,302.79-24,66.64,1.1,131,9.74,195.15,18,31.69,4.08,65.86,10.11,98.63,10.79,40.94.85,81.16-9.94,121.83-12.15"/><path class="cls-57" d="M1.7,537.71C80.33,535.8,149,521.4,222.05,508.21c69.26-12.49,131-16.5,204.07-12.38,107.93,6.08,212.7,16.79,319.3,26.78,72.1,6.76,144.6,10.18,217.69,5.8,104.55-6.27,202.06-25.57,308.85-24.13,66.1.89,129.72,9,193.52,17,31.62,4,65.29,9.57,97.91,10.41,41.07,1,81.46-9.21,122.31-11.15"/><path class="cls-58" d="M1.68,544.61c79.39-2.13,148-17.35,221.39-31.2,69.42-13.1,130.82-17.33,204.35-13,106.39,6.3,209.33,17.25,314.28,27.53,72.36,7.09,145,10.31,218.37,5.71,106.09-6.65,204.57-26.7,313.06-25.42,65.76.78,128.73,9,192.11,17.1,31.55,4,64.92,9.47,97.49,10.48,41.27,1.28,81.85-8.69,123-10.37"/><path class="cls-59" d="M1.67,551.41c80.16-2.36,148.85-18.43,222.44-32.94,69.55-13.71,130.58-18.21,204.61-13.56,104.85,6.59,206,17.85,309.34,28.39,72.75,7.42,145.64,10.48,219.46,5.58,107.31-7.11,206.36-28.08,316.28-26.89,65.51.71,127.93,9.19,190.92,17.41,31.49,4.11,64.66,9.48,97.19,10.64,41.52,1.48,82.36-8.31,123.76-9.79"/><path class="cls-60" d="M1.65,558.07c80.94-2.59,149.68-19.51,223.5-34.68C294.8,509.07,355.5,504.25,430,509.25c103.33,6.93,202.71,18.57,304.48,29.35,73.28,7.75,146.58,10.67,220.94,5.4,108.22-7.67,207.47-29.66,318.6-28.51,65.33.67,127.27,9.45,189.92,17.9,31.44,4.23,64.47,9.61,97,10.88,41.8,1.64,83-8.06,124.69-9.4"/><path class="cls-61" d="M1.64,564.6C83.35,561.75,152.15,544,226.2,528.15c69.71-14.91,130.13-20.11,205.09-14.71,101.82,7.32,199.48,19.41,299.72,30.39,73.92,8.09,147.75,10.9,222.75,5.19,108.86-8.29,208-31.44,320.08-30.28,65.24.68,126.77,9.85,189.12,18.57,31.38,4.39,64.35,9.83,96.91,11.21,42.15,1.77,83.68-7.94,125.77-9.18"/><path class="cls-62" d="M1.61,571c82.5-3.1,151.36-21.72,225.64-38.21,69.74-15.49,129.91-21.11,205.31-15.28,100.32,7.76,196.3,20.36,295.05,31.51,74.67,8.43,149.16,11.15,224.88,4.94,109.23-8.95,207.91-33.38,320.8-32.15,65.21.71,126.4,10.34,188.47,19.39,31.35,4.57,64.31,10.14,96.92,11.59,42.52,1.89,84.47-7.92,126.93-9.11"/><path class="cls-63" d="M1.59,577.13c83.28-3.34,152.21-22.82,226.7-40C298,521.11,358,515,433.81,521.35,532.64,529.57,627,542.74,724.3,554c75.51,8.77,150.77,11.44,227.28,4.67,109.36-9.67,207.33-35.46,320.83-34.13,65.24.77,126.16,10.93,188,20.35,31.31,4.77,64.31,10.53,97,12,42.92,2,85.32-8,128.19-9.19"/><path class="cls-64" d="M1.56,583.11c84.06-3.6,153.07-23.93,227.76-41.71C299,524.8,358.87,518.24,435,525.06c97.37,8.72,190.16,22.5,286.06,33.91,76.42,9.09,152.56,11.73,229.91,4.36,109.27-10.42,206.28-37.65,320.25-36.17,65.33.85,126,11.6,187.64,21.42,31.27,5,64.36,11,97.16,12.51,43.34,2,86.23-8.15,129.51-9.39"/><path class="cls-65" d="M1.54,588.87c84.82-3.84,153.92-25,228.8-43.44C300,528.31,359.73,521.24,436.23,528.6c95.91,9.22,187.21,23.66,281.76,35.16,77.38,9.42,154.5,12.07,232.74,4,109-11.18,204.82-39.92,319.1-38.26,65.48,1,126,12.34,187.43,22.59,31.24,5.21,64.46,11.47,97.38,13,43.79,2.09,87.18-8.39,130.9-9.7"/><path class="cls-66" d="M1.51,594.39c85.59-4.08,154.76-26.1,229.82-45.13C300.88,531.63,360.6,524,437.4,532,531.88,541.7,621.75,556.83,715,568.4c78.39,9.73,156.6,12.41,235.73,3.7,108.51-12,203-42.25,317.5-40.38,65.66,1.07,126.09,13.13,187.31,23.82,31.21,5.45,64.59,12,97.66,13.59,44.25,2.12,88.17-8.69,132.32-10.11"/><path class="cls-67" d="M1.48,599.66c158.87-7.93,270.43-82.92,437.06-64.53,93.07,10.26,181.59,26.11,273.57,37.73,79.43,10,158.8,12.78,238.84,3.34,107.9-12.71,200.89-44.59,315.48-42.5,65.89,1.2,126.24,14,187.3,25.11,31.19,5.7,64.75,12.59,98,14.17,44.71,2.13,89.18-9,133.76-10.59"/><path class="cls-68" d="M1.45,604.65c159.26-8.27,270.9-86.23,438.2-66.55,91.68,10.79,178.92,27.38,269.7,39,80.48,10.33,161.11,13.15,242,3,107.16-13.47,198.53-47,313.14-44.63,66.16,1.34,126.46,14.83,187.37,26.45,31.16,5.94,64.94,13.18,98.36,14.75,45.18,2.13,90.2-9.43,135.2-11.14"/><path class="cls-69" d="M1.41,609.35c159.6-8.58,271.44-89.44,439.3-68.47C608,561.79,776.67,607.2,952,583.79c106.33-14.2,196-49.26,310.54-46.7,66.41,1.48,126.77,15.67,187.5,27.78,31.11,6.21,65.17,13.79,98.76,15.35,45.64,2.12,91.21-9.86,136.62-11.73"/><path class="cls-70" d="M1.38,613.74c159.88-8.84,272-92.54,440.35-70.28,167,22.07,335.21,68.62,511,43.77,105.42-14.9,193.25-51.5,307.74-48.71,66.72,1.62,127.08,16.55,187.68,29.12,31.1,6.44,65.4,14.39,99.19,15.93,46.09,2.1,92.2-10.3,138-12.36"/><path class="cls-71" d="M1.34,617.8c160.17-9.06,272.52-95.49,441.37-72C609.44,569,777.25,616.7,953.61,590.43c104.49-15.56,190.45-53.67,304.85-50.65,67,1.76,127.4,17.41,187.89,30.42,31.08,6.69,65.64,15,99.63,16.51,46.53,2.08,93.17-10.75,139.36-13"/><path class="cls-72" d="M1.31,621.51c160.49-9.23,273-98.25,442.32-73.55,166.53,24.29,334,73,510.93,45.4,103.56-16.18,187.61-55.72,301.89-52.49,67.38,1.9,127.74,18.25,188.14,31.69,31.06,6.91,65.87,15.57,100.07,17.06,47,2,94.09-11.21,140.65-13.65"/><path class="cls-73" d="M1.27,624.85c160.88-9.34,273.33-100.81,443.23-75C610.89,575.18,777.9,625,955.56,596c102.66-16.74,184.77-57.63,299-54.21,67.71,2,128.06,19.05,188.39,32.89,31,7.13,66.1,16.12,100.51,17.59,47.35,2,95-11.66,141.84-14.29"/><path class="cls-74" d="M1.23,627.82c161.38-9.41,273.52-103.15,444.09-76.26,166.33,26.22,332.86,77,511.26,46.81,101.83-17.26,182-59.38,296.14-55.78,68,2.15,128.37,19.78,188.63,34,31,7.33,66.34,16.63,100.94,18.06,47.72,2,95.75-12.08,142.94-14.88"/><path class="cls-75" d="M1.19,630.38C163.23,621,274.68,525.16,446.07,553c166.37,27,332.32,78.79,511.51,47.41,101.11-17.71,179.36-60.93,293.49-57.18,68.38,2.25,128.63,20.44,188.85,35,31,7.51,66.56,17.08,101.35,18.49,48.06,2,96.46-12.47,143.92-15.44"/><path class="cls-76" d="M1.15,632.51c162.89-9.35,273.2-107,445.61-78.31,166.53,27.69,331.74,80.34,511.78,47.93,100.52-18.09,176.88-62.27,291.09-58.4,68.68,2.33,128.83,21,189,35.89,31,7.68,66.76,17.47,101.73,18.87,48.36,1.93,97.07-12.82,144.77-15.94"/><path class="cls-77" d="M1.12,634.21c92.38-5.2,162.25-35.36,238.25-59.48,69.79-22.16,128.17-33.09,208-19.59,166.81,28.22,331.07,81.66,512,48.37,100.1-18.42,174.62-63.36,289-59.41,69,2.38,129,21.47,189.14,36.63,31,7.82,66.94,17.79,102.09,19.17,48.61,1.91,97.56-13.12,145.47-16.35"/><path class="cls-78" d="M1.08,635.45c92.78-5.07,162.67-35.81,238.62-60.19,70.24-22.55,127.9-33.16,208.24-19.43,167.24,28.57,330.32,82.7,512.27,48.7,99.89-18.67,172.65-64.18,287.28-60.18,69.24,2.41,129,21.82,189.2,37.2,31.07,7.94,67.1,18,102.39,19.4,48.83,1.9,97.92-13.35,146-16.68"/><path class="cls-79" d="M1,636.22c93.13-4.89,163-36.18,238.91-60.78,70.79-22.94,127.55-33,208.47-19.19,38.36,6.57,77,12.64,114.22,20.74,42.75,9.3,80.62,22,125.82,28.56,88.93,12.86,184.8,16.15,272.39-.37,99.92-18.84,171-64.7,286-60.71,69.48,2.41,129,22,189.18,37.59,31.1,8,67.21,18.18,102.63,19.55,49,1.9,98.15-13.51,146.35-16.9"/><path class="cls-80" d="M1,636.49c93.42-4.65,163.31-36.45,239.1-61.21,71.48-23.35,127.16-32.77,208.72-18.88,38.34,6.53,76.93,12.6,114.06,20.75,42.44,9.32,79.8,22.23,124.69,28.8,89.12,13,186,16.08,273.76-.5,100.21-18.93,169.78-64.91,285.3-61,69.68,2.37,128.82,22.09,189.07,37.76,31.13,8.11,67.29,18.24,102.81,19.61,49.1,1.91,98.21-13.59,146.49-17"/></g></g></g></svg>