<svg xmlns="http://www.w3.org/2000/svg" xmlns:xlink="http://www.w3.org/1999/xlink" viewBox="0 0 1685.75 636.99"><defs><style>.cls-1,.cls-10,.cls-11,.cls-12,.cls-13,.cls-14,.cls-15,.cls-16,.cls-17,.cls-18,.cls-19,.cls-2,.cls-20,.cls-21,.cls-22,.cls-23,.cls-24,.cls-25,.cls-26,.cls-27,.cls-28,.cls-29,.cls-3,.cls-30,.cls-31,.cls-32,.cls-33,.cls-34,.cls-35,.cls-36,.cls-37,.cls-38,.cls-39,.cls-4,.cls-40,.cls-41,.cls-42,.cls-43,.cls-44,.cls-45,.cls-46,.cls-47,.cls-48,.cls-49,.cls-5,.cls-50,.cls-51,.cls-52,.cls-53,.cls-54,.cls-55,.cls-56,.cls-57,.cls-58,.cls-59,.cls-6,.cls-60,.cls-61,.cls-62,.cls-63,.cls-64,.cls-65,.cls-66,.cls-67,.cls-68,.cls-69,.cls-7,.cls-70,.cls-71,.cls-72,.cls-73,.cls-74,.cls-75,.cls-76,.cls-77,.cls-78,.cls-79,.cls-8,.cls-80,.cls-9{fill:none;stroke-miterlimit:10;}.cls-1{stroke:url(#Naamloos_verloop_76);}.cls-2{stroke:url(#Naamloos_verloop_76-2);}.cls-3{stroke:url(#Naamloos_verloop_76-3);}.cls-4{stroke:url(#Naamloos_verloop_76-4);}.cls-5{stroke:url(#Naamloos_verloop_76-5);}.cls-6{stroke:url(#Naamloos_verloop_76-6);}.cls-7{stroke:url(#Naamloos_verloop_76-7);}.cls-8{stroke:url(#Naamloos_verloop_76-8);}.cls-9{stroke:url(#Naamloos_verloop_76-9);}.cls-10{stroke:url(#Naamloos_verloop_76-10);}.cls-11{stroke:url(#Naamloos_verloop_76-11);}.cls-12{stroke:url(#Naamloos_verloop_76-12);}.cls-13{stroke:url(#Naamloos_verloop_76-13);}.cls-14{stroke:url(#Naamloos_verloop_76-14);}.cls-15{stroke:url(#Naamloos_verloop_76-15);}.cls-16{stroke:url(#Naamloos_verloop_76-16);}.cls-17{stroke:url(#Naamloos_verloop_76-17);}.cls-18{stroke:url(#Naamloos_verloop_76-18);}.cls-19{stroke:url(#Naamloos_verloop_76-19);}.cls-20{stroke:url(#Naamloos_verloop_76-20);}.cls-21{stroke:url(#Naamloos_verloop_76-21);}.cls-22{stroke:url(#Naamloos_verloop_76-22);}.cls-23{stroke:url(#Naamloos_verloop_76-23);}.cls-24{stroke:url(#Naamloos_verloop_76-24);}.cls-25{stroke:url(#Naamloos_verloop_76-25);}.cls-26{stroke:url(#Naamloos_verloop_76-26);}.cls-27{stroke:url(#Naamloos_verloop_76-27);}.cls-28{stroke:url(#Naamloos_verloop_76-28);}.cls-29{stroke:url(#Naamloos_verloop_76-29);}.cls-30{stroke:url(#Naamloos_verloop_76-30);}.cls-31{stroke:url(#Naamloos_verloop_76-31);}.cls-32{stroke:url(#Naamloos_verloop_76-32);}.cls-33{stroke:url(#Naamloos_verloop_76-33);}.cls-34{stroke:url(#Naamloos_verloop_76-34);}.cls-35{stroke:url(#Naamloos_verloop_76-35);}.cls-36{stroke:url(#Naamloos_verloop_76-36);}.cls-37{stroke:url(#Naamloos_verloop_76-37);}.cls-38{stroke:url(#Naamloos_verloop_76-38);}.cls-39{stroke:url(#Naamloos_verloop_76-39);}.cls-40{stroke:url(#Naamloos_verloop_76-40);}.cls-41{stroke:url(#Naamloos_verloop_76-41);}.cls-42{stroke:url(#Naamloos_verloop_76-42);}.cls-43{stroke:url(#Naamloos_verloop_76-43);}.cls-44{stroke:url(#Naamloos_verloop_76-44);}.cls-45{stroke:url(#Naamloos_verloop_76-45);}.cls-46{stroke:url(#Naamloos_verloop_76-46);}.cls-47{stroke:url(#Naamloos_verloop_76-47);}.cls-48{stroke:url(#Naamloos_verloop_76-48);}.cls-49{stroke:url(#Naamloos_verloop_76-49);}.cls-50{stroke:url(#Naamloos_verloop_76-50);}.cls-51{stroke:url(#Naamloos_verloop_76-51);}.cls-52{stroke:url(#Naamloos_verloop_76-52);}.cls-53{stroke:url(#Naamloos_verloop_76-53);}.cls-54{stroke:url(#Naamloos_verloop_76-54);}.cls-55{stroke:url(#Naamloos_verloop_76-55);}.cls-56{stroke:url(#Naamloos_verloop_76-56);}.cls-57{stroke:url(#Naamloos_verloop_76-57);}.cls-58{stroke:url(#Naamloos_verloop_76-58);}.cls-59{stroke:url(#Naamloos_verloop_76-59);}.cls-60{stroke:url(#Naamloos_verloop_76-60);}.cls-61{stroke:url(#Naamloos_verloop_76-61);}.cls-62{stroke:url(#Naamloos_verloop_76-62);}.cls-63{stroke:url(#Naamloos_verloop_76-63);}.cls-64{stroke:url(#Naamloos_verloop_76-64);}.cls-65{stroke:url(#Naamloos_verloop_76-65);}.cls-66{stroke:url(#Naamloos_verloop_76-66);}.cls-67{stroke:url(#Naamloos_verloop_76-67);}.cls-68{stroke:url(#Naamloos_verloop_76-68);}.cls-69{stroke:url(#Naamloos_verloop_76-69);}.cls-70{stroke:url(#Naamloos_verloop_76-70);}.cls-71{stroke:url(#Naamloos_verloop_76-71);}.cls-72{stroke:url(#Naamloos_verloop_76-72);}.cls-73{stroke:url(#Naamloos_verloop_76-73);}.cls-74{stroke:url(#Naamloos_verloop_76-74);}.cls-75{stroke:url(#Naamloos_verloop_76-75);}.cls-76{stroke:url(#Naamloos_verloop_76-76);}.cls-77{stroke:url(#Naamloos_verloop_76-77);}.cls-78{stroke:url(#Naamloos_verloop_76-78);}.cls-79{stroke:url(#Naamloos_verloop_76-79);}.cls-80{stroke:url(#Naamloos_verloop_76-80);}</style><linearGradient id="Naamloos_verloop_76" y1="1181.97" x2="1684" y2="1181.97" gradientTransform="translate(0 -545.5)" gradientUnits="userSpaceOnUse"><stop offset="0.01" stop-color="#02577a"/><stop offset="0.24" stop-color="#025476"/><stop offset="0.47" stop-color="#024a6b"/><stop offset="0.69" stop-color="#023957"/><stop offset="0.91" stop-color="#01213c"/><stop offset="1" stop-color="#01162f"/></linearGradient><linearGradient id="Naamloos_verloop_76-2" y1="1166.66" x2="1684" y2="1166.66" xlink:href="#Naamloos_verloop_76"/><linearGradient id="Naamloos_verloop_76-3" y1="1152.91" x2="1684.01" y2="1152.91" xlink:href="#Naamloos_verloop_76"/><linearGradient id="Naamloos_verloop_76-4" x1="0.01" y1="1138.47" x2="1684.01" y2="1138.47" xlink:href="#Naamloos_verloop_76"/><linearGradient id="Naamloos_verloop_76-5" x1="0.02" y1="1124.45" x2="1684.02" y2="1124.45" xlink:href="#Naamloos_verloop_76"/><linearGradient id="Naamloos_verloop_76-6" x1="0.03" y1="1110.87" x2="1684.04" y2="1110.87" xlink:href="#Naamloos_verloop_76"/><linearGradient id="Naamloos_verloop_76-7" x1="0.05" y1="1097.36" x2="1684.05" y2="1097.36" xlink:href="#Naamloos_verloop_76"/><linearGradient id="Naamloos_verloop_76-8" x1="0.06" y1="1084.08" x2="1684.07" y2="1084.08" xlink:href="#Naamloos_verloop_76"/><linearGradient id="Naamloos_verloop_76-9" x1="0.08" y1="1070.95" x2="1684.09" y2="1070.95" xlink:href="#Naamloos_verloop_76"/><linearGradient id="Naamloos_verloop_76-10" x1="0.1" y1="1058" x2="1684.11" y2="1058" xlink:href="#Naamloos_verloop_76"/><linearGradient id="Naamloos_verloop_76-11" x1="0.13" y1="1045.16" x2="1684.14" y2="1045.16" xlink:href="#Naamloos_verloop_76"/><linearGradient id="Naamloos_verloop_76-12" x1="0.15" y1="1032.49" x2="1684.16" y2="1032.49" xlink:href="#Naamloos_verloop_76"/><linearGradient id="Naamloos_verloop_76-13" x1="0.18" y1="1019.91" x2="1684.19" y2="1019.91" xlink:href="#Naamloos_verloop_76"/><linearGradient id="Naamloos_verloop_76-14" x1="0.21" y1="1007.37" x2="1684.22" y2="1007.37" xlink:href="#Naamloos_verloop_76"/><linearGradient id="Naamloos_verloop_76-15" x1="0.24" y1="994.92" x2="1684.25" y2="994.92" xlink:href="#Naamloos_verloop_76"/><linearGradient id="Naamloos_verloop_76-16" x1="0.28" y1="982.62" x2="1684.28" y2="982.62" xlink:href="#Naamloos_verloop_76"/><linearGradient id="Naamloos_verloop_76-17" x1="0.31" y1="969.43" x2="1684.31" y2="969.43" xlink:href="#Naamloos_verloop_76"/><linearGradient id="Naamloos_verloop_76-18" x1="0.34" y1="958.05" x2="1684.35" y2="958.05" xlink:href="#Naamloos_verloop_76"/><linearGradient id="Naamloos_verloop_76-19" x1="0.38" y1="945.92" x2="1684.39" y2="945.92" xlink:href="#Naamloos_verloop_76"/><linearGradient id="Naamloos_verloop_76-20" x1="0.41" y1="934.89" x2="1684.43" y2="934.89" xlink:href="#Naamloos_verloop_76"/><linearGradient id="Naamloos_verloop_76-21" x1="0.46" y1="924.38" x2="1684.47" y2="924.38" xlink:href="#Naamloos_verloop_76"/><linearGradient id="Naamloos_verloop_76-22" x1="0.5" y1="914.78" x2="1684.51" y2="914.78" xlink:href="#Naamloos_verloop_76"/><linearGradient id="Naamloos_verloop_76-23" x1="0.55" y1="906.59" x2="1684.55" y2="906.59" xlink:href="#Naamloos_verloop_76"/><linearGradient id="Naamloos_verloop_76-24" x1="0.59" y1="898.56" x2="1684.59" y2="898.56" xlink:href="#Naamloos_verloop_76"/><linearGradient id="Naamloos_verloop_76-25" x1="0.63" y1="889.34" x2="1684.64" y2="889.34" xlink:href="#Naamloos_verloop_76"/><linearGradient id="Naamloos_verloop_76-26" x1="0.67" y1="880.09" x2="1684.68" y2="880.09" xlink:href="#Naamloos_verloop_76"/><linearGradient id="Naamloos_verloop_76-27" x1="0.72" y1="870.87" x2="1684.73" y2="870.87" xlink:href="#Naamloos_verloop_76"/><linearGradient id="Naamloos_verloop_76-28" x1="0.76" y1="861.82" x2="1684.77" y2="861.82" xlink:href="#Naamloos_verloop_76"/><linearGradient id="Naamloos_verloop_76-29" x1="0.81" y1="854.99" x2="1684.82" y2="854.99" xlink:href="#Naamloos_verloop_76"/><linearGradient id="Naamloos_verloop_76-30" x1="0.85" y1="847.06" x2="1684.87" y2="847.06" xlink:href="#Naamloos_verloop_76"/><linearGradient id="Naamloos_verloop_76-31" x1="0.9" y1="839.26" x2="1684.92" y2="839.26" xlink:href="#Naamloos_verloop_76"/><linearGradient id="Naamloos_verloop_76-32" x1="0.95" y1="830.14" x2="1684.98" y2="830.14" xlink:href="#Naamloos_verloop_76"/><linearGradient id="Naamloos_verloop_76-33" x1="0.99" y1="822.18" x2="1685.03" y2="822.18" xlink:href="#Naamloos_verloop_76"/><linearGradient id="Naamloos_verloop_76-34" x1="1.04" y1="814.27" x2="1685.08" y2="814.27" xlink:href="#Naamloos_verloop_76"/><linearGradient id="Naamloos_verloop_76-35" x1="1.09" y1="806.44" x2="1685.13" y2="806.44" xlink:href="#Naamloos_verloop_76"/><linearGradient id="Naamloos_verloop_76-36" x1="1.14" y1="798.72" x2="1685.19" y2="798.72" xlink:href="#Naamloos_verloop_76"/><linearGradient id="Naamloos_verloop_76-37" x1="1.19" y1="791.14" x2="1685.24" y2="791.14" xlink:href="#Naamloos_verloop_76"/><linearGradient id="Naamloos_verloop_76-38" x1="1.24" y1="783.72" x2="1685.29" y2="783.72" xlink:href="#Naamloos_verloop_76"/><linearGradient id="Naamloos_verloop_76-39" x1="1.29" y1="776.48" x2="1685.34" y2="776.48" xlink:href="#Naamloos_verloop_76"/><linearGradient id="Naamloos_verloop_76-40" x1="1.34" y1="769.46" x2="1685.39" y2="769.46" xlink:href="#Naamloos_verloop_76"/><linearGradient id="Naamloos_verloop_76-41" x1="1.39" y1="762.67" x2="1685.44" y2="762.67" xlink:href="#Naamloos_verloop_76"/><linearGradient id="Naamloos_verloop_76-42" x1="1.44" y1="756.14" x2="1685.49" y2="756.14" xlink:href="#Naamloos_verloop_76"/><linearGradient id="Naamloos_verloop_76-43" x1="1.48" y1="750.03" x2="1685.53" y2="750.03" xlink:href="#Naamloos_verloop_76"/><linearGradient id="Naamloos_verloop_76-44" x1="1.53" y1="743.63" x2="1685.58" y2="743.63" xlink:href="#Naamloos_verloop_76"/><linearGradient id="Naamloos_verloop_76-45" x1="1.56" y1="737.22" x2="1685.61" y2="737.22" xlink:href="#Naamloos_verloop_76"/><linearGradient id="Naamloos_verloop_76-46" x1="1.6" y1="730.82" x2="1685.65" y2="730.82" xlink:href="#Naamloos_verloop_76"/><linearGradient id="Naamloos_verloop_76-47" x1="1.62" y1="724.47" x2="1685.67" y2="724.47" xlink:href="#Naamloos_verloop_76"/><linearGradient id="Naamloos_verloop_76-48" x1="1.65" y1="718.18" x2="1685.7" y2="718.18" xlink:href="#Naamloos_verloop_76"/><linearGradient id="Naamloos_verloop_76-49" x1="1.67" y1="711.99" x2="1685.71" y2="711.99" xlink:href="#Naamloos_verloop_76"/><linearGradient id="Naamloos_verloop_76-50" x1="1.68" y1="705.92" x2="1685.73" y2="705.92" xlink:href="#Naamloos_verloop_76"/><linearGradient id="Naamloos_verloop_76-51" x1="1.69" y1="700" x2="1685.74" y2="700" xlink:href="#Naamloos_verloop_76"/><linearGradient id="Naamloos_verloop_76-52" x1="1.7" y1="694.28" x2="1685.74" y2="694.28" xlink:href="#Naamloos_verloop_76"/><linearGradient id="Naamloos_verloop_76-53" x1="1.71" y1="688.75" x2="1685.75" y2="688.75" xlink:href="#Naamloos_verloop_76"/><linearGradient id="Naamloos_verloop_76-54" x1="1.71" y1="683.68" x2="1685.74" y2="683.68" xlink:href="#Naamloos_verloop_76"/><linearGradient id="Naamloos_verloop_76-55" x1="1.7" y1="678.57" x2="1685.74" y2="678.57" xlink:href="#Naamloos_verloop_76"/><linearGradient id="Naamloos_verloop_76-56" x1="1.69" y1="672.39" x2="1685.73" y2="672.39" xlink:href="#Naamloos_verloop_76"/><linearGradient id="Naamloos_verloop_76-57" x1="1.68" y1="666.5" x2="1685.72" y2="666.5" xlink:href="#Naamloos_verloop_76"/><linearGradient id="Naamloos_verloop_76-58" x1="1.67" y1="660.79" x2="1685.71" y2="660.79" xlink:href="#Naamloos_verloop_76"/><linearGradient id="Naamloos_verloop_76-59" x1="1.66" y1="655.22" x2="1685.69" y2="655.22" xlink:href="#Naamloos_verloop_76"/><linearGradient id="Naamloos_verloop_76-60" x1="1.64" y1="649.79" x2="1685.67" y2="649.79" xlink:href="#Naamloos_verloop_76"/><linearGradient id="Naamloos_verloop_76-61" x1="1.62" y1="644.51" x2="1685.65" y2="644.51" xlink:href="#Naamloos_verloop_76"/><linearGradient id="Naamloos_verloop_76-62" x1="1.6" y1="639.4" x2="1685.63" y2="639.4" xlink:href="#Naamloos_verloop_76"/><linearGradient id="Naamloos_verloop_76-63" x1="1.57" y1="634.47" x2="1685.6" y2="634.47" xlink:href="#Naamloos_verloop_76"/><linearGradient id="Naamloos_verloop_76-64" x1="1.54" y1="629.74" x2="1685.58" y2="629.74" xlink:href="#Naamloos_verloop_76"/><linearGradient id="Naamloos_verloop_76-65" x1="1.51" y1="625.2" x2="1685.55" y2="625.2" xlink:href="#Naamloos_verloop_76"/><linearGradient id="Naamloos_verloop_76-66" x1="1.48" y1="620.88" x2="1685.52" y2="620.88" xlink:href="#Naamloos_verloop_76"/><linearGradient id="Naamloos_verloop_76-67" x1="1.45" y1="616.55" x2="1685.5" y2="616.55" xlink:href="#Naamloos_verloop_76"/><linearGradient id="Naamloos_verloop_76-68" x1="1.42" y1="612.7" x2="1685.46" y2="612.7" xlink:href="#Naamloos_verloop_76"/><linearGradient id="Naamloos_verloop_76-69" x1="1.39" y1="609.34" x2="1685.43" y2="609.34" xlink:href="#Naamloos_verloop_76"/><linearGradient id="Naamloos_verloop_76-70" x1="1.35" y1="606.44" x2="1685.4" y2="606.44" xlink:href="#Naamloos_verloop_76"/><linearGradient id="Naamloos_verloop_76-71" x1="1.31" y1="603.79" x2="1685.37" y2="603.79" xlink:href="#Naamloos_verloop_76"/><linearGradient id="Naamloos_verloop_76-72" x1="1.28" y1="601.4" x2="1685.33" y2="601.4" xlink:href="#Naamloos_verloop_76"/><linearGradient id="Naamloos_verloop_76-73" x1="1.24" y1="599.26" x2="1685.3" y2="599.26" xlink:href="#Naamloos_verloop_76"/><linearGradient id="Naamloos_verloop_76-74" x1="1.2" y1="597.4" x2="1685.26" y2="597.4" xlink:href="#Naamloos_verloop_76"/><linearGradient id="Naamloos_verloop_76-75" x1="1.16" y1="595.8" x2="1685.22" y2="595.8" xlink:href="#Naamloos_verloop_76"/><linearGradient id="Naamloos_verloop_76-76" x1="1.13" y1="594.49" x2="1685.19" y2="594.49" xlink:href="#Naamloos_verloop_76"/><linearGradient id="Naamloos_verloop_76-77" x1="1.09" y1="593.46" x2="1685.15" y2="593.46" xlink:href="#Naamloos_verloop_76"/><linearGradient id="Naamloos_verloop_76-78" x1="1.05" y1="592.71" x2="1685.11" y2="592.71" xlink:href="#Naamloos_verloop_76"/><linearGradient id="Naamloos_verloop_76-79" x1="1.01" y1="592.27" x2="1685.07" y2="592.27" xlink:href="#Naamloos_verloop_76"/><linearGradient id="Naamloos_verloop_76-80" x1="0.98" y1="592.12" x2="1685.04" y2="592.12" xlink:href="#Naamloos_verloop_76"/></defs><title>Golft_transparanthdpi</title><g id="Laag_2" data-name="Laag 2"><g id="design"><g id="_2xHorizontaal" data-name="2xHorizontaal"><path class="cls-1" d="M0,636.49q842-.11,1684,0"/><path class="cls-2" d="M0,621.61q842-2.15,1684,0"/><path class="cls-3" d="M0,607c144.55-.4,289.31,3.94,433.83,2.09,68.42-.87,136.11-5.22,204.72-3.21s135.18,4.7,203.88,2.56c134.31-4.18,265.16.94,399.19.93,147.48,0,294.9-2.63,442.38-2.37"/><path class="cls-4" d="M0,592.54c139.77-.2,281.06,8,420.66,3.94,71.35-2.07,140.22-9.7,212.16-5.84,72.63,3.9,138.93,8.44,212.25,4.58s145.22-8.58,219.06-6.31c65.15,2,128.24,8.44,193.78,8.44,142.11,0,284-4.9,426.09-4.81"/><path class="cls-5" d="M0,578.35c133.53.14,271.7,12.71,404.77,6.12,75-3.72,144.63-15,220.93-8.89,78.6,6.26,142.93,12.82,223,6.91,78.34-5.79,156.33-14.06,235.88-9.8,65.38,3.5,126.81,13.38,193.07,13.43,135.66.1,270.71-7.59,406.37-7.77"/><path class="cls-6" d="M0,564.38c126.38.54,261.89,17.44,387.41,8.48,79.08-5.64,149.06-20.69,230.42-12.17,41.5,4.35,82.15,12.93,124.57,14.94,36.77,1.74,74.53-2.18,110.42-5.53,83.26-7.77,168.83-20.09,254-13.58,65.64,5,125.08,18.73,192.35,18.86,128.61.26,256.13-10.51,384.79-11"/><path class="cls-7" d="M.05,550.64c119.15.92,252,21.77,369.86,10.86,83.18-7.7,153.3-26.53,240-15.48,43.37,5.53,85.76,16.38,130.46,19.11,38.68,2.37,79.33-3.07,116.69-7.18,87.64-9.65,182-26.3,272.37-17.4,65.88,6.49,123.21,24.15,191.63,24.36,121.56.38,241.32-13.48,363-14.27"/><path class="cls-8" d="M.07,537.12c112.66,1.21,242.28,25.49,353.39,13.11,87-9.69,157.17-32.1,249.06-18.62,45.3,6.64,89,19.4,136,23.06,40.11,3.12,84.14-4,122.42-8.73,91.39-11.34,194.88-32.23,289.71-21,66.1,7.82,121.32,29.26,190.92,29.53,115,.44,227.28-16.32,342.53-17.34"/><path class="cls-9" d="M.09,523.82c107.53,1.38,233.43,28.49,339.26,15.08,90.24-11.43,160.42-37,257-21.4C643.16,525.08,688.14,539.72,737,544c41.33,3.63,87.89-4.77,126.94-10,94.54-12.77,206.27-37.37,304.92-24.15,66.35,8.89,119.45,33.68,190.23,34,109.66.46,215.08-18.82,325-20"/><path class="cls-10" d="M.11,510.75c56.48.74,108.85,5.46,163.72,11.55,52,5.77,112.66,12.23,165,5.05,92.75-12.7,162.76-40.91,263.09-23.62,48,8.27,93.81,24.5,144,29.21,42,3.94,90.21-5.37,129.61-11,97.11-13.93,214.94-41.28,316.81-26.6,66.77,9.62,117.65,37,189.58,37.33,105.91.44,205.82-20.75,312.12-21.9"/><path class="cls-11" d="M.13,497.9c55.86.62,106.45,5.44,160.32,12.1,50.88,6.28,111.32,12.7,162.79,5.43,94.33-13.33,163.86-43.38,266.82-25.07,48.26,8.58,94.84,26.35,145.7,30.87,42.49,3.77,90.12-5.61,129.79-11.53,99.13-14.77,219.7-43.46,324.23-28.08,67.48,9.93,115.91,38.91,189,39.19,104.24.39,200.71-21.91,305.37-22.91"/><path class="cls-12" d="M.16,485.26c55.68.71,106.58,5.46,160.43,11.88,51,6.07,111,12.5,162.42,5.2C417.7,488.91,488.72,460,591.54,478.06c48.13,8.45,94.79,25.7,145.4,30.21,42.46,3.79,90.11-5.53,129.88-11.33,99-14.42,220.06-42.89,324.13-27.86,67.46,9.75,117,38.46,189.81,38.78,103.5.46,199.5-21.52,303.4-22.6"/><path class="cls-13" d="M.18,472.85c103.47,1.39,223.45,28.55,325.31,15.2,95.5-12.52,170.91-38.26,272.75-21.5,48.13,7.92,94.44,23.08,144.55,27.72,42.17,3.9,90.49-5.17,130.27-10.55,98.6-13.33,218.21-40,321.1-26.3,67.64,9,120.87,35.88,193,36.24,101,.5,195.73-19.7,297.06-20.81"/><path class="cls-14" d="M.21,460.65c106.36,1.17,225,24,330.07,12.4,96.87-10.64,178.11-32.46,279.23-17.59,47.7,7,94.08,20.06,143.36,24.16,42.23,3.51,89.57-4.48,129.91-9.34,98.76-11.92,214.74-35.55,317-23.88,68.47,7.81,125.73,31.78,197.54,32.13,97.15.48,189.45-16.93,286.91-17.88"/><path class="cls-15" d="M.24,448.67c110.3.65,227.56,18,337.11,9,98.54-8.16,186.16-25.41,287-12.86,47.13,5.85,93.44,16.45,141.73,19.77,42.23,2.9,88-3.61,128.88-7.81,99-10.18,210.18-29.91,311.85-20.8,69.71,6.24,131.11,26.53,203,26.86,92.54.43,181.58-13.47,274.36-14.12"/><path class="cls-16" d="M.28,436.91c114.7-.07,232,11.3,346.34,5.16,100.37-5.39,194-17.54,295.34-7.65,46.41,4.53,92.44,12.44,139.61,14.83,42,2.13,86.06-2.68,127.26-6.07,98.95-8.13,205-23.52,305.74-17.25,71.11,4.42,136.52,20.51,208.85,20.84,87.62.39,173.09-9.57,260.86-9.86"/><path class="cls-17" d="M.31,425.36c119.17-.9,238.64,4.32,357.73,1.29,102.22-2.61,200.81-9.26,303.18-2.27,90.95,6.21,170.19,10.84,262,5.38,98.16-5.84,199.52-16.83,298.71-13.45,72.46,2.47,141.54,14.1,214.49,14.45,82.92.4,164.87-5.47,247.84-5.4"/><path class="cls-18" d="M.35,414q185.45-2.55,371.21-2.38c103.78,0,206-.9,309.69,3,86.12,3.23,169.84,5,256.13,1.95,96.54-3.41,193.94-10.24,290.82-9.57,73.52.5,145.8,7.69,219.42,8.1,79,.43,157.77-1.46,236.73-1.08"/><path class="cls-19" d="M.39,402.9c128.26-2.34,258.47-8.32,386.73-5.57,188.3,4,374.58,8.35,563.1,6.39,94.16-1,188.07-4.14,282.13-5.82,74.13-1.33,148.9,1.73,223.08,2.18,76.31.47,152.63,2.2,229,2.82"/><path class="cls-20" d="M.42,392c133.39-2.64,271-13,404.25-8,104,3.93,210.89,14.2,315.08,11.79,81.43-1.89,159.3-5.59,241.09-4.43,166.4,2.35,331.35-6.34,497.62-5.32,75.46.47,150.43,5.2,226,6"/><path class="cls-21" d="M.46,381.28c139.33-2.49,284.67-16,423.68-9.37,102,4.9,209.88,19.85,312.18,14.7,40.1-2,79.18-7.83,119.31-9.56,37.2-1.6,75.61,1.11,112.65,2.49,88.31,3.29,174.39,5.39,262.53.47,73.9-4.13,150-7.13,224.46-6.74,76.78.4,152.28,7.26,229.19,8"/><path class="cls-22" d="M.51,370.79c146.47-1.71,298.93-16.82,445-9.43,98.49,5,205.58,23.41,304.33,16.21C788,374.79,824.32,367,862.65,365c35.89-1.86,73.43,1.43,109,3.46,85.28,4.88,166.34,8.29,251.74,2.62,73-4.85,147.37-9.2,221.1-8.95,80.59.28,159.34,8.13,240.07,8.69"/><path class="cls-23" d="M.55,360.51c154.09-.34,312.2-14.07,465.87-7.12,94.19,4.26,198.46,23.71,292.61,15.26,36.07-3.24,69.68-12.12,106.09-14.36,34.47-2.11,71.17,1.47,105.11,3.85,82.08,5.75,158.13,9.58,240.61,3.91,71.21-4.9,142.48-9.22,214.47-9.09,86.91.16,172.26,7.42,259.24,7.55"/><path class="cls-24" d="M.59,350.43c158.81.77,320.32-8.62,478.74-2.31,91.83,3.66,194.61,20.79,285.88,11.46,34.75-3.55,67.3-12.46,102.4-15,33.16-2.41,68.74,1.38,101.39,3.8,78.34,5.81,151.17,10.07,230.09,4.86,68.86-4.54,137.58-8.29,207.1-8.25,93,.06,185.42,5.72,278.4,5.46"/><path class="cls-25" d="M.64,340.56c162.31,1.75,325.83-3,487.9,2.07,90.81,2.86,192.23,17.24,282,7.51,34.12-3.69,66.42-12.36,100.85-15.09,32.08-2.54,66.43,1.29,98,3.74,74.69,5.78,144.36,10.36,219.78,5.64,66.61-4.16,132.91-7.33,200.08-7.38,98.48-.07,197,4,295.33,3.51"/><path class="cls-26" d="M.68,330.9c164.52,2.58,329.23,2.65,493.7,6,91,1.87,191.15,13.16,280.75,3.47,34.1-3.69,66.85-11.89,101.23-14.66,31.23-2.51,64.26,1.21,95.06,3.67,71.14,5.7,137.7,10.49,209.68,6.28,64.47-3.77,128.52-6.34,193.44-6.49,103.39-.24,207,2.12,310.14,1.7"/><path class="cls-27" d="M.73,321.44c165.37,3.29,331,8.36,496.45,9.61,92,.69,191.3,8.64,281.81-.66,34.65-3.56,68.42-11.06,103.31-13.75,30.58-2.35,62.24,1.13,92.43,3.6,67.7,5.55,131.22,10.45,199.84,6.77,62.44-3.35,124.39-5.33,187.17-5.58,50.12-.2,100.1-1.4,150.17-2.28,58-1,114.95,2.39,172.82,2.29"/><path class="cls-28" d="M.77,312.18c164.89,3.87,331.43,14,496.52,12.83,93.72-.65,192.59,3.77,284.9-4.83,35.7-3.33,71-9.94,106.89-12.43,30.08-2.09,60.39,1.07,90.12,3.52,64.42,5.31,124.92,10.27,190.3,7.12,60.51-2.91,120.51-4.28,181.26-4.66,52-.33,103.54-2.24,155.35-3.93,60.49-2,118.38,2.26,178.66,2.38"/><path class="cls-29" d="M.82,303.13C164,307.45,331.68,322.48,495,318.83c95.94-2.14,194.93-1.36,289.76-9,70.82-5.72,128.11-13.27,199.87-7.33,61.23,5.06,118.88,10,181.08,7.36,58.68-2.46,116.9-3.24,175.73-3.74,53.54-.46,106.4-3.13,159.64-5.63,63-3,121,2.21,183.71,2.65"/><path class="cls-30" d="M.87,294.28c86.3,2.5,172.22,6.81,258.22,11.1,76.06,3.79,155.19,10.05,231.64,7.16,98.51-3.74,198.23-6.65,296.11-13.18,70.74-4.71,133-11.31,204.11-5.46,58.16,4.78,113.07,9.57,172.2,7.5,57-2,113.56-2.22,170.59-2.83,54.85-.59,108.77-3.95,163.12-7.35,65.45-4.1,122.89,2.21,188,3.06"/><path class="cls-31" d="M.91,285.63c85.18,2.65,169.74,7.67,254.46,12.69,74.74,4.42,154.15,11.82,229.37,7.82,101.3-5.39,202.31-12,303.66-17.27,71.18-3.71,138.4-9.14,209.47-3.38,110.65,9,217.68,7.08,329.55,5.63,56-.73,110.65-4.88,165.87-9.08,68-5.16,124.07,2.24,191.62,3.59"/><path class="cls-32" d="M1,277.17c83.8,2.74,166.68,8.43,249.83,14.13,73.3,5,152.74,13.37,226.59,8.37,170.63-11.56,355.14-36.05,527.9-22.4,105.94,8.38,209.86,8.12,317.09,6.48,56.91-.87,112.09-5.82,168-10.78,25.29-2.25,52.44-5.35,78.18-4.84,39.3.79,76.83,8,116.45,9"/><path class="cls-33" d="M1,268.92c82.23,2.78,163.21,9.07,244.57,15.4,71.81,5.59,151,14.71,223.41,8.82,178.77-14.51,361.59-37.83,544-23.91,101.62,7.76,202.57,9,305.48,7.24,57.66-1,113.15-6.74,169.46-12.45,25.61-2.59,53.61-6.25,79.8-5.65,39.68.91,77.26,9.14,117.29,10.55"/><path class="cls-34" d="M1.06,260.86C81.61,263.64,160.5,270.48,240,277.4c70.35,6.12,148.85,15.82,220,9.18,110.65-10.32,217.37-27.68,330.85-28.92,75.74-.82,154.93-1.77,230.06,3.71q146.54,10.69,294.74,7.91c58.26-1.15,113.87-7.64,170.45-14,25.8-2.92,54.59-7.13,81.14-6.44,40,1,77.55,10.32,117.92,12.06"/><path class="cls-35" d="M1.11,253c78.83,2.73,155.53,10.07,233,17.53,69,6.65,146.49,16.74,216.35,9.48,113.93-11.85,222.67-32.55,340.49-32.48,78.12.06,160.13.81,237.65,6.15,94.2,6.5,189.55,10.58,284.92,8.51,58.72-1.28,114.29-8.51,171-15.56,25.93-3.23,55.43-8,82.26-7.19,40.29,1.16,77.71,11.49,118.36,13.56"/><path class="cls-36" d="M1.16,245.34c77.13,2.64,151.61,10.42,227.07,18.39,67.71,7.14,144,17.47,212.74,9.71,117.19-13.24,227.82-37.13,349.95-35.8,80.73.87,165,3.35,245.23,8.52,91.14,5.88,183.82,11.2,276,9,59.07-1.39,114.47-9.32,171.15-17,26-3.51,56.14-8.74,83.19-7.89,40.53,1.28,77.76,12.61,118.64,15"/><path class="cls-37" d="M1.21,237.87C76.73,240.38,149,248.55,222.57,257,289.12,264.62,364,275,431.8,266.9c120.35-14.47,232.64-41.36,359-38.88,83.41,1.64,169.57,5.85,252.55,10.79,88.54,5.27,178.62,11.72,268.12,9.48,59.32-1.49,114.45-10,171-18.24,26-3.76,56.72-9.45,84-8.52,40.74,1.38,77.72,13.64,118.79,16.34"/><path class="cls-38" d="M1.26,230.59c74.09,2.34,144.26,10.89,216.07,19.72,65.53,8.07,138.94,18.51,205.93,10.09,123.33-15.5,237-45.18,367.27-41.66,86,2.33,173.66,8.22,259.39,12.88,86.39,4.7,174,12.16,261.23,9.87,59.49-1.56,114.26-10.7,170.67-19.36,26-4,57.23-10.09,84.61-9.1,40.93,1.48,77.61,14.6,118.83,17.56"/><path class="cls-39" d="M1.3,223.51c72.9,2.13,141.09,11,211.4,20.21,64.67,8.44,136.64,18.85,203,10.26,126-16.31,240.75-48.54,374.56-44.13,88.46,2.91,177.23,10.4,265.54,14.74,84.78,4.17,169.79,12.3,255.37,10.21,59.55-1.46,114.06-11.27,170.18-20.32,26-4.19,57.66-10.63,85.18-9.59,41.1,1.55,77.43,15.43,118.78,18.62"/><path class="cls-40" d="M1.35,216.62c72,1.89,138.49,11,207.55,20.58,63.87,8.81,134.73,19.08,200.53,10.44C537.79,230.8,653.16,196.29,790,201.4c63.7,2.39,125.34,11.16,188.7,14.24,27.25,1.33,54.74.87,82,2.08,83.47,3.69,166.36,12.58,250.61,10.49,59.62-1.48,113.67-11.69,169.59-21.07,26-4.36,58.07-11.08,85.71-10,41.29,1.59,77.21,16.13,118.7,19.49"/><path class="cls-41" d="M1.4,209.91c71.38,1.63,136.57,11,204.74,20.85,63.2,9.14,133.28,19.23,198.67,10.66,130.81-17.14,245.31-52.75,385.05-48,65.1,2.23,127.62,12.3,192.25,15.63,27.36,1.41,55.07.82,82.5,1.91,82.56,3.27,163.59,12.78,247,10.73,59.68-1.47,113.25-12,169-21.61,26-4.49,58.45-11.41,86.23-10.33,41.47,1.61,77,16.66,118.59,20.12"/><path class="cls-42" d="M1.45,203.4c71.2,1.33,135.48,10.88,203.18,21,62.69,9.39,132.4,19.3,197.53,10.91,132.12-17,246.31-54.24,387.68-49.27,65.93,2.32,128.91,13.21,194.31,16.65,27.51,1.44,55.46.74,83.07,1.72,82,2.93,161.53,12.9,244.46,10.93,59.74-1.43,112.83-12.12,168.49-21.9,26.12-4.6,58.84-11.63,86.8-10.56,41.65,1.59,76.69,17,118.48,20.5"/><path class="cls-43" d="M1.49,197c131.7,2.11,269.09,48.76,400.45,32,132.21-16.87,246.56-54.31,388-49.45,66,2.26,128.85,13.23,194.23,16.75,27.6,1.48,55.68.72,83.38,1.66,82.07,2.79,160.91,13.09,243.94,11.12,59.78-1.42,112.79-12.11,168.49-21.93,26.2-4.62,59.06-11.71,87.13-10.67,41.7,1.55,76.65,17.05,118.43,20.55"/><path class="cls-44" d="M1.53,190.54c132.79,2,268.51,48.64,401.21,31.78,131.29-16.69,246.5-52.87,386.45-48.46,65.25,2,127.65,12.32,192.31,15.87,27.61,1.52,55.64.78,83.35,1.76,82.53,2.91,161.51,13.73,245.08,11.66,60-1.49,113.6-12.16,169.59-22,26.35-4.62,59.35-11.82,87.54-10.82,41.6,1.48,76.88,16.85,118.47,20.42"/><path class="cls-45" d="M1.57,183.89c134.14,1.88,267.94,48.29,402.33,31.66,129.44-16,246.36-51.53,383.8-47,64.09,2.11,125.67,11.13,189.24,14.54,27.63,1.49,55.61.81,83.32,1.86,83.23,3.16,162.54,14.77,246.93,12.59,60.5-1.56,115-12.28,171.49-22.12,26.61-4.63,59.88-12,88.32-11,41.51,1.4,77.13,16.58,118.57,20.17"/><path class="cls-46" d="M1.6,177.12c135.66,1.74,267.46,47.73,403.76,31.62,127.95-15.12,245.17-48.7,380.16-45.2,89.58,2.32,179,11.05,268.51,14.79,84.15,3.51,164,16.1,249.45,13.82,61.18-1.63,116.76-12.45,174-22.33,27-4.65,60.64-12.16,89.42-11.26,41.43,1.3,77.41,16.25,118.7,19.83"/><path class="cls-47" d="M1.63,170.24c137.28,1.61,267.1,47,405.44,31.7,126.23-14,243.49-45.42,375.69-43.12,87.5,1.52,176.37,8.86,263.7,12.89,85.28,3.93,165.83,17.64,252.61,15.27,62-1.7,118.84-12.64,176.94-22.56,27.41-4.68,61.54-12.34,90.75-11.51,41.36,1.17,77.7,15.84,118.87,19.38"/><path class="cls-48" d="M1.65,163.26c138.93,1.5,266.9,46.27,407.32,31.91,124.35-12.73,241.36-41.8,370.54-40.86,85.24.63,173.38,6.46,258.33,10.77,86.58,4.4,168.08,19.3,256.37,16.85,62.9-1.75,121.1-12.8,180.15-22.75,27.92-4.71,62.53-12.52,92.21-11.77,41.31,1.05,78,15.38,119.08,18.85"/><path class="cls-49" d="M1.67,156.21C142.21,157.63,268.58,201.7,411,188.46c122.36-11.37,238.83-38,364.89-38.48,82.87-.34,170.05,3.92,252.57,8.49,88.06,4.88,170.73,21,260.68,18.47,63.84-1.78,123.42-12.91,183.48-22.88,28.45-4.72,63.53-12.64,93.71-12,41.27.91,78.33,14.85,119.33,18.24"/><path class="cls-50" d="M1.69,149.1c142.06,1.39,267.13,44.77,411.45,32.75,120.33-10,235.94-34.08,358.87-36.11,80.59-1.32,166.41,1.41,246.66,6.15,89.7,5.31,173.7,22.59,265.49,20.06,64.75-1.79,125.68-12.95,186.73-22.89,29-4.72,64.5-12.71,95.19-12.14,41.24.75,78.66,14.26,119.61,17.54"/><path class="cls-51" d="M1.7,142c143.45,1.43,267.57,44.22,413.6,33.42,118.3-8.74,232.76-30.25,352.65-33.8,78.44-2.33,162.61-1.1,240.77,3.8,91.31,5.73,177.2,24.33,270.78,21.51,65.67-2,127.58-12.84,189.73-22.73,29.54-4.71,65.38-12.69,96.55-12.24,41.23.6,79,13.64,119.92,16.78"/><path class="cls-52" d="M1.71,134.78c144.71,1.54,268.18,43.92,415.74,34.27,116.32-7.6,229.37-26.61,346.38-31.66,76.53-3.31,158.71-3.47,235.09,1.52,93.21,6.09,180.89,25.55,276.5,22.77,66.37-1.94,129.32-12.62,192.32-22.38,30.56-4.73,65.55-12.1,97.71-12.23,40.76-.16,79.83,13,120.26,16"/><path class="cls-53" d="M1.71,127.61c145.86,1.75,268.88,44,417.81,35.32C610,151.82,795.59,119.61,989.58,132.55c95.25,6.35,184.86,26.41,282.6,23.72,66.88-1.85,130.65-12.23,194.33-21.77,31-4.65,66.08-11.85,98.58-12.1,40.8-.32,80.15,12.28,120.62,15.07"/><path class="cls-54" d="M1.71,120.46c76.77,1.08,144.66,13.65,216.78,25.46,68.28,11.19,131.51,14.94,203,11.12,185.64-9.91,371.17-43.3,559.53-30.75,97.46,6.49,189.07,26.83,289,24.3,67.13-1.7,131.43-11.63,195.58-20.87,31.4-4.52,66.31-11.39,99.09-11.83,40.78-.55,80.53,11.53,121,14.14"/><path class="cls-55" d="M1.71,113.34c77.38,1.31,145.61,14.4,218.12,26.57,68.69,11.54,131.42,15.19,203.42,11.49,181.66-9.32,366.39-43.18,550.22-31.24,99.82,6.48,193.51,26.69,295.79,24.42,67.09-1.5,131.55-10.81,195.91-19.63,31.62-4.34,66.27-10.84,99.13-11.41,40.85-.71,80.85,10.75,121.41,13.16"/><path class="cls-56" d="M1.7,106.28c78,1.62,146.49,15.28,219.32,27.9,69,11.95,131.26,15.71,203.77,11.88,109.45-5.78,215.85-16.95,324-26.53,72.19-6.39,145.44-9.85,218.49-5.36,102.39,6.29,198.1,25.71,302.79,24,66.64-1.1,131-9.74,195.15-18,31.69-4.08,65.86-10.11,98.63-10.79,40.94-.85,81.16,9.94,121.83,12.15"/><path class="cls-57" d="M1.7,99.28c78.63,1.91,147.26,16.31,220.35,29.5,69.26,12.49,131,16.5,204.07,12.38,107.93-6.08,212.7-16.79,319.3-26.78,72.1-6.76,144.6-10.18,217.69-5.8,104.55,6.27,202.06,25.57,308.85,24.13,66.1-.89,129.72-9,193.52-17,31.62-4,65.29-9.57,97.91-10.41,41.07-1.05,81.46,9.21,122.31,11.15"/><path class="cls-58" d="M1.68,92.38c79.39,2.13,148,17.35,221.39,31.2,69.42,13.1,130.82,17.33,204.35,13C533.81,130.25,636.75,119.3,741.7,109c72.36-7.09,145-10.31,218.37-5.71,106.09,6.65,204.57,26.7,313.06,25.42,65.76-.78,128.73-9,192.11-17.1,31.55-4,64.92-9.47,97.49-10.48,41.27-1.28,81.85,8.69,123,10.37"/><path class="cls-59" d="M1.67,85.58C81.83,87.94,150.52,104,224.11,118.52c69.55,13.71,130.58,18.21,204.61,13.56,104.85-6.59,206-17.85,309.34-28.39,72.75-7.42,145.64-10.48,219.46-5.58,107.31,7.11,206.36,28.08,316.28,26.89,65.51-.71,127.93-9.19,190.92-17.41,31.49-4.11,64.66-9.48,97.19-10.64,41.52-1.48,82.36,8.31,123.76,9.79"/><path class="cls-60" d="M1.65,78.92c80.94,2.59,149.68,19.51,223.5,34.68C294.8,127.92,355.5,132.74,430,127.74c103.33-6.93,202.71-18.57,304.48-29.35,73.28-7.75,146.58-10.67,220.94-5.4,108.22,7.67,207.47,29.66,318.6,28.51,65.33-.67,127.27-9.45,189.92-17.9,31.44-4.23,64.47-9.61,97-10.88,41.8-1.64,83,8.06,124.69,9.4"/><path class="cls-61" d="M1.64,72.39C83.35,75.24,152.15,93,226.2,108.84c69.71,14.91,130.13,20.11,205.09,14.71C533.11,116.23,630.77,104.14,731,93.16c73.92-8.09,147.75-10.9,222.75-5.19,108.86,8.29,208,31.44,320.08,30.28,65.24-.68,126.77-9.85,189.12-18.57,31.38-4.39,64.35-9.83,96.91-11.21,42.15-1.77,83.68,7.94,125.77,9.18"/><path class="cls-62" d="M1.61,66c82.5,3.1,151.36,21.72,225.64,38.21,69.74,15.49,129.91,21.11,205.31,15.28C532.88,111.76,628.86,99.16,727.61,88c74.67-8.43,149.16-11.15,224.88-4.94,109.23,9,207.91,33.38,320.8,32.15,65.21-.71,126.4-10.34,188.47-19.39,31.35-4.57,64.31-10.14,96.92-11.59,42.52-1.89,84.47,7.92,126.93,9.11"/><path class="cls-63" d="M1.59,59.85c83.28,3.35,152.21,22.83,226.7,40C298,115.88,358,122,433.81,115.64,532.64,107.42,627,94.25,724.3,83c75.51-8.77,150.77-11.44,227.28-4.67,109.36,9.67,207.33,35.46,320.83,34.13,65.24-.77,126.16-10.93,188-20.35,31.31-4.77,64.31-10.53,97-12,42.92-2,85.32,8,128.19,9.19"/><path class="cls-64" d="M1.56,53.88c84.06,3.6,153.07,23.93,227.76,41.71C299,112.19,358.87,118.75,435,111.93,532.4,103.21,625.19,89.43,721.09,78,797.51,68.93,873.65,66.29,951,73.66c109.27,10.42,206.28,37.65,320.25,36.17,65.33-.85,126-11.6,187.64-21.42,31.27-5,64.36-11,97.16-12.51,43.34-2,86.23,8.15,129.51,9.39"/><path class="cls-65" d="M1.54,48.12c84.82,3.84,153.92,25,228.8,43.44,69.63,17.12,129.39,24.19,205.89,16.83C532.14,99.17,623.44,84.73,718,73.23c77.38-9.42,154.5-12.07,232.74-4,109,11.18,204.82,39.92,319.1,38.26,65.48-1,126-12.34,187.43-22.59,31.24-5.21,64.46-11.47,97.38-13,43.79-2.09,87.18,8.39,130.9,9.7"/><path class="cls-66" d="M1.51,42.6C87.1,46.68,156.27,68.7,231.33,87.73,300.88,105.36,360.6,113,437.4,105,531.88,95.29,621.75,80.16,715,68.59c78.39-9.73,156.6-12.41,235.73-3.7,108.51,12,203,42.25,317.5,40.38,65.66-1.07,126.09-13.13,187.31-23.82,31.21-5.45,64.59-12,97.66-13.59,44.25-2.12,88.17,8.69,132.32,10.11"/><path class="cls-67" d="M1.48,37.33c158.87,7.93,270.43,82.92,437.06,64.53C531.61,91.6,620.13,75.75,712.11,64.13c79.43-10,158.8-12.78,238.84-3.34,107.9,12.71,200.89,44.59,315.48,42.5,65.89-1.2,126.24-14,187.3-25.11,31.19-5.7,64.75-12.59,98-14.17,44.71-2.13,89.18,9,133.76,10.59"/><path class="cls-68" d="M1.45,32.34c159.26,8.27,270.9,86.23,438.2,66.55,91.68-10.79,178.92-27.38,269.7-39,80.48-10.33,161.11-13.15,242-3,107.16,13.47,198.53,46.95,313.14,44.63,66.16-1.34,126.46-14.83,187.37-26.45,31.16-5.94,64.94-13.18,98.36-14.76,45.18-2.12,90.2,9.44,135.2,11.15"/><path class="cls-69" d="M1.41,27.64c159.6,8.58,271.44,89.44,439.3,68.47C608,75.2,776.67,29.79,952,53.2c106.33,14.2,196,49.26,310.54,46.7,66.41-1.48,126.77-15.67,187.5-27.78,31.11-6.21,65.17-13.79,98.76-15.35,45.64-2.12,91.21,9.86,136.62,11.73"/><path class="cls-70" d="M1.38,23.25c159.88,8.84,272,92.54,440.35,70.28,167-22.07,335.21-68.62,511-43.77,105.42,14.9,193.25,51.5,307.74,48.71,66.72-1.62,127.08-16.55,187.68-29.12,31.1-6.44,65.4-14.4,99.19-15.93,46.09-2.1,92.2,10.3,138,12.36"/><path class="cls-71" d="M1.34,19.19c160.17,9.06,272.52,95.49,441.37,72C609.44,68,777.25,20.29,953.61,46.56c104.49,15.56,190.45,53.67,304.85,50.65,67-1.76,127.4-17.41,187.89-30.42,31.08-6.69,65.64-15,99.63-16.52,46.53-2.07,93.17,10.76,139.36,13"/><path class="cls-72" d="M1.31,15.48c160.49,9.23,273,98.25,442.32,73.55,166.53-24.29,334-73,510.93-45.4,103.56,16.18,187.61,55.72,301.89,52.49,67.38-1.9,127.74-18.25,188.14-31.69,31.06-6.91,65.87-15.57,100.07-17.06,47-2,94.09,11.21,140.65,13.65"/><path class="cls-73" d="M1.27,12.14C162.15,21.48,274.6,113,444.5,87.12,610.89,61.81,777.9,12,955.56,41c102.66,16.74,184.77,57.63,299,54.21,67.71-2,128.06-19,188.39-32.89,31-7.13,66.1-16.12,100.51-17.59,47.35-2,95,11.66,141.84,14.29"/><path class="cls-74" d="M1.23,9.17c161.38,9.41,273.52,103.15,444.09,76.26,166.33-26.22,332.86-77,511.26-46.81,101.83,17.26,182,59.38,296.14,55.78,68-2.15,128.37-19.78,188.63-34,31-7.33,66.34-16.63,100.94-18.06,47.72-2,95.75,12.08,142.94,14.88"/><path class="cls-75" d="M1.19,6.61C163.23,16,274.68,111.83,446.07,84,612.44,57,778.39,5.2,957.58,36.58c101.11,17.71,179.36,60.93,293.49,57.18,68.38-2.25,128.63-20.44,188.85-35,31-7.51,66.56-17.08,101.35-18.49,48.06-2,96.46,12.47,143.92,15.44"/><path class="cls-76" d="M1.15,4.48c162.89,9.35,273.2,107,445.61,78.31C613.29,55.1,778.5,2.45,958.54,34.86c100.52,18.09,176.88,62.27,291.09,58.4,68.68-2.33,128.83-21,189-35.89,31-7.68,66.76-17.47,101.73-18.87,48.36-1.93,97.07,12.82,144.77,15.94"/><path class="cls-77" d="M1.12,2.78C93.5,8,163.37,38.14,239.37,62.26c69.79,22.16,128.17,33.09,208,19.59C614.2,53.63,778.46.19,959.43,33.48c100.1,18.42,174.62,63.36,289,59.41,69-2.38,129-21.47,189.14-36.63,31-7.82,66.94-17.79,102.09-19.17,48.61-1.91,97.56,13.11,145.47,16.35"/><path class="cls-78" d="M1.08,1.53C93.86,6.61,163.75,37.35,239.7,61.73c70.24,22.55,127.9,33.16,208.24,19.43,167.24-28.57,330.32-82.7,512.27-48.7,99.89,18.67,172.65,64.18,287.28,60.18,69.24-2.41,129-21.82,189.2-37.2,31.07-7.94,67.1-18,102.39-19.4,48.83-1.9,97.92,13.35,146,16.68"/><path class="cls-79" d="M1,.77C94.17,5.66,164.06,37,240,61.55c70.79,22.94,127.55,33,208.47,19.19,38.36-6.57,77-12.64,114.22-20.74,42.75-9.3,80.62-22,125.82-28.56,88.93-12.86,184.8-16.15,272.39.37,99.92,18.84,171,64.7,286,60.71,69.48-2.41,129-22,189.18-37.59,31.1-8,67.21-18.18,102.63-19.55,49-1.9,98.15,13.51,146.35,16.9"/><path class="cls-80" d="M1,.5C94.42,5.14,164.31,37,240.1,61.71c71.48,23.35,127.16,32.77,208.72,18.88,38.34-6.53,76.93-12.6,114.06-20.75,42.44-9.32,79.8-22.23,124.69-28.8,89.12-13,186-16.08,273.76.5,100.21,18.93,169.78,64.91,285.3,61,69.68-2.37,128.82-22.09,189.07-37.77,31.13-8.1,67.29-18.23,102.81-19.61,49.1-1.9,98.21,13.6,146.49,17"/></g></g></g></svg>