<svg xmlns="http://www.w3.org/2000/svg" xmlns:xlink="http://www.w3.org/1999/xlink" viewBox="0 0 1685.84 636"><defs><style>.cls-1,.cls-10,.cls-11,.cls-12,.cls-13,.cls-14,.cls-15,.cls-16,.cls-17,.cls-18,.cls-19,.cls-2,.cls-20,.cls-21,.cls-22,.cls-23,.cls-24,.cls-25,.cls-26,.cls-27,.cls-28,.cls-29,.cls-3,.cls-30,.cls-31,.cls-32,.cls-33,.cls-34,.cls-35,.cls-36,.cls-37,.cls-38,.cls-39,.cls-4,.cls-40,.cls-41,.cls-42,.cls-43,.cls-44,.cls-45,.cls-46,.cls-47,.cls-48,.cls-49,.cls-5,.cls-50,.cls-51,.cls-52,.cls-53,.cls-54,.cls-55,.cls-56,.cls-57,.cls-58,.cls-59,.cls-6,.cls-60,.cls-61,.cls-62,.cls-63,.cls-64,.cls-65,.cls-66,.cls-67,.cls-68,.cls-69,.cls-7,.cls-70,.cls-71,.cls-72,.cls-73,.cls-74,.cls-75,.cls-76,.cls-77,.cls-78,.cls-8,.cls-9{fill:none;stroke-miterlimit:10;}.cls-1{stroke:url(#Naamloos_verloop_88);}.cls-2{stroke:url(#Naamloos_verloop_88-2);}.cls-3{stroke:url(#Naamloos_verloop_88-3);}.cls-4{stroke:url(#Naamloos_verloop_88-4);}.cls-5{stroke:url(#Naamloos_verloop_88-5);}.cls-6{stroke:url(#Naamloos_verloop_88-6);}.cls-7{stroke:url(#Naamloos_verloop_88-7);}.cls-8{stroke:url(#Naamloos_verloop_88-8);}.cls-9{stroke:url(#Naamloos_verloop_88-9);}.cls-10{stroke:url(#Naamloos_verloop_88-10);}.cls-11{stroke:url(#Naamloos_verloop_88-11);}.cls-12{stroke:url(#Naamloos_verloop_88-12);}.cls-13{stroke:url(#Naamloos_verloop_88-13);}.cls-14{stroke:url(#Naamloos_verloop_88-14);}.cls-15{stroke:url(#Naamloos_verloop_88-15);}.cls-16{stroke:url(#Naamloos_verloop_88-16);}.cls-17{stroke:url(#Naamloos_verloop_88-17);}.cls-18{stroke:url(#Naamloos_verloop_88-18);}.cls-19{stroke:url(#Naamloos_verloop_88-19);}.cls-20{stroke:url(#Naamloos_verloop_88-20);}.cls-21{stroke:url(#Naamloos_verloop_88-21);}.cls-22{stroke:url(#Naamloos_verloop_88-22);}.cls-23{stroke:url(#Naamloos_verloop_88-23);}.cls-24{stroke:url(#Naamloos_verloop_88-24);}.cls-25{stroke:url(#Naamloos_verloop_88-25);}.cls-26{stroke:url(#Naamloos_verloop_88-26);}.cls-27{stroke:url(#Naamloos_verloop_88-27);}.cls-28{stroke:url(#Naamloos_verloop_88-28);}.cls-29{stroke:url(#Naamloos_verloop_88-29);}.cls-30{stroke:url(#Naamloos_verloop_88-30);}.cls-31{stroke:url(#Naamloos_verloop_88-31);}.cls-32{stroke:url(#Naamloos_verloop_88-32);}.cls-33{stroke:url(#Naamloos_verloop_88-33);}.cls-34{stroke:url(#Naamloos_verloop_88-34);}.cls-35{stroke:url(#Naamloos_verloop_88-35);}.cls-36{stroke:url(#Naamloos_verloop_88-36);}.cls-37{stroke:url(#Naamloos_verloop_88-37);}.cls-38{stroke:url(#Naamloos_verloop_88-38);}.cls-39{stroke:url(#Naamloos_verloop_88-39);}.cls-40{stroke:url(#Naamloos_verloop_88-40);}.cls-41{stroke:url(#Naamloos_verloop_88-41);}.cls-42{stroke:url(#Naamloos_verloop_88-42);}.cls-43{stroke:url(#Naamloos_verloop_88-43);}.cls-44{stroke:url(#Naamloos_verloop_88-44);}.cls-45{stroke:url(#Naamloos_verloop_88-45);}.cls-46{stroke:url(#Naamloos_verloop_88-46);}.cls-47{stroke:url(#Naamloos_verloop_88-47);}.cls-48{stroke:url(#Naamloos_verloop_88-48);}.cls-49{stroke:url(#Naamloos_verloop_88-49);}.cls-50{stroke:url(#Naamloos_verloop_88-50);}.cls-51{stroke:url(#Naamloos_verloop_88-51);}.cls-52{stroke:url(#Naamloos_verloop_88-52);}.cls-53{stroke:url(#Naamloos_verloop_88-53);}.cls-54{stroke:url(#Naamloos_verloop_88-54);}.cls-55{stroke:url(#Naamloos_verloop_88-55);}.cls-56{stroke:url(#Naamloos_verloop_88-56);}.cls-57{stroke:url(#Naamloos_verloop_88-57);}.cls-58{stroke:url(#Naamloos_verloop_88-58);}.cls-59{stroke:url(#Naamloos_verloop_88-59);}.cls-60{stroke:url(#Naamloos_verloop_88-60);}.cls-61{stroke:url(#Naamloos_verloop_88-61);}.cls-62{stroke:url(#Naamloos_verloop_88-62);}.cls-63{stroke:url(#Naamloos_verloop_88-63);}.cls-64{stroke:url(#Naamloos_verloop_88-64);}.cls-65{stroke:url(#Naamloos_verloop_88-65);}.cls-66{stroke:url(#Naamloos_verloop_88-66);}.cls-67{stroke:url(#Naamloos_verloop_88-67);}.cls-68{stroke:url(#Naamloos_verloop_88-68);}.cls-69{stroke:url(#Naamloos_verloop_88-69);}.cls-70{stroke:url(#Naamloos_verloop_88-70);}.cls-71{stroke:url(#Naamloos_verloop_88-71);}.cls-72{stroke:url(#Naamloos_verloop_88-72);}.cls-73{stroke:url(#Naamloos_verloop_88-73);}.cls-74{stroke:url(#Naamloos_verloop_88-74);}.cls-75{stroke:url(#Naamloos_verloop_88-75);}.cls-76{stroke:url(#Naamloos_verloop_88-76);}.cls-77{stroke:url(#Naamloos_verloop_88-77);}.cls-78{stroke:url(#Naamloos_verloop_88-78);}</style><linearGradient id="Naamloos_verloop_88" y1="1908.96" x2="1684" y2="1908.96" gradientTransform="translate(0 -1273.5)" gradientUnits="userSpaceOnUse"><stop offset="0" stop-color="#fff" stop-opacity="0"/><stop offset="1" stop-color="#fff" stop-opacity="0.6"/></linearGradient><linearGradient id="Naamloos_verloop_88-2" x1="0" y1="1893.57" x2="1684" y2="1893.57" xlink:href="#Naamloos_verloop_88"/><linearGradient id="Naamloos_verloop_88-3" x1="0" y1="1879.96" x2="1684" y2="1879.96" xlink:href="#Naamloos_verloop_88"/><linearGradient id="Naamloos_verloop_88-4" x1="0" y1="1865.42" x2="1684.2" y2="1865.42" xlink:href="#Naamloos_verloop_88"/><linearGradient id="Naamloos_verloop_88-5" x1="0" y1="1851.36" x2="1684.1" y2="1851.36" xlink:href="#Naamloos_verloop_88"/><linearGradient id="Naamloos_verloop_88-6" x1="0" y1="1837.84" x2="1683.9" y2="1837.84" xlink:href="#Naamloos_verloop_88"/><linearGradient id="Naamloos_verloop_88-7" x1="0.1" y1="1824.32" x2="1684.21" y2="1824.32" xlink:href="#Naamloos_verloop_88"/><linearGradient id="Naamloos_verloop_88-8" x1="0.1" y1="1811.13" x2="1684.11" y2="1811.13" xlink:href="#Naamloos_verloop_88"/><linearGradient id="Naamloos_verloop_88-9" x1="0.1" y1="1797.97" x2="1684.11" y2="1797.97" xlink:href="#Naamloos_verloop_88"/><linearGradient id="Naamloos_verloop_88-10" x1="0.1" y1="1784.96" x2="1684.01" y2="1784.96" xlink:href="#Naamloos_verloop_88"/><linearGradient id="Naamloos_verloop_88-11" x1="0.1" y1="1772.13" x2="1684.11" y2="1772.13" xlink:href="#Naamloos_verloop_88"/><linearGradient id="Naamloos_verloop_88-12" x1="0.2" y1="1759.52" x2="1684.11" y2="1759.52" xlink:href="#Naamloos_verloop_88"/><linearGradient id="Naamloos_verloop_88-13" x1="0.2" y1="1746.97" x2="1684.31" y2="1746.97" xlink:href="#Naamloos_verloop_88"/><linearGradient id="Naamloos_verloop_88-14" x1="0.2" y1="1734.37" x2="1684.21" y2="1734.37" xlink:href="#Naamloos_verloop_88"/><linearGradient id="Naamloos_verloop_88-15" x1="0.2" y1="1721.99" x2="1684.11" y2="1721.99" xlink:href="#Naamloos_verloop_88"/><linearGradient id="Naamloos_verloop_88-16" x1="0.3" y1="1709.64" x2="1684.2" y2="1709.64" xlink:href="#Naamloos_verloop_88"/><linearGradient id="Naamloos_verloop_88-17" x1="0.3" y1="1696.44" x2="1684.2" y2="1696.44" xlink:href="#Naamloos_verloop_88"/><linearGradient id="Naamloos_verloop_88-18" x1="0.3" y1="1685.05" x2="1684.2" y2="1685.05" xlink:href="#Naamloos_verloop_88"/><linearGradient id="Naamloos_verloop_88-19" x1="0.39" y1="1672.91" x2="1684.41" y2="1672.91" xlink:href="#Naamloos_verloop_88"/><linearGradient id="Naamloos_verloop_88-20" x1="0.39" y1="1661.91" x2="1684.51" y2="1661.91" xlink:href="#Naamloos_verloop_88"/><linearGradient id="Naamloos_verloop_88-21" x1="0.49" y1="1651.39" x2="1684.61" y2="1651.39" xlink:href="#Naamloos_verloop_88"/><linearGradient id="Naamloos_verloop_88-22" x1="0.5" y1="1641.81" x2="1684.51" y2="1641.81" xlink:href="#Naamloos_verloop_88"/><linearGradient id="Naamloos_verloop_88-23" x1="0.6" y1="1633.6" x2="1684.6" y2="1633.6" xlink:href="#Naamloos_verloop_88"/><linearGradient id="Naamloos_verloop_88-24" x1="0.6" y1="1625.58" x2="1684.6" y2="1625.58" xlink:href="#Naamloos_verloop_88"/><linearGradient id="Naamloos_verloop_88-25" x1="0.6" y1="1616.4" x2="1684.5" y2="1616.4" xlink:href="#Naamloos_verloop_88"/><linearGradient id="Naamloos_verloop_88-26" x1="0.69" y1="1607.07" x2="1684.7" y2="1607.07" xlink:href="#Naamloos_verloop_88"/><linearGradient id="Naamloos_verloop_88-27" x1="0.69" y1="1597.75" x2="1684.7" y2="1597.75" xlink:href="#Naamloos_verloop_88"/><linearGradient id="Naamloos_verloop_88-28" x1="0.79" y1="1588.86" x2="1684.8" y2="1588.86" xlink:href="#Naamloos_verloop_88"/><linearGradient id="Naamloos_verloop_88-29" x1="0.79" y1="1582.02" x2="1684.8" y2="1582.02" xlink:href="#Naamloos_verloop_88"/><linearGradient id="Naamloos_verloop_88-30" x1="0.89" y1="1574.06" x2="1684.81" y2="1574.06" xlink:href="#Naamloos_verloop_88"/><linearGradient id="Naamloos_verloop_88-31" x1="0.89" y1="1566.16" x2="1685.01" y2="1566.16" xlink:href="#Naamloos_verloop_88"/><linearGradient id="Naamloos_verloop_88-32" x1="0.99" y1="1557.18" x2="1685.01" y2="1557.18" xlink:href="#Naamloos_verloop_88"/><linearGradient id="Naamloos_verloop_88-33" x1="0.98" y1="1549.11" x2="1685.12" y2="1549.11" xlink:href="#Naamloos_verloop_88"/><linearGradient id="Naamloos_verloop_88-34" x1="1.08" y1="1541.32" x2="1685.02" y2="1541.32" xlink:href="#Naamloos_verloop_88"/><linearGradient id="Naamloos_verloop_88-35" x1="1.08" y1="1533.35" x2="1685.23" y2="1533.35" xlink:href="#Naamloos_verloop_88"/><linearGradient id="Naamloos_verloop_88-36" x1="1.19" y1="1525.64" x2="1685.23" y2="1525.64" xlink:href="#Naamloos_verloop_88"/><linearGradient id="Naamloos_verloop_88-37" x1="1.19" y1="1518.17" x2="1685.23" y2="1518.17" xlink:href="#Naamloos_verloop_88"/><linearGradient id="Naamloos_verloop_88-38" x1="1.29" y1="1510.7" x2="1685.34" y2="1510.7" xlink:href="#Naamloos_verloop_88"/><linearGradient id="Naamloos_verloop_88-39" x1="1.29" y1="1503.5" x2="1685.44" y2="1503.5" xlink:href="#Naamloos_verloop_88"/><linearGradient id="Naamloos_verloop_88-40" x1="1.39" y1="1496.44" x2="1685.44" y2="1496.44" xlink:href="#Naamloos_verloop_88"/><linearGradient id="Naamloos_verloop_88-41" x1="1.39" y1="1489.69" x2="1685.44" y2="1489.69" xlink:href="#Naamloos_verloop_88"/><linearGradient id="Naamloos_verloop_88-42" x1="1.49" y1="1483.04" x2="1685.64" y2="1483.04" xlink:href="#Naamloos_verloop_88"/><linearGradient id="Naamloos_verloop_88-43" x1="1.49" y1="1477.07" x2="1685.54" y2="1477.07" xlink:href="#Naamloos_verloop_88"/><linearGradient id="Naamloos_verloop_88-44" x1="1.49" y1="1470.63" x2="1685.54" y2="1470.63" xlink:href="#Naamloos_verloop_88"/><linearGradient id="Naamloos_verloop_88-45" x1="1.59" y1="1464.29" x2="1685.55" y2="1464.29" xlink:href="#Naamloos_verloop_88"/><linearGradient id="Naamloos_verloop_88-46" x1="1.6" y1="1457.77" x2="1685.64" y2="1457.77" xlink:href="#Naamloos_verloop_88"/><linearGradient id="Naamloos_verloop_88-47" x1="1.6" y1="1451.44" x2="1685.65" y2="1451.44" xlink:href="#Naamloos_verloop_88"/><linearGradient id="Naamloos_verloop_88-48" x1="1.6" y1="1445.2" x2="1685.64" y2="1445.2" xlink:href="#Naamloos_verloop_88"/><linearGradient id="Naamloos_verloop_88-49" x1="1.7" y1="1439.01" x2="1685.74" y2="1439.01" xlink:href="#Naamloos_verloop_88"/><linearGradient id="Naamloos_verloop_88-50" x1="1.7" y1="1432.98" x2="1685.84" y2="1432.98" xlink:href="#Naamloos_verloop_88"/><linearGradient id="Naamloos_verloop_88-51" x1="1.7" y1="1427.06" x2="1685.74" y2="1427.06" xlink:href="#Naamloos_verloop_88"/><linearGradient id="Naamloos_verloop_88-52" x1="1.7" y1="1421.3" x2="1685.74" y2="1421.3" xlink:href="#Naamloos_verloop_88"/><linearGradient id="Naamloos_verloop_88-53" x1="1.7" y1="1415.69" x2="1685.74" y2="1415.69" xlink:href="#Naamloos_verloop_88"/><linearGradient id="Naamloos_verloop_88-54" x1="1.69" y1="1410.71" x2="1685.73" y2="1410.71" xlink:href="#Naamloos_verloop_88"/><linearGradient id="Naamloos_verloop_88-55" x1="1.69" y1="1405.54" x2="1685.63" y2="1405.54" xlink:href="#Naamloos_verloop_88"/><linearGradient id="Naamloos_verloop_88-56" x1="1.69" y1="1399.41" x2="1685.73" y2="1399.41" xlink:href="#Naamloos_verloop_88"/><linearGradient id="Naamloos_verloop_88-57" x1="1.69" y1="1393.52" x2="1685.73" y2="1393.52" xlink:href="#Naamloos_verloop_88"/><linearGradient id="Naamloos_verloop_88-58" x1="1.69" y1="1387.81" x2="1685.82" y2="1387.81" xlink:href="#Naamloos_verloop_88"/><linearGradient id="Naamloos_verloop_88-59" x1="1.69" y1="1382.22" x2="1685.72" y2="1382.22" xlink:href="#Naamloos_verloop_88"/><linearGradient id="Naamloos_verloop_88-60" x1="1.59" y1="1376.76" x2="1685.62" y2="1376.76" xlink:href="#Naamloos_verloop_88"/><linearGradient id="Naamloos_verloop_88-61" x1="1.58" y1="1371.49" x2="1685.72" y2="1371.49" xlink:href="#Naamloos_verloop_88"/><linearGradient id="Naamloos_verloop_88-62" x1="1.58" y1="1366.37" x2="1685.52" y2="1366.37" xlink:href="#Naamloos_verloop_88"/><linearGradient id="Naamloos_verloop_88-63" x1="1.58" y1="1361.44" x2="1685.62" y2="1361.44" xlink:href="#Naamloos_verloop_88"/><linearGradient id="Naamloos_verloop_88-64" x1="1.58" y1="1356.75" x2="1685.72" y2="1356.75" xlink:href="#Naamloos_verloop_88"/><linearGradient id="Naamloos_verloop_88-65" x1="1.48" y1="1352.16" x2="1685.52" y2="1352.16" xlink:href="#Naamloos_verloop_88"/><linearGradient id="Naamloos_verloop_88-66" x1="1.48" y1="1347.88" x2="1685.52" y2="1347.88" xlink:href="#Naamloos_verloop_88"/><linearGradient id="Naamloos_verloop_88-67" x1="1.48" y1="1343.5" x2="1685.62" y2="1343.5" xlink:href="#Naamloos_verloop_88"/><linearGradient id="Naamloos_verloop_88-68" x1="1.48" y1="1339.68" x2="1685.52" y2="1339.68" xlink:href="#Naamloos_verloop_88"/><linearGradient id="Naamloos_verloop_88-69" x1="1.38" y1="1336.32" x2="1685.42" y2="1336.32" xlink:href="#Naamloos_verloop_88"/><linearGradient id="Naamloos_verloop_88-70" x1="1.37" y1="1333.48" x2="1685.42" y2="1333.48" xlink:href="#Naamloos_verloop_88"/><linearGradient id="Naamloos_verloop_88-71" x1="1.27" y1="1330.83" x2="1685.33" y2="1330.83" xlink:href="#Naamloos_verloop_88"/><linearGradient id="Naamloos_verloop_88-72" x1="1.27" y1="1328.44" x2="1685.33" y2="1328.44" xlink:href="#Naamloos_verloop_88"/><linearGradient id="Naamloos_verloop_88-73" x1="1.27" y1="1326.25" x2="1685.33" y2="1326.25" xlink:href="#Naamloos_verloop_88"/><linearGradient id="Naamloos_verloop_88-74" x1="1.17" y1="1324.46" x2="1685.13" y2="1324.46" xlink:href="#Naamloos_verloop_88"/><linearGradient id="Naamloos_verloop_88-75" x1="1.17" y1="1322.81" x2="1685.13" y2="1322.81" xlink:href="#Naamloos_verloop_88"/><linearGradient id="Naamloos_verloop_88-76" x1="1.07" y1="1321.52" x2="1685.13" y2="1321.52" xlink:href="#Naamloos_verloop_88"/><linearGradient id="Naamloos_verloop_88-77" x1="1.07" y1="1320.47" x2="1685.14" y2="1320.47" xlink:href="#Naamloos_verloop_88"/><linearGradient id="Naamloos_verloop_88-78" x1="1.07" y1="1319.72" x2="1685.14" y2="1319.72" xlink:href="#Naamloos_verloop_88"/></defs><title>Golf_transparant_wit</title><g id="Laag_2" data-name="Laag 2"><g id="Laag_1-2" data-name="Laag 1"><g id="design"><g id="_2xHorizontaal" data-name=" 2xHorizontaal"><path class="cls-1" d="M0,635.5q842-.15,1684,0"/><path class="cls-2" d="M0,620.6q842-2.1,1684,0"/><path class="cls-3" d="M0,606c144.6-.4,289.3,3.9,433.8,2.1,68.4-.9,136.1-5.2,204.7-3.2s135.2,4.7,203.9,2.6c134.3-4.2,265.2.9,399.2.9,147.5,0,294.9-2.6,442.4-2.4"/><path class="cls-4" d="M0,591.5c139.8-.2,281.1,8,420.7,3.9,71.4-2.1,140.2-9.7,212.2-5.8,72.6,3.9,138.9,8.4,212.3,4.6s145.2-8.6,219.1-6.3c65.2,2,128.2,8.4,193.8,8.4,142.1,0,284-4.9,426.1-4.8"/><path class="cls-5" d="M0,577.3c133.5.1,271.7,12.7,404.8,6.1,75-3.7,144.6-15,220.9-8.9,78.6,6.3,142.9,12.8,223,6.9,78.3-5.8,156.3-14.1,235.9-9.8,65.4,3.5,126.8,13.4,193.1,13.4,135.7.1,270.7-7.6,406.4-7.8"/><path class="cls-6" d="M0,563.4c126.4.5,261.9,17.4,387.4,8.5,79.1-5.6,149.1-20.7,230.4-12.2,41.5,4.3,82.2,12.9,124.6,14.9,36.8,1.7,74.5-2.2,110.4-5.5,83.3-7.8,168.8-20.1,254-13.6,65.6,5,125.1,18.7,192.3,18.9,128.6.3,256.1-10.5,384.8-11"/><path class="cls-7" d="M.1,549.6c119.2.9,252,21.8,369.9,10.9,83.2-7.7,153.3-26.5,240-15.5,43.4,5.5,85.8,16.4,130.5,19.1,38.7,2.4,79.3-3.1,116.7-7.2,87.6-9.7,182-26.3,272.4-17.4,65.9,6.5,123.2,24.2,191.6,24.4,121.6.4,241.3-13.5,363-14.3"/><path class="cls-8" d="M.1,536.1c112.7,1.2,242.3,25.5,353.4,13.1,87-9.7,157.2-32.1,249.1-18.6,45.3,6.6,89,19.4,136,23.1,40.1,3.1,84.1-4,122.4-8.7,91.4-11.3,194.9-32.2,289.7-21,66.1,7.8,121.3,29.3,190.9,29.5,115,.4,227.3-16.3,342.5-17.3"/><path class="cls-9" d="M.1,522.8c107.5,1.4,233.4,28.5,339.3,15.1,90.2-11.4,160.4-37,257-21.4,46.8,7.6,91.8,22.2,140.7,26.5,41.3,3.6,87.9-4.8,126.9-10,94.5-12.8,206.3-37.4,304.9-24.1,66.3,8.9,119.4,33.7,190.2,34,109.7.5,215.1-18.8,325-20"/><path class="cls-10" d="M.1,509.8c56.5.7,108.8,5.5,163.7,11.5,52,5.8,112.7,12.2,165,5,92.8-12.7,162.8-40.9,263.1-23.6,48,8.3,93.8,24.5,144,29.2,42,3.9,90.2-5.4,129.6-11,97.1-13.9,214.9-41.3,316.8-26.6,66.8,9.6,117.7,37,189.6,37.3,105.9.4,205.8-20.8,312.1-21.9"/><path class="cls-11" d="M.1,496.9c55.9.6,106.4,5.4,160.3,12.1,50.9,6.3,111.3,12.7,162.8,5.4C417.5,501.1,487.1,471,590,489.3c48.3,8.6,94.8,26.3,145.7,30.9,42.5,3.8,90.1-5.6,129.8-11.5,99.1-14.8,219.7-43.5,324.2-28.1,67.5,9.9,115.9,38.9,189,39.2,104.2.4,200.7-21.9,305.4-22.9"/><path class="cls-12" d="M.2,484.3c55.7.7,106.6,5.5,160.4,11.9,51,6.1,111,12.5,162.4,5.2,94.7-13.4,165.7-42.3,268.5-24.3,48.1,8.5,94.8,25.7,145.4,30.2,42.5,3.8,90.1-5.5,129.9-11.3,99-14.4,220.1-42.9,324.1-27.9,67.5,9.8,117,38.5,189.8,38.8,103.5.5,199.5-21.5,303.4-22.6"/><path class="cls-13" d="M.2,471.9c103.5,1.4,223.4,28.5,325.3,15.2,95.5-12.5,170.9-38.3,272.8-21.5,48.1,7.9,94.4,23.1,144.5,27.7,42.2,3.9,90.5-5.2,130.3-10.5,98.6-13.3,218.2-40,321.1-26.3,67.6,9,120.9,35.9,193,36.2,101,.5,195.7-19.7,297.1-20.8"/><path class="cls-14" d="M.2,459.6c106.4,1.2,225,24,330.1,12.4,96.9-10.6,178.1-32.5,279.2-17.6,47.7,7,94.1,20.1,143.4,24.2,42.2,3.5,89.6-4.5,129.9-9.3,98.8-11.9,214.7-35.5,317-23.9,68.5,7.8,125.7,31.8,197.5,32.1,97.2.5,189.4-16.9,286.9-17.9"/><path class="cls-15" d="M.2,447.7c110.3.6,227.6,18,337.1,9,98.5-8.2,186.2-25.4,287-12.9,47.1,5.9,93.4,16.5,141.7,19.8,42.2,2.9,88-3.6,128.9-7.8,99-10.2,210.2-29.9,311.8-20.8,69.7,6.2,131.1,26.5,203,26.9,92.5.4,181.6-13.5,274.4-14.1"/><path class="cls-16" d="M.3,435.9c114.7-.1,232,11.3,346.3,5.2,100.4-5.4,194-17.5,295.3-7.6,46.4,4.5,92.4,12.4,139.6,14.8,42,2.1,86.1-2.7,127.3-6.1,99-8.1,205-23.5,305.7-17.3,71.1,4.4,136.5,20.5,208.8,20.8,87.6.4,173.1-9.6,260.9-9.9"/><path class="cls-17" d="M.3,424.4c119.2-.9,238.6,4.3,357.7,1.3,102.2-2.6,200.8-9.3,303.2-2.3,91,6.2,170.2,10.8,262,5.4,98.2-5.8,199.5-16.8,298.7-13.5,72.5,2.5,141.5,14.1,214.5,14.5,82.9.4,164.9-5.5,247.8-5.4"/><path class="cls-18" d="M.3,413q185.4-2.55,371.2-2.4c103.8,0,206-.9,309.7,3,86.1,3.2,169.8,5,256.1,2,96.5-3.4,193.9-10.2,290.8-9.6,73.5.5,145.8,7.7,219.4,8.1,79,.4,157.8-1.5,236.7-1.1"/><path class="cls-19" d="M.4,401.9c128.3-2.3,258.5-8.3,386.7-5.6,188.3,4,374.6,8.4,563.1,6.4,94.2-1,188.1-4.1,282.1-5.8,74.1-1.3,148.9,1.7,223.1,2.2,76.3.5,152.6,2.2,229,2.8"/><path class="cls-20" d="M.4,391c133.4-2.6,271-13,404.3-8,104,3.9,210.9,14.2,315.1,11.8,81.4-1.9,159.3-5.6,241.1-4.4,166.4,2.4,331.3-6.3,497.6-5.3,75.5.5,150.4,5.2,226,6"/><path class="cls-21" d="M.5,380.3c139.3-2.5,284.7-16,423.7-9.4,102,4.9,209.9,19.9,312.2,14.7,40.1-2,79.2-7.8,119.3-9.6,37.2-1.6,75.6,1.1,112.7,2.5,88.3,3.3,174.4,5.4,262.5.5,73.9-4.1,150-7.1,224.5-6.7,76.8.4,152.3,7.3,229.2,8"/><path class="cls-22" d="M.5,369.8c146.5-1.7,298.9-16.8,445-9.4,98.5,5,205.6,23.4,304.3,16.2C788,373.8,824.3,366,862.6,364c35.9-1.9,73.4,1.4,109,3.5,85.3,4.9,166.3,8.3,251.7,2.6,73-4.9,147.4-9.2,221.1-9,80.6.3,159.3,8.1,240.1,8.7"/><path class="cls-23" d="M.6,359.5c154.1-.3,312.2-14.1,465.9-7.1,94.2,4.3,198.5,23.7,292.6,15.3,36.1-3.2,69.7-12.1,106.1-14.4,34.5-2.1,71.2,1.5,105.1,3.9,82.1,5.8,158.1,9.6,240.6,3.9,71.2-4.9,142.5-9.2,214.5-9.1,86.9.2,172.3,7.4,259.2,7.5"/><path class="cls-24" d="M.6,349.4c158.8.8,320.3-8.6,478.7-2.3,91.8,3.7,194.6,20.8,285.9,11.5,34.8-3.5,67.3-12.5,102.4-15,33.2-2.4,68.7,1.4,101.4,3.8,78.3,5.8,151.2,10.1,230.1,4.9,68.9-4.5,137.6-8.3,207.1-8.3,93,.1,185.4,5.7,278.4,5.5"/><path class="cls-25" d="M.6,339.6c162.3,1.8,325.8-3,487.9,2.1,90.8,2.9,192.2,17.2,282,7.5,34.1-3.7,66.4-12.4,100.8-15.1,32.1-2.5,66.4,1.3,98,3.7,74.7,5.8,144.4,10.4,219.8,5.6,66.6-4.2,132.9-7.3,200.1-7.4,98.5-.1,197,4,295.3,3.5"/><path class="cls-26" d="M.7,329.9c164.5,2.6,329.2,2.6,493.7,6,91,1.9,191.2,13.2,280.8,3.5,34.1-3.7,66.8-11.9,101.2-14.7,31.2-2.5,64.3,1.2,95.1,3.7,71.1,5.7,137.7,10.5,209.7,6.3,64.5-3.8,128.5-6.3,193.4-6.5,103.4-.2,207,2.1,310.1,1.7"/><path class="cls-27" d="M.7,320.4c165.4,3.3,331,8.4,496.5,9.6,92,.7,191.3,8.6,281.8-.7,34.7-3.6,68.4-11.1,103.3-13.8,30.6-2.4,62.2,1.1,92.4,3.6,67.7,5.5,131.2,10.5,199.8,6.8,62.4-3.4,124.4-5.3,187.2-5.6,50.1-.2,100.1-1.4,150.2-2.3,58-1,114.9,2.4,172.8,2.3"/><path class="cls-28" d="M.8,311.2c164.9,3.9,331.4,14,496.5,12.8,93.7-.6,192.6,3.8,284.9-4.8,35.7-3.3,71-9.9,106.9-12.4,30.1-2.1,60.4,1.1,90.1,3.5,64.4,5.3,124.9,10.3,190.3,7.1,60.5-2.9,120.5-4.3,181.3-4.7,52-.3,103.5-2.2,155.3-3.9,60.5-2,118.4,2.3,178.7,2.4"/><path class="cls-29" d="M.8,302.1C164,306.4,331.7,321.5,495,317.8c95.9-2.1,194.9-1.4,289.8-9,70.8-5.7,128.1-13.3,199.9-7.3,61.2,5.1,118.9,10,181.1,7.4,58.7-2.5,116.9-3.2,175.7-3.7,53.5-.5,106.4-3.1,159.6-5.6,63-3,121,2.2,183.7,2.6"/><path class="cls-30" d="M.9,293.3c86.3,2.5,172.2,6.8,258.2,11.1,76.1,3.8,155.2,10,231.6,7.2,98.5-3.7,198.2-6.6,296.1-13.2,70.7-4.7,133-11.3,204.1-5.5,58.2,4.8,113.1,9.6,172.2,7.5,57-2,113.6-2.2,170.6-2.8,54.8-.6,108.8-4,163.1-7.4,65.4-4.1,122.9,2.2,188,3.1"/><path class="cls-31" d="M.9,284.6c85.2,2.6,169.7,7.7,254.5,12.7,74.7,4.4,154.2,11.8,229.4,7.8,101.3-5.4,202.3-12,303.7-17.3,71.2-3.7,138.4-9.1,209.5-3.4,110.7,9,217.7,7.1,329.5,5.6,56-.7,110.7-4.9,165.9-9.1,68-5.2,124.1,2.2,191.6,3.6"/><path class="cls-32" d="M1,276.2c83.8,2.7,166.7,8.4,249.8,14.1,73.3,5,152.7,13.4,226.6,8.4,170.6-11.6,355.1-36,527.9-22.4,105.9,8.4,209.9,8.1,317.1,6.5,56.9-.9,112.1-5.8,168-10.8,25.3-2.3,52.4-5.4,78.2-4.8,39.3.8,76.8,8,116.4,9"/><path class="cls-33" d="M1,267.9c82.2,2.8,163.2,9.1,244.6,15.4,71.8,5.6,151,14.7,223.4,8.8,178.8-14.5,361.6-37.8,544-23.9,101.6,7.8,202.6,9,305.5,7.2,57.7-1,113.2-6.7,169.5-12.5,25.6-2.6,53.6-6.3,79.8-5.6,39.7.9,77.3,9.1,117.3,10.5"/><path class="cls-34" d="M1.1,259.9c80.6,2.8,159.4,9.6,238.9,16.5,70.4,6.1,148.9,15.8,220,9.2,110.7-10.3,217.4-27.7,330.8-28.9,75.7-.8,154.9-1.8,230.1,3.7q146.55,10.65,294.7,7.9c58.3-1.1,113.9-7.6,170.4-14,25.8-2.9,54.6-7.1,81.1-6.4,40,1,77.6,10.3,117.9,12.1"/><path class="cls-35" d="M1.1,252c78.8,2.7,155.5,10.1,233,17.5,69,6.6,146.5,16.7,216.4,9.5,113.9-11.9,222.7-32.6,340.5-32.5,78.1.1,160.1.8,237.6,6.1,94.2,6.5,189.6,10.6,284.9,8.5,58.7-1.3,114.3-8.5,171-15.6,25.9-3.2,55.4-8,82.3-7.2,40.3,1.2,77.7,11.5,118.4,13.6"/><path class="cls-36" d="M1.2,244.3c77.1,2.6,151.6,10.4,227.1,18.4,67.7,7.1,144,17.5,212.7,9.7,117.2-13.2,227.8-37.1,350-35.8,80.7.9,165,3.4,245.2,8.5,91.1,5.9,183.8,11.2,276,9,59.1-1.4,114.5-9.3,171.2-17,26-3.5,56.1-8.7,83.2-7.9,40.5,1.3,77.8,12.6,118.6,15"/><path class="cls-37" d="M1.2,236.9C76.7,239.4,149,247.6,222.6,256c66.5,7.6,141.4,18,209.2,9.9,120.3-14.5,232.6-41.4,359-38.9,83.4,1.6,169.6,5.9,252.5,10.8,88.5,5.3,178.6,11.7,268.1,9.5,59.3-1.5,114.4-10,171-18.2,26-3.8,56.7-9.4,84-8.5,40.7,1.4,77.7,13.6,118.8,16.3"/><path class="cls-38" d="M1.3,229.6c74.1,2.3,144.3,10.9,216.1,19.7,65.5,8.1,138.9,18.5,205.9,10.1,123.3-15.5,237-45.2,367.3-41.7,86,2.3,173.7,8.2,259.4,12.9,86.4,4.7,174,12.2,261.2,9.9,59.5-1.6,114.3-10.7,170.7-19.4,26-4,57.2-10.1,84.6-9.1,40.9,1.5,77.6,14.6,118.8,17.6"/><path class="cls-39" d="M1.3,222.5c72.9,2.1,141.1,11,211.4,20.2,64.7,8.4,136.6,18.9,203,10.3,126-16.3,240.8-48.5,374.6-44.1,88.5,2.9,177.2,10.4,265.5,14.7,84.8,4.2,169.8,12.3,255.4,10.2,59.6-1.5,114.1-11.3,170.2-20.3,26-4.2,57.7-10.6,85.2-9.6,41.1,1.6,77.4,15.4,118.8,18.6"/><path class="cls-40" d="M1.4,215.6c72,1.9,138.5,11,207.6,20.6,63.9,8.8,134.7,19.1,200.5,10.4,128.4-16.8,243.7-51.4,380.6-46.2,63.7,2.4,125.3,11.2,188.7,14.2,27.3,1.3,54.7.9,82,2.1,83.5,3.7,166.4,12.6,250.6,10.5,59.6-1.5,113.7-11.7,169.6-21.1,26-4.4,58.1-11.1,85.7-10,41.3,1.6,77.2,16.1,118.7,19.5"/><path class="cls-41" d="M1.4,208.9c71.4,1.6,136.6,11,204.7,20.9,63.2,9.1,133.3,19.2,198.7,10.7,130.8-17.1,245.3-52.8,385-48,65.1,2.2,127.6,12.3,192.3,15.6,27.4,1.4,55.1.8,82.5,1.9,82.6,3.3,163.6,12.8,247,10.7,59.7-1.5,113.3-12,169-21.6,26-4.5,58.4-11.4,86.2-10.3,41.5,1.6,77,16.7,118.6,20.1"/><path class="cls-42" d="M1.5,202.4c71.2,1.3,135.5,10.9,203.2,21,62.7,9.4,132.4,19.3,197.5,10.9,132.1-17,246.3-54.2,387.7-49.3,65.9,2.3,128.9,13.2,194.3,16.6,27.5,1.4,55.5.7,83.1,1.7,82,2.9,161.5,12.9,244.5,10.9,59.7-1.4,112.8-12.1,168.5-21.9,26.1-4.6,58.8-11.6,86.8-10.6,41.7,1.6,76.7,17,118.5,20.5"/><path class="cls-43" d="M1.5,196c131.7,2.1,269.1,48.8,400.5,32,132.2-16.9,246.6-54.3,388-49.4,66,2.3,128.9,13.2,194.2,16.8,27.6,1.5,55.7.7,83.4,1.7,82.1,2.8,160.9,13.1,243.9,11.1,59.8-1.4,112.8-12.1,168.5-21.9,26.2-4.6,59.1-11.7,87.1-10.7,41.7,1.6,76.7,17.1,118.4,20.6"/><path class="cls-44" d="M1.5,189.5c132.8,2,268.5,48.6,401.2,31.8,131.3-16.7,246.5-52.9,386.5-48.5,65.3,2,127.7,12.3,192.3,15.9,27.6,1.5,55.6.8,83.3,1.8,82.5,2.9,161.5,13.7,245.1,11.7,60-1.5,113.6-12.2,169.6-22,26.3-4.6,59.3-11.8,87.5-10.8,41.6,1.5,76.9,16.9,118.5,20.4"/><path class="cls-45" d="M1.6,182.9c134.1,1.9,267.9,48.3,402.3,31.7,129.4-16,246.4-51.5,383.8-47,64.1,2.1,125.7,11.1,189.2,14.5,27.6,1.5,55.6.8,83.3,1.9,83.2,3.2,162.5,14.8,246.9,12.6,60.5-1.6,115-12.3,171.5-22.1,26.6-4.6,59.9-12,88.3-11,41.5,1.4,77.1,16.6,118.6,20.2"/><path class="cls-46" d="M1.6,176.1c135.7,1.7,267.5,47.7,403.8,31.6,127.9-15.1,245.2-48.7,380.2-45.2,89.6,2.3,179,11.1,268.5,14.8,84.2,3.5,164,16.1,249.4,13.8,61.2-1.6,116.8-12.4,174-22.3,27-4.6,60.6-12.2,89.4-11.3,41.4,1.3,77.4,16.3,118.7,19.8"/><path class="cls-47" d="M1.6,169.2c137.3,1.6,267.1,47,405.4,31.7,126.2-14,243.5-45.4,375.7-43.1,87.5,1.5,176.4,8.9,263.7,12.9,85.3,3.9,165.8,17.6,252.6,15.3,62-1.7,118.8-12.6,176.9-22.6,27.4-4.7,61.5-12.3,90.8-11.5,41.4,1.2,77.7,15.8,118.9,19.4"/><path class="cls-48" d="M1.6,162.3c138.9,1.5,266.9,46.3,407.3,31.9,124.4-12.7,241.4-41.8,370.5-40.9,85.2.6,173.4,6.5,258.3,10.8,86.6,4.4,168.1,19.3,256.4,16.9,62.9-1.8,121.1-12.8,180.2-22.8,27.9-4.7,62.5-12.5,92.2-11.8,41.3,1.1,78,15.4,119.1,18.9"/><path class="cls-49" d="M1.7,155.2c140.5,1.4,266.9,45.5,409.3,32.3,122.4-11.4,238.8-38,364.9-38.5,82.9-.3,170,3.9,252.6,8.5,88.1,4.9,170.7,21,260.7,18.5,63.8-1.8,123.4-12.9,183.5-22.9,28.4-4.7,63.5-12.6,93.7-12,41.3.9,78.3,14.9,119.3,18.2"/><path class="cls-50" d="M1.7,148.1c142.1,1.4,267.1,44.8,411.5,32.8,120.3-10,235.9-34.1,358.9-36.1,80.6-1.3,166.4,1.4,246.7,6.1,89.7,5.3,173.7,22.6,265.5,20.1,64.8-1.8,125.7-12.9,186.7-22.9,29-4.7,64.5-12.7,95.2-12.1,41.2.8,78.7,14.3,119.6,17.5"/><path class="cls-51" d="M1.7,141c143.4,1.4,267.6,44.2,413.6,33.4,118.3-8.7,232.8-30.3,352.6-33.8,78.4-2.3,162.6-1.1,240.8,3.8,91.3,5.7,177.2,24.3,270.8,21.5,65.7-2,127.6-12.8,189.7-22.7,29.5-4.7,65.4-12.7,96.6-12.2,41.2.6,79,13.6,119.9,16.8"/><path class="cls-52" d="M1.7,133.8c144.7,1.5,268.2,43.9,415.7,34.3,116.3-7.6,229.4-26.6,346.4-31.7,76.5-3.3,158.7-3.5,235.1,1.5,93.2,6.1,180.9,25.6,276.5,22.8,66.4-1.9,129.3-12.6,192.3-22.4,30.6-4.7,65.6-12.1,97.7-12.2,40.8-.2,79.8,13,120.3,16"/><path class="cls-53" d="M1.7,126.6c145.9,1.8,268.9,44,417.8,35.3,190.5-11.1,376.1-43.3,570.1-30.4,95.3,6.4,184.9,26.4,282.6,23.7,66.9-1.9,130.7-12.2,194.3-21.8,31-4.6,66.1-11.8,98.6-12.1,40.8-.3,80.2,12.3,120.6,15.1"/><path class="cls-54" d="M1.7,119.5c76.8,1.1,144.7,13.7,216.8,25.5a912,912,0,0,0,203,11.1c185.6-9.9,371.2-43.3,559.5-30.8,97.5,6.5,189.1,26.8,289,24.3,67.1-1.7,131.4-11.6,195.6-20.9,31.4-4.5,66.3-11.4,99.1-11.8,40.8-.6,80.5,11.5,121,14.1"/><path class="cls-55" d="M1.7,112.3c77.4,1.3,145.6,14.4,218.1,26.6,68.7,11.5,131.4,15.2,203.4,11.5,181.7-9.3,366.4-43.2,550.2-31.2,99.8,6.5,193.5,26.7,295.8,24.4,67.1-1.5,131.6-10.8,195.9-19.6,31.6-4.3,66.3-10.8,99.1-11.4,40.8-.7,80.8,10.8,121.4,13.2"/><path class="cls-56" d="M1.7,105.3c78,1.6,146.5,15.3,219.3,27.9,69,11.9,131.3,15.7,203.8,11.9,109.4-5.8,215.9-16.9,324-26.5,72.2-6.4,145.4-9.8,218.5-5.4,102.4,6.3,198.1,25.7,302.8,24,66.6-1.1,131-9.7,195.2-18,31.7-4.1,65.9-10.1,98.6-10.8,40.9-.8,81.2,9.9,121.8,12.2"/><path class="cls-57" d="M1.7,98.3c78.6,1.9,147.3,16.3,220.4,29.5,69.3,12.5,131,16.5,204.1,12.4,107.9-6.1,212.7-16.8,319.3-26.8,72.1-6.8,144.6-10.2,217.7-5.8,104.6,6.3,202.1,25.6,308.8,24.1,66.1-.9,129.7-9,193.5-17,31.6-4,65.3-9.6,97.9-10.4,41.1-1.1,81.5,9.2,122.3,11.2"/><path class="cls-58" d="M1.7,91.4c79.4,2.1,148,17.3,221.4,31.2,69.4,13.1,130.8,17.3,204.3,13,106.4-6.3,209.3-17.3,314.3-27.6,72.4-7.1,145-10.3,218.4-5.7,106.1,6.7,204.6,26.7,313.1,25.4,65.8-.8,128.7-9,192.1-17.1,31.6-4,64.9-9.5,97.5-10.5,41.3-1.3,81.8,8.7,123,10.4"/><path class="cls-59" d="M1.7,84.6C81.9,87,150.6,103,224.1,117.5c69.6,13.7,130.6,18.2,204.6,13.6,104.9-6.6,206-17.8,309.3-28.4,72.8-7.4,145.6-10.5,219.5-5.6,107.3,7.1,206.4,28.1,316.3,26.9,65.5-.7,127.9-9.2,190.9-17.4,31.5-4.1,64.7-9.5,97.2-10.6,41.5-1.5,82.4,8.3,123.8,9.8"/><path class="cls-60" d="M1.6,77.9c80.9,2.6,149.7,19.5,223.5,34.7,69.6,14.3,130.4,19.1,204.9,14.1,103.3-6.9,202.7-18.6,304.5-29.3,73.3-7.8,146.6-10.7,220.9-5.4,108.2,7.7,207.5,29.7,318.6,28.5,65.3-.7,127.3-9.4,189.9-17.9,31.4-4.2,64.5-9.6,97-10.9,41.8-1.6,83,8.1,124.7,9.4"/><path class="cls-61" d="M1.6,71.4C83.3,74.2,152.1,92,226.2,107.8c69.7,14.9,130.1,20.1,205.1,14.7,101.8-7.3,199.5-19.4,299.7-30.4,73.9-8.1,147.8-10.9,222.8-5.2,108.9,8.3,208,31.4,320.1,30.3,65.2-.7,126.8-9.8,189.1-18.6,31.4-4.4,64.3-9.8,96.9-11.2,42.2-1.8,83.7,7.9,125.8,9.2"/><path class="cls-62" d="M1.6,65C84.1,68.1,153,86.7,227.2,103.2c69.7,15.5,129.9,21.1,205.3,15.3,100.3-7.7,196.3-20.3,295-31.5,74.7-8.4,149.2-11.2,224.9-4.9,109.2,9,207.9,33.4,320.8,32.2,65.2-.7,126.4-10.3,188.5-19.4,31.3-4.6,64.3-10.1,96.9-11.6,42.5-1.9,84.5,7.9,126.9,9.1"/><path class="cls-63" d="M1.6,58.8c83.3,3.3,152.2,22.8,226.7,40C298,114.8,358,121,433.8,114.6,532.6,106.4,627,93.3,724.3,82c75.5-8.8,150.8-11.4,227.3-4.7,109.4,9.7,207.3,35.5,320.8,34.1,65.2-.8,126.2-10.9,188-20.3,31.3-4.8,64.3-10.5,97-12,42.9-2,85.3,8,128.2,9.2"/><path class="cls-64" d="M1.6,52.9c84.1,3.6,153.1,23.9,227.8,41.7,69.7,16.6,129.6,23.2,205.7,16.3,97.4-8.7,190.2-22.5,286.1-33.9,76.4-9.1,152.6-11.7,229.9-4.3,109.3,10.4,206.3,37.7,320.3,36.2,65.3-.8,126-11.6,187.6-21.4,31.3-5,64.4-11,97.2-12.5,43.3-2,86.2,8.2,129.5,9.4"/><path class="cls-65" d="M1.5,47.1c84.8,3.8,153.9,25,228.8,43.4,69.6,17.1,129.4,24.2,205.9,16.8C532.1,98.1,623.4,83.6,718,72.1c77.4-9.4,154.5-12.1,232.7-4,109,11.2,204.8,39.9,319.1,38.3,65.5-1,126-12.3,187.4-22.6,31.2-5.2,64.5-11.5,97.4-13,43.8-2.1,87.2,8.4,130.9,9.7"/><path class="cls-66" d="M1.5,41.6c85.6,4.1,154.8,26.1,229.8,45.1C300.9,104.3,360.6,112,437.4,104,531.9,94.3,621.8,79.2,715,67.6c78.4-9.7,156.6-12.4,235.7-3.7,108.5,12,203,42.3,317.5,40.4,65.7-1.1,126.1-13.1,187.3-23.8,31.2-5.4,64.6-12,97.7-13.6,44.3-2.1,88.2,8.7,132.3,10.1"/><path class="cls-67" d="M1.5,36.3c158.9,7.9,270.4,82.9,437.1,64.5,93.1-10.3,181.6-26.1,273.6-37.7C791.6,53.1,871,50.3,951,59.8c107.9,12.7,200.9,44.6,315.5,42.5,65.9-1.2,126.2-14,187.3-25.1,31.2-5.7,64.8-12.6,98-14.2,44.7-2.1,89.2,9,133.8,10.6"/><path class="cls-68" d="M1.5,31.3c159.3,8.3,270.9,86.2,438.2,66.6,91.7-10.8,178.9-27.4,269.7-39,80.5-10.3,161.1-13.2,242-3,107.2,13.5,198.5,46.9,313.1,44.6,66.2-1.3,126.5-14.8,187.4-26.4,31.2-5.9,64.9-13.2,98.4-14.8,45.2-2.1,90.2,9.4,135.2,11.2"/><path class="cls-69" d="M1.4,26.6C161,35.2,272.8,116,440.7,95.1,608,74.2,776.7,28.8,952,52.2c106.3,14.2,196,49.3,310.5,46.7,66.4-1.5,126.8-15.7,187.5-27.8,31.1-6.2,65.2-13.8,98.8-15.3,45.6-2.1,91.2,9.9,136.6,11.7"/><path class="cls-70" d="M1.4,22.3c159.9,8.8,272,92.5,440.4,70.3C608.8,70.5,777,24,952.8,48.8c105.4,14.9,193.3,51.5,307.7,48.7,66.7-1.6,127.1-16.6,187.7-29.1,31.1-6.4,65.4-14.4,99.2-15.9,46.1-2.1,92.2,10.3,138,12.4"/><path class="cls-71" d="M1.3,18.2c160.2,9.1,272.5,95.5,441.4,72C609.4,67,777.3,19.3,953.6,45.6c104.5,15.6,190.4,53.7,304.8,50.7,67-1.8,127.4-17.4,187.9-30.4,31.1-6.7,65.6-15,99.6-16.5,46.5-2.1,93.2,10.8,139.4,13"/><path class="cls-72" d="M1.3,14.5c160.5,9.2,273,98.3,442.3,73.6,166.5-24.3,334-73,510.9-45.4,103.6,16.2,187.6,55.7,301.9,52.5,67.4-1.9,127.7-18.3,188.1-31.7,31.1-6.9,65.9-15.6,100.1-17.1,47-2,94.1,11.2,140.7,13.7"/><path class="cls-73" d="M1.3,11.1c160.9,9.3,273.3,100.9,443.2,75C610.9,60.8,777.9,11,955.6,40c102.7,16.7,184.8,57.6,299,54.2,67.7-2,128.1-19,188.4-32.9,31-7.1,66.1-16.1,100.5-17.6,47.3-2,95,11.7,141.8,14.3"/><path class="cls-74" d="M1.2,8.2c161.4,9.4,273.5,103.2,444.1,76.3,166.3-26.2,332.9-77,511.3-46.8,101.8,17.3,182,59.4,296.1,55.8,68-2.2,128.4-19.8,188.6-34,31-7.3,66.3-16.6,100.9-18.1,47.7-2,95.8,12.1,142.9,14.9"/><path class="cls-75" d="M1.2,5.6C163.2,15,274.7,110.8,446.1,83,612.4,56,778.4,4.2,957.6,35.6c101.1,17.7,179.4,60.9,293.5,57.2,68.4-2.3,128.6-20.4,188.8-35,31-7.5,66.6-17.1,101.3-18.5,48.1-2,96.5,12.5,143.9,15.4"/><path class="cls-76" d="M1.1,3.5c162.9,9.4,273.2,107,445.6,78.3C613.3,54.1,778.5,1.5,958.5,33.9,1059,52,1135.4,96.2,1249.6,92.3c68.7-2.3,128.8-21,189-35.9,31-7.7,66.8-17.5,101.7-18.9,48.4-1.9,97.1,12.8,144.8,15.9"/><path class="cls-77" d="M1.1,1.8C93.5,7,163.4,37.1,239.4,61.3c69.8,22.2,128.2,33.1,208,19.6C614.2,52.6,778.5-.8,959.4,32.5c100.1,18.4,174.6,63.4,289,59.4,69-2.4,129-21.5,189.1-36.6,31-7.8,66.9-17.8,102.1-19.2,48.6-1.9,97.6,13.1,145.5,16.3"/><path class="cls-78" d="M1.1.5C93.9,5.6,163.8,36.3,239.7,60.7c70.2,22.5,127.9,33.2,208.2,19.4C615.2,51.6,778.3-2.5,960.2,31.5c99.9,18.7,172.6,64.2,287.3,60.2,69.2-2.4,129-21.8,189.2-37.2,31.1-7.9,67.1-18,102.4-19.4,48.8-1.9,97.9,13.3,146,16.7"/></g></g></g></g></svg>