<svg xmlns="http://www.w3.org/2000/svg" width="32" height="32">
  <path fill="#fff" d="M11.333 7V2.336h-.664v-.672L11.997 1h.672v6h-1.336zM19.333 15v-4.664h-.664v-.672L19.997 9h.672v6h-1.336zM27.333 23v-4.665h-.664v-.672L27.997 17h.672v6h-1.336zM27.333 7V2.336h-.664v-.672L27.997 1h.672v6h-1.336zM11.333 23v-4.665h-.664v-.672L11.997 17h.672v6h-1.336zM3.333 30.999v-4.664H2.67v-.672L3.997 25h.672v6H3.333zM3.333 15v-4.664H2.67v-.672L3.997 9h.672v6H3.333zM19.333 30.999v-4.664h-.664v-.672L19.997 25h.672v6h-1.336zM19.335 1.001h1.336q.544 0 .936.4.392.392.392.936v3.328q0 .544-.392.944-.392.392-.936.392h-1.336q-.544 0-.944-.392Q18 6.217 18 5.665V2.337q0-.552.391-.944.4-.392.944-.392zm.015 4.776q.048.272.208.416.168.144.44.144.28 0 .472-.2.2-.2.2-.472V3.4l-1.32 2.376zm1.312-3.56q-.144-.552-.664-.552-.272 0-.472.2-.192.192-.192.472V4.6l1.328-2.384zM3.336 1.001h1.336q.544 0 .936.4.392.392.392.936v3.328q0 .544-.392.944Q5.216 7 4.672 7H3.336q-.544 0-.944-.392Q2 6.217 2 5.665V2.337q0-.552.392-.944.4-.392.944-.392zm.016 4.776q.048.272.208.416.168.144.44.144.28 0 .472-.2.2-.2.2-.472V3.4l-1.32 2.376zm1.312-3.56Q4.52 1.665 4 1.665q-.272 0-.472.2-.192.192-.192.472V4.6l1.328-2.384zM11.336 9h1.336q.544 0 .936.4.392.393.392.937v3.328q0 .544-.392.944-.392.392-.936.392h-1.336q-.544 0-.944-.392-.392-.392-.392-.944v-3.328q0-.552.392-.944.4-.392.944-.392zm.015 4.777q.048.272.208.416.168.144.44.144.28 0 .472-.2.2-.2.2-.472V11.4l-1.32 2.376zm1.312-3.56q-.144-.552-.664-.552-.272 0-.472.2-.192.192-.192.472V12.6l1.328-2.384zM3.336 17h1.336q.544 0 .936.4.392.392.392.936v3.328q0 .544-.392.944-.392.392-.936.392H3.336q-.544 0-.944-.392Q2 22.216 2 21.664v-3.328q0-.552.392-.944.4-.392.944-.392zm.016 4.776q.048.272.208.416.168.144.44.144.28 0 .472-.2.2-.2.2-.472V19.4l-1.32 2.376zm1.312-3.56q-.144-.552-.664-.552-.272 0-.472.2-.192.192-.192.472V20.6l1.328-2.384zM11.336 25h1.336q.544 0 .936.4.392.392.392.936v3.328q0 .544-.392.944-.392.392-.936.392h-1.336q-.544 0-.944-.392-.392-.392-.392-.944v-3.328q0-.552.392-.944.4-.392.944-.392zm.015 4.776q.048.272.208.416.168.144.44.144.28 0 .472-.2.2-.2.2-.472V27.4l-1.32 2.376zm1.312-3.56q-.144-.552-.664-.552-.272 0-.472.2-.192.192-.192.472V28.6l1.328-2.384zM27.335 25h1.336q.544 0 .936.4.392.392.392.936v3.328q0 .544-.392.944-.392.392-.936.392h-1.336q-.544 0-.944-.392-.392-.392-.392-.944v-3.328q0-.552.392-.944.4-.392.944-.392zm.015 4.776q.048.272.208.416.168.144.44.144.28 0 .472-.2.2-.2.2-.472V27.4l-1.32 2.376zm1.312-3.56q-.144-.552-.664-.552-.272 0-.472.2-.192.192-.192.472V28.6l1.328-2.384zM27.335 9h1.336q.544 0 .936.4.392.393.392.937v3.328q0 .544-.392.944-.392.392-.936.392h-1.336q-.544 0-.944-.392-.392-.392-.392-.944v-3.328q0-.552.392-.944.4-.392.944-.392zm.015 4.777q.048.272.208.416.168.144.44.144.28 0 .472-.2.2-.2.2-.472V11.4l-1.32 2.376zm1.312-3.56q-.144-.552-.664-.552-.272 0-.472.2-.192.192-.192.472V12.6l1.328-2.384zM19.335 17h1.336q.544 0 .936.4.392.392.392.936v3.328q0 .544-.392.944-.392.392-.936.392h-1.336q-.544 0-.944-.392-.391-.392-.391-.944v-3.328q0-.552.391-.944.4-.392.944-.392zm.015 4.776q.048.272.208.416.168.144.44.144.28 0 .472-.2.2-.2.2-.472V19.4l-1.32 2.376zm1.312-3.56q-.144-.552-.664-.552-.272 0-.472.2-.192.192-.192.472V20.6l1.328-2.384z" />
</svg>
