<svg xmlns="http://www.w3.org/2000/svg" width="32" height="32">
  <path fill="#fff" d="M11.33 7V2.34h-.66v-.68L12 1h.67v6h-1.34zm8 8v-4.66h-.66v-.68L20 9h.67v6h-1.34zm8 8v-4.67h-.66v-.67L28 17h.67v6h-1.34zm0-16V2.34h-.66v-.68L28 1h.67v6h-1.34zm-16 16v-4.67h-.66v-.67L12 17h.67v6h-1.34zm-8 8v-4.67h-.66v-.67L4 25h.67v6H3.33zm0-16v-4.66h-.66v-.68L4 9h.67v6H3.33zm16 16v-4.67h-.66v-.67L20 25h.67v6h-1.34zm0-30h1.34q.54 0 .94.4.39.4.39.94v3.32q0 .55-.4.95-.39.4-.93.4h-1.34q-.54 0-.94-.4-.39-.4-.39-.95V2.35q0-.55.4-.95.4-.39.93-.39zm.02 4.78q.05.27.2.41.18.15.45.15.28 0 .47-.2.2-.2.2-.48V3.4l-1.32 2.38zm1.31-3.56q-.14-.56-.66-.56-.27 0-.47.2-.2.2-.2.48V4.6l1.33-2.38zM3.34 1h1.33q.55 0 .94.4.39.4.39.94v3.33q0 .54-.4.94-.38.39-.93.39H3.34q-.55 0-.95-.4Q2 6.23 2 5.68V2.33q0-.55.4-.95.4-.39.94-.39zm.01 4.78q.05.27.21.41.17.15.44.15.28 0 .47-.2.2-.2.2-.48V3.4L3.35 5.78zm1.31-3.56q-.14-.56-.66-.56-.27 0-.47.2-.2.2-.2.48V4.6l1.33-2.38zM11.34 9h1.33q.55 0 .94.4.39.4.39.94v3.32q0 .55-.4.95-.38.4-.93.4h-1.33q-.55 0-.95-.4-.39-.4-.39-.95v-3.32q0-.56.4-.95.4-.39.94-.39zm.01 4.78q.05.27.2.41.18.15.45.15.28 0 .47-.2.2-.2.2-.47V11.4l-1.32 2.38zm1.31-3.56q-.14-.56-.66-.56-.27 0-.47.2-.2.2-.2.48v2.26l1.33-2.38zM3.34 17h1.33q.55 0 .94.4.39.4.39.94v3.32q0 .55-.4.95-.38.39-.93.39H3.34q-.55 0-.95-.4-.39-.38-.39-.94v-3.32q0-.56.4-.95.4-.39.94-.39zm.01 4.78q.05.27.21.41.17.15.44.15.28 0 .47-.2.2-.2.2-.48V19.4l-1.32 2.38zm1.31-3.56q-.14-.56-.66-.56-.27 0-.47.2-.2.2-.2.48v2.26l1.33-2.38zM11.34 25h1.33q.55 0 .94.4.39.4.39.94v3.32q0 .55-.4.95-.38.39-.93.39h-1.33q-.55 0-.95-.4-.39-.38-.39-.94v-3.32q0-.56.4-.95.4-.39.94-.39zm.01 4.78q.05.27.2.41.18.15.45.15.28 0 .47-.2.2-.2.2-.48V27.4l-1.32 2.38zm1.31-3.56q-.14-.56-.66-.56-.27 0-.47.2-.2.2-.2.48v2.26l1.33-2.38zM27.34 25h1.33q.54 0 .94.4.39.4.39.94v3.32q0 .55-.4.95-.39.39-.93.39h-1.34q-.54 0-.94-.4-.4-.38-.4-.94v-3.32q0-.56.4-.95.4-.39.95-.39zm.01 4.78q.05.27.2.41.18.15.45.15.28 0 .47-.2.2-.2.2-.48V27.4l-1.32 2.38zm1.31-3.56q-.14-.56-.66-.56-.27 0-.47.2-.2.2-.2.48v2.26l1.33-2.38zM27.34 9h1.33q.54 0 .94.4.39.4.39.94v3.32q0 .55-.4.95-.39.4-.93.4h-1.34q-.54 0-.94-.4-.4-.4-.4-.95v-3.32q0-.56.4-.95.4-.39.95-.39zm.01 4.78q.05.27.2.41.18.15.45.15.28 0 .47-.2.2-.2.2-.47V11.4l-1.32 2.38zm1.31-3.56q-.14-.56-.66-.56-.27 0-.47.2-.2.2-.2.48v2.26l1.33-2.38zM19.34 17h1.33q.54 0 .94.4.39.4.39.94v3.32q0 .55-.4.95-.39.39-.93.39h-1.34q-.54 0-.94-.4-.39-.38-.39-.94v-3.32q0-.56.4-.95.4-.39.94-.39zm.01 4.78q.05.27.2.41.18.15.45.15.28 0 .47-.2.2-.2.2-.48V19.4l-1.32 2.38zm1.31-3.56q-.14-.56-.66-.56-.27 0-.47.2-.2.2-.2.48v2.26l1.33-2.38z"/>
</svg>
